G04 EAGLE Gerber RS-274X export*
G75*
%MOMM*%
%FSLAX34Y34*%
%LPD*%
%INBottom layer*%
%IPPOS*%
%AMOC8*
5,1,8,0,0,1.08239X$1,22.5*%
G01*
%ADD10C,0.000000*%
%ADD11P,1.814519X8X202.500000*%
%ADD12C,1.000000*%
%ADD13R,0.106675X0.015238*%
%ADD14R,0.198119X0.015238*%
%ADD15R,0.167637X0.015238*%
%ADD16R,0.137156X0.015238*%
%ADD17R,0.274319X0.015238*%
%ADD18R,0.762000X0.015238*%
%ADD19R,0.350519X0.015238*%
%ADD20R,0.746756X0.015238*%
%ADD21R,0.182881X0.015238*%
%ADD22R,0.381000X0.015238*%
%ADD23R,0.731519X0.015238*%
%ADD24R,0.426719X0.015238*%
%ADD25R,0.716275X0.015238*%
%ADD26R,0.457200X0.015238*%
%ADD27R,0.701037X0.015238*%
%ADD28R,0.487681X0.015238*%
%ADD29R,0.685800X0.015238*%
%ADD30R,0.518156X0.015238*%
%ADD31R,0.533400X0.015238*%
%ADD32R,0.670556X0.015238*%
%ADD33R,0.259075X0.015238*%
%ADD34R,0.655319X0.015238*%
%ADD35R,0.213363X0.015238*%
%ADD36R,0.213356X0.015238*%
%ADD37R,0.640075X0.015238*%
%ADD38R,0.076200X0.015238*%
%ADD39R,0.182875X0.015238*%
%ADD40R,0.152400X0.015238*%
%ADD41R,0.228600X0.015238*%
%ADD42R,0.015238X0.015238*%
%ADD43R,0.243838X0.015238*%
%ADD44R,0.563875X0.015238*%
%ADD45R,0.335281X0.015238*%
%ADD46R,0.579119X0.015238*%
%ADD47R,0.975356X0.015238*%
%ADD48R,0.594356X0.015238*%
%ADD49R,0.960119X0.015238*%
%ADD50R,0.609600X0.015238*%
%ADD51R,0.396238X0.015238*%
%ADD52R,0.624838X0.015238*%
%ADD53R,0.365756X0.015238*%
%ADD54R,0.365762X0.015238*%
%ADD55R,0.320038X0.015238*%
%ADD56R,0.289556X0.015238*%
%ADD57R,0.091438X0.015238*%
%ADD58R,0.106681X0.015238*%
%ADD59R,0.045719X0.015238*%
%ADD60R,0.121919X0.015238*%
%ADD61R,0.792481X0.015238*%
%ADD62R,0.944881X0.015238*%
%ADD63R,1.066800X0.015238*%
%ADD64R,1.188719X0.015238*%
%ADD65R,1.280156X0.015238*%
%ADD66R,1.371600X0.015238*%
%ADD67R,1.463037X0.015238*%
%ADD68R,1.554481X0.015238*%
%ADD69R,1.615438X0.015238*%
%ADD70R,1.706881X0.015238*%
%ADD71R,1.767838X0.015238*%
%ADD72R,1.828800X0.015238*%
%ADD73R,1.889756X0.015238*%
%ADD74R,1.950719X0.015238*%
%ADD75R,2.011681X0.015238*%
%ADD76R,2.072637X0.015238*%
%ADD77R,2.103119X0.015238*%
%ADD78R,2.164081X0.015238*%
%ADD79R,2.225038X0.015238*%
%ADD80R,2.255519X0.015238*%
%ADD81R,2.316481X0.015238*%
%ADD82R,2.377438X0.015238*%
%ADD83R,2.407919X0.015238*%
%ADD84R,2.438400X0.015238*%
%ADD85R,2.499356X0.015238*%
%ADD86R,2.529838X0.015238*%
%ADD87R,1.112519X0.015238*%
%ADD88R,0.990600X0.015238*%
%ADD89R,0.914400X0.015238*%
%ADD90R,0.853438X0.015238*%
%ADD91R,0.822956X0.015238*%
%ADD92R,0.777238X0.015238*%
%ADD93R,0.640081X0.015238*%
%ADD94R,0.594363X0.015238*%
%ADD95R,0.563881X0.015238*%
%ADD96R,0.548638X0.015238*%
%ADD97R,0.502919X0.015238*%
%ADD98R,0.487675X0.015238*%
%ADD99R,0.472438X0.015238*%
%ADD100R,0.441956X0.015238*%
%ADD101R,0.441963X0.015238*%
%ADD102R,0.411481X0.015238*%
%ADD103R,0.411475X0.015238*%
%ADD104R,1.036319X0.015238*%
%ADD105R,1.127756X0.015238*%
%ADD106R,1.249681X0.015238*%
%ADD107R,1.310638X0.015238*%
%ADD108R,1.402081X0.015238*%
%ADD109R,1.447800X0.015238*%
%ADD110R,1.478281X0.015238*%
%ADD111R,1.493519X0.015238*%
%ADD112R,1.508756X0.015238*%
%ADD113R,1.097281X0.015238*%
%ADD114R,1.005837X0.015238*%
%ADD115R,0.807719X0.015238*%
%ADD116R,0.716281X0.015238*%
%ADD117R,0.792475X0.015238*%
%ADD118R,0.838200X0.015238*%
%ADD119R,0.868675X0.015238*%
%ADD120R,0.868681X0.015238*%
%ADD121R,0.883919X0.015238*%
%ADD122R,0.899156X0.015238*%
%ADD123R,0.944875X0.015238*%
%ADD124R,1.021075X0.015238*%
%ADD125R,1.021081X0.015238*%
%ADD126R,1.051556X0.015238*%
%ADD127R,1.097275X0.015238*%
%ADD128R,1.143000X0.015238*%
%ADD129R,1.173475X0.015238*%
%ADD130R,1.173481X0.015238*%
%ADD131R,1.203956X0.015238*%
%ADD132R,1.219200X0.015238*%
%ADD133R,1.249675X0.015238*%
%ADD134R,2.346963X0.015238*%
%ADD135R,0.335275X0.015238*%
%ADD136R,2.468881X0.015238*%
%ADD137R,2.499363X0.015238*%
%ADD138R,2.560319X0.015238*%
%ADD139R,2.621281X0.015238*%
%ADD140R,2.682238X0.015238*%
%ADD141R,2.773681X0.015238*%
%ADD142R,3.992881X0.015238*%
%ADD143R,3.962400X0.015238*%
%ADD144R,3.931919X0.015238*%
%ADD145R,3.901438X0.015238*%
%ADD146R,3.870956X0.015238*%
%ADD147R,3.840481X0.015238*%
%ADD148R,3.810000X0.015238*%
%ADD149R,3.779519X0.015238*%
%ADD150R,3.749038X0.015238*%
%ADD151R,3.718556X0.015238*%
%ADD152R,3.688081X0.015238*%
%ADD153R,3.657600X0.015238*%
%ADD154R,3.627119X0.015238*%
%ADD155R,3.596638X0.015238*%
%ADD156R,3.566156X0.015238*%
%ADD157R,3.535681X0.015238*%
%ADD158R,3.505200X0.015238*%
%ADD159R,3.474719X0.015238*%
%ADD160R,3.444238X0.015238*%
%ADD161R,3.413756X0.015238*%
%ADD162R,3.383281X0.015238*%
%ADD163R,3.352800X0.015238*%
%ADD164R,3.322319X0.015238*%
%ADD165R,3.291838X0.015238*%
%ADD166R,3.261356X0.015238*%
%ADD167R,3.230881X0.015238*%
%ADD168R,3.200400X0.015238*%
%ADD169R,3.169919X0.015238*%
%ADD170R,3.139438X0.015238*%
%ADD171R,3.108956X0.015238*%
%ADD172R,3.078481X0.015238*%
%ADD173R,3.048000X0.015238*%
%ADD174R,3.017519X0.015238*%
%ADD175R,2.987038X0.015238*%
%ADD176R,2.956556X0.015238*%
%ADD177R,2.926081X0.015238*%
%ADD178R,2.895600X0.015238*%
%ADD179R,2.865119X0.015238*%
%ADD180R,2.834637X0.015238*%
%ADD181R,2.804156X0.015238*%
%ADD182R,2.743200X0.015238*%
%ADD183R,2.651756X0.015238*%
%ADD184R,2.590800X0.015238*%
%ADD185C,0.406400*%
%ADD186C,0.504800*%
%ADD187C,0.152400*%
%ADD188C,0.203200*%

G36*
X28564Y2048D02*
X28564Y2048D01*
X28661Y2058D01*
X28685Y2068D01*
X28711Y2072D01*
X28796Y2118D01*
X28886Y2158D01*
X28905Y2175D01*
X28928Y2188D01*
X28995Y2258D01*
X29067Y2324D01*
X29079Y2347D01*
X29097Y2366D01*
X29138Y2454D01*
X29185Y2540D01*
X29190Y2565D01*
X29201Y2589D01*
X29212Y2686D01*
X29229Y2782D01*
X29225Y2808D01*
X29228Y2833D01*
X29207Y2928D01*
X29193Y3025D01*
X29181Y3048D01*
X29176Y3074D01*
X29126Y3157D01*
X29082Y3244D01*
X29063Y3263D01*
X29050Y3285D01*
X28976Y3348D01*
X28906Y3416D01*
X28878Y3432D01*
X28863Y3445D01*
X28832Y3457D01*
X28759Y3497D01*
X28104Y3769D01*
X26269Y5604D01*
X25275Y8002D01*
X25275Y18598D01*
X26269Y20996D01*
X28104Y22831D01*
X30502Y23825D01*
X33098Y23825D01*
X35496Y22831D01*
X37331Y20996D01*
X38325Y18598D01*
X38325Y8002D01*
X37331Y5604D01*
X35496Y3769D01*
X34841Y3497D01*
X34758Y3446D01*
X34672Y3400D01*
X34654Y3381D01*
X34632Y3368D01*
X34570Y3293D01*
X34503Y3222D01*
X34492Y3198D01*
X34475Y3178D01*
X34440Y3087D01*
X34399Y2999D01*
X34396Y2973D01*
X34387Y2949D01*
X34383Y2851D01*
X34372Y2755D01*
X34378Y2729D01*
X34376Y2703D01*
X34404Y2609D01*
X34424Y2514D01*
X34438Y2492D01*
X34445Y2467D01*
X34501Y2387D01*
X34550Y2303D01*
X34570Y2286D01*
X34585Y2265D01*
X34663Y2207D01*
X34737Y2143D01*
X34762Y2133D01*
X34783Y2118D01*
X34875Y2088D01*
X34965Y2051D01*
X34998Y2048D01*
X35016Y2042D01*
X35049Y2042D01*
X35132Y2033D01*
X41882Y2033D01*
X41972Y2047D01*
X42063Y2055D01*
X42093Y2067D01*
X42125Y2072D01*
X42206Y2115D01*
X42290Y2151D01*
X42322Y2177D01*
X42342Y2188D01*
X42365Y2211D01*
X42421Y2256D01*
X43199Y3034D01*
X43217Y3059D01*
X43284Y3136D01*
X44284Y4563D01*
X44297Y4592D01*
X44350Y4678D01*
X45087Y6258D01*
X45095Y6288D01*
X45132Y6383D01*
X45583Y8067D01*
X45587Y8098D01*
X45606Y8197D01*
X45758Y9934D01*
X45757Y9958D01*
X45761Y10000D01*
X45761Y39970D01*
X46000Y43009D01*
X46185Y43778D01*
X46193Y43887D01*
X46205Y43995D01*
X46202Y44009D01*
X46203Y44024D01*
X46176Y44129D01*
X46153Y44236D01*
X46146Y44248D01*
X46142Y44262D01*
X46083Y44353D01*
X46027Y44447D01*
X46016Y44456D01*
X46008Y44468D01*
X45923Y44536D01*
X45840Y44607D01*
X45826Y44612D01*
X45815Y44621D01*
X45713Y44658D01*
X45612Y44699D01*
X45594Y44701D01*
X45584Y44704D01*
X45555Y44705D01*
X45445Y44717D01*
X43912Y44717D01*
X40817Y47812D01*
X40817Y52188D01*
X43912Y55283D01*
X48288Y55283D01*
X50157Y53414D01*
X50198Y53385D01*
X50232Y53348D01*
X50297Y53313D01*
X50357Y53270D01*
X50405Y53256D01*
X50448Y53232D01*
X50521Y53220D01*
X50592Y53198D01*
X50642Y53199D01*
X50691Y53191D01*
X50764Y53202D01*
X50838Y53204D01*
X50885Y53221D01*
X50934Y53229D01*
X50999Y53263D01*
X51069Y53289D01*
X51108Y53320D01*
X51152Y53343D01*
X51241Y53427D01*
X51261Y53442D01*
X51265Y53449D01*
X51274Y53458D01*
X51398Y53602D01*
X53693Y55563D01*
X56267Y57140D01*
X59056Y58295D01*
X61991Y59000D01*
X65030Y59239D01*
X84970Y59239D01*
X88009Y59000D01*
X90944Y58295D01*
X93733Y57140D01*
X95280Y56192D01*
X96307Y55563D01*
X98602Y53602D01*
X98726Y53458D01*
X98764Y53425D01*
X98795Y53387D01*
X98857Y53347D01*
X98913Y53299D01*
X98960Y53281D01*
X99002Y53254D01*
X99073Y53235D01*
X99142Y53208D01*
X99192Y53206D01*
X99240Y53193D01*
X99314Y53199D01*
X99388Y53195D01*
X99436Y53209D01*
X99486Y53213D01*
X99553Y53241D01*
X99625Y53261D01*
X99666Y53289D01*
X99712Y53309D01*
X99807Y53385D01*
X99828Y53399D01*
X99833Y53406D01*
X99843Y53414D01*
X101712Y55283D01*
X106088Y55283D01*
X109183Y52188D01*
X109183Y47812D01*
X106088Y44717D01*
X104555Y44717D01*
X104448Y44700D01*
X104339Y44686D01*
X104326Y44680D01*
X104312Y44678D01*
X104216Y44627D01*
X104118Y44579D01*
X104108Y44569D01*
X104095Y44562D01*
X104020Y44483D01*
X103942Y44407D01*
X103935Y44394D01*
X103926Y44384D01*
X103880Y44285D01*
X103830Y44188D01*
X103828Y44174D01*
X103822Y44161D01*
X103810Y44053D01*
X103794Y43945D01*
X103796Y43928D01*
X103795Y43917D01*
X103801Y43888D01*
X103815Y43778D01*
X104000Y43009D01*
X104239Y39970D01*
X104239Y10000D01*
X104243Y9976D01*
X104242Y9934D01*
X104394Y8197D01*
X104401Y8167D01*
X104417Y8067D01*
X104868Y6383D01*
X104881Y6354D01*
X104885Y6341D01*
X104890Y6320D01*
X104895Y6311D01*
X104913Y6258D01*
X105650Y4678D01*
X105668Y4652D01*
X105716Y4563D01*
X106716Y3136D01*
X106738Y3113D01*
X106768Y3075D01*
X106775Y3064D01*
X106782Y3058D01*
X106801Y3034D01*
X107579Y2256D01*
X107653Y2203D01*
X107723Y2143D01*
X107753Y2131D01*
X107779Y2112D01*
X107866Y2085D01*
X107951Y2051D01*
X107992Y2047D01*
X108014Y2040D01*
X108046Y2041D01*
X108118Y2033D01*
X114868Y2033D01*
X114964Y2048D01*
X115061Y2058D01*
X115085Y2068D01*
X115111Y2072D01*
X115196Y2118D01*
X115286Y2158D01*
X115305Y2175D01*
X115328Y2188D01*
X115395Y2258D01*
X115467Y2324D01*
X115479Y2347D01*
X115497Y2366D01*
X115538Y2454D01*
X115585Y2540D01*
X115590Y2565D01*
X115601Y2589D01*
X115612Y2686D01*
X115629Y2782D01*
X115625Y2808D01*
X115628Y2833D01*
X115607Y2928D01*
X115593Y3025D01*
X115581Y3048D01*
X115576Y3074D01*
X115526Y3157D01*
X115482Y3244D01*
X115463Y3263D01*
X115450Y3285D01*
X115376Y3348D01*
X115306Y3416D01*
X115278Y3432D01*
X115263Y3445D01*
X115232Y3457D01*
X115159Y3497D01*
X114504Y3769D01*
X112669Y5604D01*
X111675Y8002D01*
X111675Y18598D01*
X112669Y20996D01*
X114504Y22831D01*
X116902Y23825D01*
X119498Y23825D01*
X121896Y22831D01*
X123731Y20996D01*
X124725Y18598D01*
X124725Y8002D01*
X123731Y5604D01*
X121896Y3769D01*
X121241Y3497D01*
X121158Y3446D01*
X121072Y3400D01*
X121054Y3381D01*
X121032Y3368D01*
X120970Y3293D01*
X120903Y3222D01*
X120892Y3198D01*
X120875Y3178D01*
X120840Y3087D01*
X120799Y2999D01*
X120796Y2973D01*
X120787Y2949D01*
X120783Y2851D01*
X120772Y2755D01*
X120778Y2729D01*
X120776Y2703D01*
X120804Y2609D01*
X120824Y2514D01*
X120838Y2492D01*
X120845Y2467D01*
X120901Y2387D01*
X120950Y2303D01*
X120970Y2286D01*
X120985Y2265D01*
X121063Y2207D01*
X121137Y2143D01*
X121162Y2133D01*
X121183Y2118D01*
X121275Y2088D01*
X121365Y2051D01*
X121398Y2048D01*
X121416Y2042D01*
X121449Y2042D01*
X121532Y2033D01*
X130000Y2033D01*
X130022Y2036D01*
X130060Y2035D01*
X132751Y2247D01*
X132757Y2248D01*
X132763Y2248D01*
X132927Y2282D01*
X138047Y3945D01*
X138078Y3962D01*
X138113Y3970D01*
X138259Y4053D01*
X142614Y7218D01*
X142639Y7243D01*
X142669Y7262D01*
X142782Y7386D01*
X145947Y11741D01*
X145963Y11773D01*
X145986Y11801D01*
X146055Y11953D01*
X147718Y17073D01*
X147719Y17079D01*
X147722Y17084D01*
X147753Y17249D01*
X147965Y19940D01*
X147963Y19962D01*
X147967Y20000D01*
X147967Y88939D01*
X147956Y89010D01*
X147954Y89082D01*
X147936Y89131D01*
X147928Y89182D01*
X147894Y89245D01*
X147869Y89313D01*
X147837Y89353D01*
X147812Y89399D01*
X147760Y89449D01*
X147716Y89505D01*
X147672Y89533D01*
X147634Y89569D01*
X147569Y89599D01*
X147509Y89638D01*
X147458Y89650D01*
X147411Y89672D01*
X147340Y89680D01*
X147270Y89698D01*
X147218Y89694D01*
X147167Y89699D01*
X147096Y89684D01*
X147025Y89679D01*
X146977Y89658D01*
X146926Y89647D01*
X146865Y89610D01*
X146799Y89582D01*
X146743Y89538D01*
X146715Y89521D01*
X146700Y89503D01*
X146668Y89478D01*
X142534Y85343D01*
X134326Y85343D01*
X128523Y91146D01*
X128523Y99354D01*
X134326Y105157D01*
X142534Y105157D01*
X146668Y101022D01*
X146726Y100981D01*
X146778Y100931D01*
X146825Y100909D01*
X146867Y100879D01*
X146936Y100858D01*
X147001Y100828D01*
X147053Y100822D01*
X147103Y100807D01*
X147174Y100808D01*
X147245Y100801D01*
X147296Y100812D01*
X147348Y100813D01*
X147416Y100838D01*
X147486Y100853D01*
X147531Y100880D01*
X147579Y100897D01*
X147635Y100942D01*
X147697Y100979D01*
X147731Y101019D01*
X147771Y101051D01*
X147810Y101111D01*
X147857Y101166D01*
X147876Y101214D01*
X147904Y101258D01*
X147922Y101327D01*
X147949Y101394D01*
X147957Y101465D01*
X147965Y101497D01*
X147963Y101520D01*
X147967Y101561D01*
X147967Y114339D01*
X147956Y114410D01*
X147954Y114482D01*
X147936Y114531D01*
X147928Y114582D01*
X147894Y114645D01*
X147869Y114713D01*
X147837Y114753D01*
X147812Y114799D01*
X147760Y114849D01*
X147716Y114905D01*
X147672Y114933D01*
X147634Y114969D01*
X147569Y114999D01*
X147509Y115038D01*
X147458Y115050D01*
X147411Y115072D01*
X147340Y115080D01*
X147270Y115098D01*
X147218Y115094D01*
X147167Y115099D01*
X147096Y115084D01*
X147025Y115079D01*
X146977Y115058D01*
X146926Y115047D01*
X146865Y115010D01*
X146799Y114982D01*
X146743Y114938D01*
X146715Y114921D01*
X146700Y114903D01*
X146668Y114878D01*
X142534Y110743D01*
X134326Y110743D01*
X128523Y116546D01*
X128523Y124754D01*
X134326Y130557D01*
X142534Y130557D01*
X146668Y126422D01*
X146726Y126381D01*
X146778Y126331D01*
X146825Y126309D01*
X146867Y126279D01*
X146936Y126258D01*
X147001Y126228D01*
X147053Y126222D01*
X147103Y126207D01*
X147174Y126208D01*
X147245Y126201D01*
X147296Y126212D01*
X147348Y126213D01*
X147416Y126238D01*
X147486Y126253D01*
X147531Y126280D01*
X147579Y126297D01*
X147635Y126342D01*
X147697Y126379D01*
X147731Y126419D01*
X147771Y126451D01*
X147810Y126511D01*
X147857Y126566D01*
X147876Y126614D01*
X147904Y126658D01*
X147922Y126727D01*
X147949Y126794D01*
X147957Y126865D01*
X147965Y126897D01*
X147963Y126920D01*
X147967Y126961D01*
X147967Y139739D01*
X147956Y139810D01*
X147954Y139882D01*
X147936Y139931D01*
X147928Y139982D01*
X147894Y140045D01*
X147869Y140113D01*
X147837Y140153D01*
X147812Y140199D01*
X147760Y140249D01*
X147716Y140305D01*
X147672Y140333D01*
X147634Y140369D01*
X147569Y140399D01*
X147509Y140438D01*
X147458Y140450D01*
X147411Y140472D01*
X147340Y140480D01*
X147270Y140498D01*
X147218Y140494D01*
X147167Y140499D01*
X147096Y140484D01*
X147025Y140479D01*
X146977Y140458D01*
X146926Y140447D01*
X146865Y140410D01*
X146799Y140382D01*
X146743Y140338D01*
X146715Y140321D01*
X146700Y140303D01*
X146668Y140278D01*
X142534Y136143D01*
X134326Y136143D01*
X128523Y141946D01*
X128523Y150154D01*
X134326Y155957D01*
X142534Y155957D01*
X146668Y151822D01*
X146726Y151781D01*
X146778Y151731D01*
X146825Y151709D01*
X146867Y151679D01*
X146936Y151658D01*
X147001Y151628D01*
X147053Y151622D01*
X147103Y151607D01*
X147174Y151608D01*
X147245Y151601D01*
X147296Y151612D01*
X147348Y151613D01*
X147416Y151638D01*
X147486Y151653D01*
X147531Y151680D01*
X147579Y151697D01*
X147635Y151742D01*
X147697Y151779D01*
X147731Y151819D01*
X147771Y151851D01*
X147810Y151911D01*
X147857Y151966D01*
X147876Y152014D01*
X147904Y152058D01*
X147922Y152127D01*
X147949Y152194D01*
X147957Y152265D01*
X147965Y152297D01*
X147963Y152320D01*
X147967Y152361D01*
X147967Y165139D01*
X147956Y165210D01*
X147954Y165282D01*
X147936Y165331D01*
X147928Y165382D01*
X147894Y165445D01*
X147869Y165513D01*
X147837Y165553D01*
X147812Y165599D01*
X147760Y165649D01*
X147716Y165705D01*
X147672Y165733D01*
X147634Y165769D01*
X147569Y165799D01*
X147509Y165838D01*
X147458Y165850D01*
X147411Y165872D01*
X147340Y165880D01*
X147270Y165898D01*
X147218Y165894D01*
X147167Y165899D01*
X147096Y165884D01*
X147025Y165879D01*
X146977Y165858D01*
X146926Y165847D01*
X146865Y165810D01*
X146799Y165782D01*
X146743Y165738D01*
X146715Y165721D01*
X146700Y165703D01*
X146668Y165678D01*
X142534Y161543D01*
X134326Y161543D01*
X128523Y167346D01*
X128523Y175554D01*
X134326Y181357D01*
X142534Y181357D01*
X146668Y177222D01*
X146726Y177181D01*
X146778Y177131D01*
X146825Y177109D01*
X146867Y177079D01*
X146936Y177058D01*
X147001Y177028D01*
X147053Y177022D01*
X147103Y177007D01*
X147174Y177008D01*
X147245Y177001D01*
X147296Y177012D01*
X147348Y177013D01*
X147416Y177038D01*
X147486Y177053D01*
X147531Y177080D01*
X147579Y177097D01*
X147635Y177142D01*
X147697Y177179D01*
X147731Y177219D01*
X147771Y177251D01*
X147810Y177311D01*
X147857Y177366D01*
X147876Y177414D01*
X147904Y177458D01*
X147922Y177527D01*
X147949Y177594D01*
X147957Y177665D01*
X147965Y177697D01*
X147963Y177720D01*
X147967Y177761D01*
X147967Y190539D01*
X147956Y190610D01*
X147954Y190682D01*
X147936Y190731D01*
X147928Y190782D01*
X147894Y190845D01*
X147869Y190913D01*
X147837Y190953D01*
X147812Y190999D01*
X147760Y191049D01*
X147716Y191105D01*
X147672Y191133D01*
X147634Y191169D01*
X147569Y191199D01*
X147509Y191238D01*
X147458Y191250D01*
X147411Y191272D01*
X147340Y191280D01*
X147270Y191298D01*
X147218Y191294D01*
X147167Y191299D01*
X147096Y191284D01*
X147025Y191279D01*
X146977Y191258D01*
X146926Y191247D01*
X146865Y191210D01*
X146799Y191182D01*
X146743Y191138D01*
X146715Y191121D01*
X146700Y191103D01*
X146668Y191078D01*
X142534Y186943D01*
X134326Y186943D01*
X128523Y192746D01*
X128523Y200954D01*
X134326Y206757D01*
X142534Y206757D01*
X146668Y202622D01*
X146726Y202581D01*
X146778Y202531D01*
X146825Y202509D01*
X146867Y202479D01*
X146936Y202458D01*
X147001Y202428D01*
X147053Y202422D01*
X147103Y202407D01*
X147174Y202408D01*
X147245Y202401D01*
X147296Y202412D01*
X147348Y202413D01*
X147416Y202438D01*
X147486Y202453D01*
X147531Y202480D01*
X147579Y202497D01*
X147635Y202542D01*
X147697Y202579D01*
X147731Y202619D01*
X147771Y202651D01*
X147810Y202711D01*
X147857Y202766D01*
X147876Y202814D01*
X147904Y202858D01*
X147922Y202927D01*
X147949Y202994D01*
X147957Y203065D01*
X147965Y203097D01*
X147963Y203120D01*
X147967Y203161D01*
X147967Y215939D01*
X147956Y216010D01*
X147954Y216082D01*
X147936Y216131D01*
X147928Y216182D01*
X147894Y216245D01*
X147869Y216313D01*
X147837Y216353D01*
X147812Y216399D01*
X147760Y216449D01*
X147716Y216505D01*
X147672Y216533D01*
X147634Y216569D01*
X147569Y216599D01*
X147509Y216638D01*
X147458Y216650D01*
X147411Y216672D01*
X147340Y216680D01*
X147270Y216698D01*
X147218Y216694D01*
X147167Y216699D01*
X147096Y216684D01*
X147025Y216679D01*
X146977Y216658D01*
X146926Y216647D01*
X146865Y216610D01*
X146799Y216582D01*
X146743Y216538D01*
X146715Y216521D01*
X146700Y216503D01*
X146668Y216478D01*
X142534Y212343D01*
X134326Y212343D01*
X128523Y218146D01*
X128523Y226354D01*
X134326Y232157D01*
X142534Y232157D01*
X146668Y228022D01*
X146726Y227981D01*
X146778Y227931D01*
X146825Y227909D01*
X146867Y227879D01*
X146936Y227858D01*
X147001Y227828D01*
X147053Y227822D01*
X147103Y227807D01*
X147174Y227808D01*
X147245Y227801D01*
X147296Y227812D01*
X147348Y227813D01*
X147416Y227838D01*
X147486Y227853D01*
X147531Y227880D01*
X147579Y227897D01*
X147635Y227942D01*
X147697Y227979D01*
X147731Y228019D01*
X147771Y228051D01*
X147810Y228111D01*
X147857Y228166D01*
X147876Y228214D01*
X147904Y228258D01*
X147922Y228327D01*
X147949Y228394D01*
X147957Y228465D01*
X147965Y228497D01*
X147963Y228520D01*
X147967Y228561D01*
X147967Y241339D01*
X147956Y241410D01*
X147954Y241482D01*
X147936Y241531D01*
X147928Y241582D01*
X147894Y241645D01*
X147869Y241713D01*
X147837Y241753D01*
X147812Y241799D01*
X147760Y241849D01*
X147716Y241905D01*
X147672Y241933D01*
X147634Y241969D01*
X147569Y241999D01*
X147509Y242038D01*
X147458Y242050D01*
X147411Y242072D01*
X147340Y242080D01*
X147270Y242098D01*
X147218Y242094D01*
X147167Y242099D01*
X147096Y242084D01*
X147025Y242079D01*
X146977Y242058D01*
X146926Y242047D01*
X146865Y242010D01*
X146799Y241982D01*
X146743Y241938D01*
X146715Y241921D01*
X146700Y241903D01*
X146668Y241878D01*
X142534Y237743D01*
X134326Y237743D01*
X128523Y243546D01*
X128523Y251754D01*
X134326Y257557D01*
X142534Y257557D01*
X145743Y254347D01*
X145798Y254308D01*
X145847Y254260D01*
X145897Y254236D01*
X145943Y254204D01*
X146008Y254184D01*
X146069Y254154D01*
X146124Y254148D01*
X146178Y254131D01*
X146246Y254133D01*
X146313Y254125D01*
X146368Y254136D01*
X146424Y254138D01*
X146488Y254161D01*
X146554Y254175D01*
X146602Y254203D01*
X146655Y254222D01*
X146708Y254264D01*
X146766Y254299D01*
X146803Y254341D01*
X146847Y254376D01*
X146883Y254433D01*
X146928Y254484D01*
X146950Y254536D01*
X146980Y254583D01*
X146996Y254648D01*
X147022Y254711D01*
X147026Y254767D01*
X147040Y254821D01*
X147035Y254889D01*
X147039Y254956D01*
X147023Y255034D01*
X147021Y255066D01*
X147013Y255086D01*
X147005Y255121D01*
X146055Y258047D01*
X146042Y258070D01*
X146038Y258093D01*
X146033Y258101D01*
X146030Y258113D01*
X145947Y258259D01*
X142782Y262614D01*
X142757Y262639D01*
X142738Y262669D01*
X142614Y262782D01*
X138259Y265947D01*
X138227Y265963D01*
X138199Y265986D01*
X138047Y266055D01*
X132927Y267718D01*
X132921Y267719D01*
X132916Y267722D01*
X132751Y267753D01*
X130060Y267965D01*
X130038Y267963D01*
X130000Y267967D01*
X20000Y267967D01*
X19978Y267964D01*
X19940Y267965D01*
X17249Y267753D01*
X17243Y267752D01*
X17237Y267752D01*
X17073Y267718D01*
X11953Y266055D01*
X11922Y266038D01*
X11887Y266030D01*
X11741Y265947D01*
X7386Y262782D01*
X7361Y262757D01*
X7331Y262738D01*
X7218Y262614D01*
X4053Y258259D01*
X4048Y258249D01*
X4041Y258241D01*
X4031Y258219D01*
X4014Y258199D01*
X3945Y258047D01*
X3062Y255328D01*
X3052Y255261D01*
X3032Y255196D01*
X3033Y255140D01*
X3025Y255085D01*
X3036Y255018D01*
X3038Y254950D01*
X3057Y254898D01*
X3067Y254843D01*
X3099Y254783D01*
X3123Y254719D01*
X3158Y254676D01*
X3184Y254626D01*
X3234Y254580D01*
X3276Y254527D01*
X3323Y254497D01*
X3364Y254459D01*
X3426Y254431D01*
X3483Y254394D01*
X3538Y254381D01*
X3589Y254358D01*
X3656Y254351D01*
X3722Y254334D01*
X3778Y254339D01*
X3833Y254333D01*
X3900Y254348D01*
X3967Y254353D01*
X4018Y254375D01*
X4073Y254388D01*
X4131Y254423D01*
X4193Y254450D01*
X4255Y254499D01*
X4283Y254516D01*
X4296Y254532D01*
X4324Y254555D01*
X7326Y257557D01*
X15534Y257557D01*
X21337Y251754D01*
X21337Y243546D01*
X15534Y237743D01*
X7326Y237743D01*
X3332Y241738D01*
X3274Y241779D01*
X3222Y241829D01*
X3175Y241851D01*
X3133Y241881D01*
X3064Y241902D01*
X2999Y241932D01*
X2947Y241938D01*
X2897Y241953D01*
X2826Y241952D01*
X2755Y241959D01*
X2704Y241948D01*
X2652Y241947D01*
X2584Y241922D01*
X2514Y241907D01*
X2469Y241880D01*
X2421Y241863D01*
X2365Y241818D01*
X2303Y241781D01*
X2269Y241741D01*
X2229Y241709D01*
X2190Y241649D01*
X2143Y241594D01*
X2124Y241546D01*
X2096Y241502D01*
X2078Y241433D01*
X2051Y241366D01*
X2043Y241295D01*
X2035Y241263D01*
X2037Y241240D01*
X2033Y241199D01*
X2033Y228701D01*
X2044Y228630D01*
X2046Y228558D01*
X2064Y228509D01*
X2072Y228458D01*
X2106Y228395D01*
X2131Y228327D01*
X2163Y228287D01*
X2188Y228241D01*
X2240Y228191D01*
X2284Y228135D01*
X2328Y228107D01*
X2366Y228071D01*
X2431Y228041D01*
X2491Y228002D01*
X2542Y227990D01*
X2589Y227968D01*
X2660Y227960D01*
X2730Y227942D01*
X2782Y227946D01*
X2833Y227941D01*
X2904Y227956D01*
X2975Y227961D01*
X3023Y227982D01*
X3074Y227993D01*
X3135Y228030D01*
X3201Y228058D01*
X3257Y228102D01*
X3285Y228119D01*
X3300Y228137D01*
X3332Y228162D01*
X7326Y232157D01*
X15534Y232157D01*
X21337Y226354D01*
X21337Y218146D01*
X15534Y212343D01*
X7326Y212343D01*
X3332Y216338D01*
X3274Y216379D01*
X3222Y216429D01*
X3175Y216451D01*
X3133Y216481D01*
X3064Y216502D01*
X2999Y216532D01*
X2947Y216538D01*
X2897Y216553D01*
X2826Y216552D01*
X2755Y216559D01*
X2704Y216548D01*
X2652Y216547D01*
X2584Y216522D01*
X2514Y216507D01*
X2469Y216480D01*
X2421Y216463D01*
X2365Y216418D01*
X2303Y216381D01*
X2269Y216341D01*
X2229Y216309D01*
X2190Y216249D01*
X2143Y216194D01*
X2124Y216146D01*
X2096Y216102D01*
X2078Y216033D01*
X2051Y215966D01*
X2043Y215895D01*
X2035Y215863D01*
X2037Y215840D01*
X2033Y215799D01*
X2033Y203301D01*
X2044Y203230D01*
X2046Y203158D01*
X2064Y203109D01*
X2072Y203058D01*
X2106Y202995D01*
X2131Y202927D01*
X2163Y202887D01*
X2188Y202841D01*
X2240Y202791D01*
X2284Y202735D01*
X2328Y202707D01*
X2366Y202671D01*
X2431Y202641D01*
X2491Y202602D01*
X2542Y202590D01*
X2589Y202568D01*
X2660Y202560D01*
X2730Y202542D01*
X2782Y202546D01*
X2833Y202541D01*
X2904Y202556D01*
X2975Y202561D01*
X3023Y202582D01*
X3074Y202593D01*
X3135Y202630D01*
X3201Y202658D01*
X3257Y202702D01*
X3285Y202719D01*
X3300Y202737D01*
X3332Y202762D01*
X7326Y206757D01*
X15534Y206757D01*
X21337Y200954D01*
X21337Y192746D01*
X15534Y186943D01*
X7326Y186943D01*
X3332Y190938D01*
X3274Y190979D01*
X3222Y191029D01*
X3175Y191051D01*
X3133Y191081D01*
X3064Y191102D01*
X2999Y191132D01*
X2947Y191138D01*
X2897Y191153D01*
X2826Y191152D01*
X2755Y191159D01*
X2704Y191148D01*
X2652Y191147D01*
X2584Y191122D01*
X2514Y191107D01*
X2469Y191080D01*
X2421Y191063D01*
X2365Y191018D01*
X2303Y190981D01*
X2269Y190941D01*
X2229Y190909D01*
X2190Y190849D01*
X2143Y190794D01*
X2124Y190746D01*
X2096Y190702D01*
X2078Y190633D01*
X2051Y190566D01*
X2043Y190495D01*
X2035Y190463D01*
X2037Y190440D01*
X2033Y190399D01*
X2033Y177901D01*
X2044Y177830D01*
X2046Y177758D01*
X2064Y177709D01*
X2072Y177658D01*
X2106Y177595D01*
X2131Y177527D01*
X2163Y177487D01*
X2188Y177441D01*
X2240Y177391D01*
X2284Y177335D01*
X2328Y177307D01*
X2366Y177271D01*
X2431Y177241D01*
X2491Y177202D01*
X2542Y177190D01*
X2589Y177168D01*
X2660Y177160D01*
X2730Y177142D01*
X2782Y177146D01*
X2833Y177141D01*
X2904Y177156D01*
X2975Y177161D01*
X3023Y177182D01*
X3074Y177193D01*
X3135Y177230D01*
X3201Y177258D01*
X3257Y177302D01*
X3285Y177319D01*
X3300Y177337D01*
X3332Y177362D01*
X7326Y181357D01*
X15534Y181357D01*
X21337Y175554D01*
X21337Y167346D01*
X15534Y161543D01*
X7326Y161543D01*
X3332Y165538D01*
X3274Y165579D01*
X3222Y165629D01*
X3175Y165651D01*
X3133Y165681D01*
X3064Y165702D01*
X2999Y165732D01*
X2947Y165738D01*
X2897Y165753D01*
X2826Y165752D01*
X2755Y165759D01*
X2704Y165748D01*
X2652Y165747D01*
X2584Y165722D01*
X2514Y165707D01*
X2469Y165680D01*
X2421Y165663D01*
X2365Y165618D01*
X2303Y165581D01*
X2269Y165541D01*
X2229Y165509D01*
X2190Y165449D01*
X2143Y165394D01*
X2124Y165346D01*
X2096Y165302D01*
X2078Y165233D01*
X2051Y165166D01*
X2043Y165095D01*
X2035Y165063D01*
X2037Y165040D01*
X2033Y164999D01*
X2033Y153938D01*
X2044Y153867D01*
X2046Y153795D01*
X2064Y153746D01*
X2072Y153695D01*
X2106Y153632D01*
X2131Y153564D01*
X2163Y153524D01*
X2188Y153477D01*
X2240Y153428D01*
X2284Y153372D01*
X2328Y153344D01*
X2366Y153308D01*
X2431Y153278D01*
X2491Y153239D01*
X2542Y153226D01*
X2589Y153204D01*
X2660Y153197D01*
X2730Y153179D01*
X2782Y153183D01*
X2833Y153177D01*
X2904Y153193D01*
X2975Y153198D01*
X3023Y153219D01*
X3074Y153230D01*
X3135Y153266D01*
X3201Y153295D01*
X3257Y153339D01*
X3285Y153356D01*
X3300Y153374D01*
X3332Y153399D01*
X6906Y156973D01*
X9907Y156973D01*
X9907Y146812D01*
X9910Y146792D01*
X9908Y146773D01*
X9930Y146671D01*
X9947Y146569D01*
X9956Y146552D01*
X9960Y146532D01*
X10013Y146443D01*
X10062Y146352D01*
X10076Y146338D01*
X10086Y146321D01*
X10165Y146254D01*
X10240Y146183D01*
X10258Y146174D01*
X10273Y146161D01*
X10369Y146123D01*
X10463Y146079D01*
X10483Y146077D01*
X10501Y146069D01*
X10668Y146051D01*
X11431Y146051D01*
X11431Y146049D01*
X10668Y146049D01*
X10648Y146046D01*
X10629Y146048D01*
X10527Y146026D01*
X10425Y146009D01*
X10408Y146000D01*
X10388Y145996D01*
X10299Y145943D01*
X10208Y145894D01*
X10194Y145880D01*
X10177Y145870D01*
X10110Y145791D01*
X10039Y145716D01*
X10030Y145698D01*
X10017Y145683D01*
X9978Y145587D01*
X9935Y145493D01*
X9933Y145473D01*
X9925Y145455D01*
X9907Y145288D01*
X9907Y135127D01*
X6906Y135127D01*
X3332Y138701D01*
X3274Y138743D01*
X3222Y138792D01*
X3175Y138814D01*
X3133Y138844D01*
X3064Y138865D01*
X2999Y138896D01*
X2947Y138901D01*
X2897Y138917D01*
X2826Y138915D01*
X2755Y138923D01*
X2704Y138912D01*
X2652Y138910D01*
X2584Y138886D01*
X2514Y138870D01*
X2469Y138844D01*
X2421Y138826D01*
X2365Y138781D01*
X2303Y138744D01*
X2269Y138705D01*
X2229Y138672D01*
X2190Y138612D01*
X2143Y138557D01*
X2124Y138509D01*
X2096Y138465D01*
X2078Y138396D01*
X2051Y138329D01*
X2043Y138258D01*
X2035Y138227D01*
X2037Y138203D01*
X2033Y138162D01*
X2033Y127101D01*
X2044Y127030D01*
X2046Y126958D01*
X2064Y126909D01*
X2072Y126858D01*
X2106Y126795D01*
X2131Y126727D01*
X2163Y126687D01*
X2188Y126641D01*
X2240Y126591D01*
X2284Y126535D01*
X2328Y126507D01*
X2366Y126471D01*
X2431Y126441D01*
X2491Y126402D01*
X2542Y126390D01*
X2589Y126368D01*
X2660Y126360D01*
X2730Y126342D01*
X2782Y126346D01*
X2833Y126341D01*
X2904Y126356D01*
X2975Y126361D01*
X3023Y126382D01*
X3074Y126393D01*
X3135Y126430D01*
X3201Y126458D01*
X3257Y126502D01*
X3285Y126519D01*
X3300Y126537D01*
X3332Y126562D01*
X7326Y130557D01*
X15534Y130557D01*
X21337Y124754D01*
X21337Y116547D01*
X21086Y116296D01*
X21065Y116267D01*
X21038Y116243D01*
X20994Y116168D01*
X20943Y116096D01*
X20932Y116062D01*
X20914Y116031D01*
X20896Y115945D01*
X20870Y115861D01*
X20871Y115825D01*
X20864Y115790D01*
X20874Y115703D01*
X20877Y115615D01*
X20889Y115582D01*
X20893Y115546D01*
X20931Y115467D01*
X20961Y115384D01*
X20984Y115356D01*
X20999Y115324D01*
X21109Y115198D01*
X24902Y111708D01*
X24965Y111666D01*
X25023Y111617D01*
X25068Y111599D01*
X25108Y111573D01*
X25120Y111570D01*
X25878Y110811D01*
X25888Y110804D01*
X25901Y110789D01*
X26671Y110081D01*
X26671Y109034D01*
X26673Y109022D01*
X26671Y109003D01*
X26717Y107913D01*
X26689Y107845D01*
X26682Y107780D01*
X26674Y107750D01*
X26676Y107725D01*
X26671Y107678D01*
X26671Y86637D01*
X26671Y86633D01*
X26671Y86627D01*
X26686Y85576D01*
X25944Y84834D01*
X25941Y84831D01*
X25936Y84827D01*
X19504Y78211D01*
X19455Y78141D01*
X19399Y78075D01*
X19385Y78040D01*
X19363Y78009D01*
X19339Y77927D01*
X19307Y77847D01*
X19302Y77799D01*
X19294Y77773D01*
X19296Y77743D01*
X19289Y77681D01*
X19289Y75539D01*
X16917Y73167D01*
X13563Y73167D01*
X11191Y75539D01*
X11191Y78893D01*
X13563Y81265D01*
X15064Y81265D01*
X15159Y81280D01*
X15256Y81289D01*
X15280Y81300D01*
X15307Y81304D01*
X15392Y81350D01*
X15480Y81389D01*
X15507Y81410D01*
X15524Y81420D01*
X15547Y81443D01*
X15610Y81495D01*
X21374Y87424D01*
X21423Y87494D01*
X21479Y87560D01*
X21493Y87595D01*
X21515Y87626D01*
X21539Y87708D01*
X21571Y87788D01*
X21576Y87836D01*
X21584Y87862D01*
X21582Y87892D01*
X21589Y87955D01*
X21589Y89561D01*
X21578Y89632D01*
X21576Y89704D01*
X21558Y89753D01*
X21550Y89804D01*
X21516Y89867D01*
X21491Y89935D01*
X21459Y89975D01*
X21434Y90021D01*
X21382Y90071D01*
X21338Y90127D01*
X21294Y90155D01*
X21256Y90191D01*
X21191Y90221D01*
X21131Y90260D01*
X21080Y90272D01*
X21033Y90294D01*
X20962Y90302D01*
X20892Y90320D01*
X20840Y90316D01*
X20789Y90321D01*
X20718Y90306D01*
X20647Y90301D01*
X20599Y90280D01*
X20548Y90269D01*
X20487Y90232D01*
X20421Y90204D01*
X20365Y90160D01*
X20337Y90143D01*
X20322Y90125D01*
X20290Y90100D01*
X15534Y85343D01*
X7326Y85343D01*
X3332Y89338D01*
X3274Y89379D01*
X3222Y89429D01*
X3175Y89451D01*
X3133Y89481D01*
X3064Y89502D01*
X2999Y89532D01*
X2947Y89538D01*
X2897Y89553D01*
X2826Y89552D01*
X2755Y89559D01*
X2704Y89548D01*
X2652Y89547D01*
X2584Y89522D01*
X2514Y89507D01*
X2469Y89480D01*
X2421Y89463D01*
X2365Y89418D01*
X2303Y89381D01*
X2269Y89341D01*
X2229Y89309D01*
X2190Y89249D01*
X2143Y89194D01*
X2124Y89146D01*
X2096Y89102D01*
X2078Y89033D01*
X2051Y88966D01*
X2043Y88895D01*
X2035Y88863D01*
X2037Y88840D01*
X2033Y88799D01*
X2033Y20000D01*
X2036Y19978D01*
X2035Y19940D01*
X2247Y17249D01*
X2248Y17243D01*
X2248Y17237D01*
X2282Y17073D01*
X3945Y11953D01*
X3962Y11922D01*
X3970Y11887D01*
X4053Y11741D01*
X7218Y7386D01*
X7243Y7361D01*
X7262Y7331D01*
X7386Y7218D01*
X11741Y4053D01*
X11773Y4037D01*
X11801Y4014D01*
X11953Y3945D01*
X17073Y2282D01*
X17079Y2281D01*
X17084Y2278D01*
X17249Y2247D01*
X19940Y2035D01*
X19962Y2037D01*
X20000Y2033D01*
X28468Y2033D01*
X28564Y2048D01*
G37*
%LPC*%
G36*
X90779Y68087D02*
X90779Y68087D01*
X88407Y70459D01*
X88407Y73989D01*
X88428Y73990D01*
X88449Y73999D01*
X88472Y74002D01*
X88562Y74047D01*
X88655Y74086D01*
X88677Y74104D01*
X88692Y74112D01*
X88738Y74153D01*
X88786Y74191D01*
X90779Y76185D01*
X92201Y76185D01*
X92313Y76203D01*
X92442Y76224D01*
X92443Y76224D01*
X92543Y76277D01*
X92660Y76339D01*
X92661Y76340D01*
X92662Y76341D01*
X92782Y76454D01*
X109293Y95968D01*
X109308Y95993D01*
X109315Y96000D01*
X109323Y96017D01*
X109324Y96019D01*
X109363Y96065D01*
X109387Y96124D01*
X109420Y96179D01*
X109432Y96237D01*
X109455Y96293D01*
X109465Y96387D01*
X109472Y96419D01*
X109471Y96435D01*
X109473Y96460D01*
X109473Y99878D01*
X109459Y99968D01*
X109451Y100059D01*
X109439Y100088D01*
X109434Y100120D01*
X109391Y100201D01*
X109355Y100285D01*
X109329Y100317D01*
X109318Y100338D01*
X109295Y100360D01*
X109250Y100416D01*
X107965Y101701D01*
X107965Y105055D01*
X110337Y107427D01*
X113691Y107427D01*
X115286Y105832D01*
X115344Y105790D01*
X115396Y105741D01*
X115443Y105719D01*
X115485Y105688D01*
X115554Y105667D01*
X115619Y105637D01*
X115671Y105631D01*
X115721Y105616D01*
X115792Y105618D01*
X115863Y105610D01*
X115914Y105621D01*
X115966Y105622D01*
X116034Y105647D01*
X116104Y105662D01*
X116149Y105689D01*
X116197Y105707D01*
X116253Y105752D01*
X116315Y105789D01*
X116349Y105828D01*
X116389Y105861D01*
X116428Y105921D01*
X116475Y105975D01*
X116494Y106024D01*
X116522Y106068D01*
X116540Y106137D01*
X116567Y106204D01*
X116575Y106275D01*
X116583Y106306D01*
X116581Y106329D01*
X116585Y106370D01*
X116585Y221504D01*
X116582Y221524D01*
X116584Y221543D01*
X116562Y221645D01*
X116546Y221747D01*
X116536Y221764D01*
X116532Y221784D01*
X116479Y221873D01*
X116430Y221964D01*
X116416Y221978D01*
X116406Y221995D01*
X116327Y222062D01*
X116252Y222134D01*
X116234Y222142D01*
X116219Y222155D01*
X116123Y222194D01*
X116029Y222237D01*
X116009Y222239D01*
X115991Y222247D01*
X115824Y222265D01*
X115417Y222265D01*
X113045Y224637D01*
X113045Y227991D01*
X115417Y230363D01*
X118771Y230363D01*
X121143Y227991D01*
X121143Y225158D01*
X121157Y225068D01*
X121165Y224977D01*
X121177Y224947D01*
X121182Y224915D01*
X121225Y224834D01*
X121261Y224750D01*
X121287Y224718D01*
X121298Y224698D01*
X121321Y224675D01*
X121366Y224619D01*
X121667Y224318D01*
X121667Y224266D01*
X121669Y224250D01*
X121667Y224233D01*
X121689Y224128D01*
X121706Y224023D01*
X121714Y224009D01*
X121717Y223992D01*
X121795Y223843D01*
X121824Y223800D01*
X121682Y223088D01*
X121681Y223065D01*
X121667Y222939D01*
X121667Y84526D01*
X121681Y84436D01*
X121689Y84345D01*
X121701Y84316D01*
X121706Y84284D01*
X121749Y84203D01*
X121785Y84119D01*
X121811Y84087D01*
X121822Y84066D01*
X121845Y84044D01*
X121890Y83988D01*
X123175Y82703D01*
X123175Y79349D01*
X120803Y76977D01*
X117449Y76977D01*
X115077Y79349D01*
X115077Y82703D01*
X116362Y83988D01*
X116415Y84062D01*
X116475Y84131D01*
X116487Y84162D01*
X116506Y84188D01*
X116533Y84275D01*
X116567Y84360D01*
X116571Y84401D01*
X116578Y84423D01*
X116577Y84455D01*
X116585Y84526D01*
X116585Y100386D01*
X116574Y100456D01*
X116572Y100528D01*
X116554Y100577D01*
X116546Y100628D01*
X116512Y100692D01*
X116487Y100759D01*
X116455Y100800D01*
X116430Y100846D01*
X116378Y100895D01*
X116334Y100951D01*
X116290Y100979D01*
X116252Y101015D01*
X116187Y101045D01*
X116127Y101084D01*
X116076Y101097D01*
X116029Y101119D01*
X115958Y101127D01*
X115888Y101144D01*
X115836Y101140D01*
X115785Y101146D01*
X115714Y101131D01*
X115643Y101125D01*
X115595Y101105D01*
X115544Y101094D01*
X115483Y101057D01*
X115417Y101029D01*
X115361Y100984D01*
X115333Y100967D01*
X115318Y100950D01*
X115286Y100924D01*
X114778Y100416D01*
X114724Y100342D01*
X114665Y100273D01*
X114653Y100242D01*
X114634Y100216D01*
X114607Y100129D01*
X114573Y100044D01*
X114569Y100003D01*
X114562Y99981D01*
X114563Y99949D01*
X114555Y99878D01*
X114555Y95387D01*
X114558Y95365D01*
X114557Y95324D01*
X114637Y94369D01*
X114608Y94321D01*
X114596Y94263D01*
X114579Y94222D01*
X113908Y93551D01*
X113894Y93532D01*
X113865Y93504D01*
X96685Y73200D01*
X96654Y73149D01*
X96615Y73104D01*
X96591Y73044D01*
X96558Y72989D01*
X96546Y72931D01*
X96523Y72875D01*
X96513Y72781D01*
X96506Y72749D01*
X96507Y72734D01*
X96505Y72709D01*
X96505Y70459D01*
X94133Y68087D01*
X90779Y68087D01*
G37*
%LPD*%
%LPC*%
G36*
X30581Y148097D02*
X30581Y148097D01*
X28209Y150469D01*
X28209Y153823D01*
X30581Y156195D01*
X31242Y156195D01*
X31262Y156198D01*
X31281Y156196D01*
X31383Y156218D01*
X31485Y156234D01*
X31502Y156244D01*
X31522Y156248D01*
X31611Y156301D01*
X31702Y156350D01*
X31716Y156364D01*
X31733Y156374D01*
X31800Y156453D01*
X31872Y156528D01*
X31880Y156546D01*
X31893Y156561D01*
X31932Y156657D01*
X31975Y156751D01*
X31977Y156771D01*
X31985Y156789D01*
X32003Y156956D01*
X32003Y231958D01*
X32002Y231966D01*
X32002Y231970D01*
X31998Y231987D01*
X31989Y232048D01*
X31981Y232139D01*
X31969Y232168D01*
X31964Y232200D01*
X31921Y232281D01*
X31885Y232365D01*
X31859Y232397D01*
X31848Y232418D01*
X31825Y232440D01*
X31780Y232496D01*
X30495Y233781D01*
X30495Y237135D01*
X32867Y239507D01*
X36221Y239507D01*
X38593Y237135D01*
X38593Y233781D01*
X37308Y232496D01*
X37255Y232422D01*
X37195Y232353D01*
X37183Y232322D01*
X37164Y232296D01*
X37137Y232209D01*
X37103Y232124D01*
X37099Y232083D01*
X37092Y232061D01*
X37093Y232029D01*
X37085Y231958D01*
X37085Y153380D01*
X36530Y152825D01*
X36477Y152751D01*
X36417Y152681D01*
X36405Y152651D01*
X36386Y152625D01*
X36359Y152538D01*
X36325Y152453D01*
X36321Y152412D01*
X36314Y152390D01*
X36315Y152358D01*
X36307Y152286D01*
X36307Y150469D01*
X33935Y148097D01*
X30581Y148097D01*
G37*
%LPD*%
%LPC*%
G36*
X60807Y68087D02*
X60807Y68087D01*
X58435Y70459D01*
X58435Y73813D01*
X60807Y76185D01*
X64161Y76185D01*
X65446Y74900D01*
X65520Y74847D01*
X65589Y74787D01*
X65620Y74775D01*
X65646Y74756D01*
X65733Y74729D01*
X65818Y74695D01*
X65859Y74691D01*
X65881Y74684D01*
X65913Y74685D01*
X65984Y74677D01*
X80049Y74677D01*
X80161Y74695D01*
X80274Y74711D01*
X80282Y74715D01*
X80292Y74716D01*
X80392Y74769D01*
X80494Y74820D01*
X80502Y74828D01*
X80509Y74832D01*
X80525Y74849D01*
X80618Y74933D01*
X90725Y86330D01*
X90764Y86392D01*
X90811Y86448D01*
X90830Y86495D01*
X90857Y86538D01*
X90874Y86609D01*
X90901Y86677D01*
X90907Y86746D01*
X90915Y86777D01*
X90913Y86801D01*
X90917Y86844D01*
X90678Y108084D01*
X90676Y108100D01*
X90677Y108126D01*
X90608Y109151D01*
X90614Y109175D01*
X90730Y109294D01*
X90780Y109365D01*
X90837Y109431D01*
X90851Y109465D01*
X90872Y109495D01*
X90896Y109579D01*
X90929Y109659D01*
X90934Y109706D01*
X90941Y109731D01*
X90940Y109762D01*
X90947Y109826D01*
X90947Y111913D01*
X93319Y114285D01*
X96673Y114285D01*
X99045Y111913D01*
X99045Y108559D01*
X96673Y106187D01*
X96551Y106187D01*
X96528Y106183D01*
X96503Y106186D01*
X96406Y106164D01*
X96309Y106148D01*
X96287Y106136D01*
X96264Y106131D01*
X96179Y106079D01*
X96091Y106032D01*
X96075Y106015D01*
X96054Y106002D01*
X95990Y105926D01*
X95922Y105854D01*
X95912Y105832D01*
X95896Y105814D01*
X95860Y105721D01*
X95818Y105631D01*
X95816Y105607D01*
X95807Y105584D01*
X95790Y105417D01*
X96012Y85707D01*
X96014Y85693D01*
X96013Y85670D01*
X96076Y84627D01*
X95345Y83879D01*
X95337Y83868D01*
X95320Y83852D01*
X87678Y75235D01*
X87624Y75150D01*
X87565Y75068D01*
X87559Y75046D01*
X87546Y75027D01*
X87523Y74929D01*
X87493Y74833D01*
X87494Y74810D01*
X87488Y74788D01*
X87421Y74779D01*
X87395Y74766D01*
X87366Y74760D01*
X87285Y74711D01*
X87201Y74669D01*
X87173Y74644D01*
X87155Y74633D01*
X87134Y74608D01*
X87076Y74557D01*
X84266Y71388D01*
X84230Y71330D01*
X84185Y71278D01*
X84164Y71226D01*
X84135Y71180D01*
X84124Y71132D01*
X83401Y70409D01*
X83390Y70395D01*
X83369Y70376D01*
X82700Y69621D01*
X82697Y69621D01*
X82655Y69595D01*
X81633Y69595D01*
X81616Y69592D01*
X81587Y69594D01*
X80580Y69533D01*
X80578Y69535D01*
X80511Y69551D01*
X80448Y69577D01*
X80371Y69585D01*
X80339Y69593D01*
X80317Y69591D01*
X80281Y69595D01*
X65984Y69595D01*
X65894Y69581D01*
X65803Y69573D01*
X65774Y69561D01*
X65742Y69556D01*
X65661Y69513D01*
X65577Y69477D01*
X65545Y69451D01*
X65524Y69440D01*
X65502Y69417D01*
X65446Y69372D01*
X64161Y68087D01*
X60807Y68087D01*
G37*
%LPD*%
%LPC*%
G36*
X30502Y42975D02*
X30502Y42975D01*
X28104Y43969D01*
X26269Y45804D01*
X25275Y48202D01*
X25275Y61798D01*
X26269Y64196D01*
X28104Y66031D01*
X30502Y67025D01*
X33098Y67025D01*
X35496Y66031D01*
X37331Y64196D01*
X38325Y61798D01*
X38325Y48202D01*
X37331Y45804D01*
X35496Y43969D01*
X33098Y42975D01*
X30502Y42975D01*
G37*
%LPD*%
%LPC*%
G36*
X116902Y42975D02*
X116902Y42975D01*
X114504Y43969D01*
X112669Y45804D01*
X111675Y48202D01*
X111675Y61798D01*
X112669Y64196D01*
X114504Y66031D01*
X116902Y67025D01*
X119498Y67025D01*
X121896Y66031D01*
X123731Y64196D01*
X124725Y61798D01*
X124725Y48202D01*
X123731Y45804D01*
X121896Y43969D01*
X119498Y42975D01*
X116902Y42975D01*
G37*
%LPD*%
%LPC*%
G36*
X58521Y183657D02*
X58521Y183657D01*
X56149Y186029D01*
X56149Y189383D01*
X57180Y190414D01*
X57233Y190488D01*
X57293Y190557D01*
X57305Y190588D01*
X57324Y190614D01*
X57351Y190701D01*
X57385Y190786D01*
X57389Y190827D01*
X57396Y190849D01*
X57395Y190881D01*
X57403Y190952D01*
X57403Y202400D01*
X57402Y202407D01*
X57403Y202417D01*
X57379Y203466D01*
X58120Y204207D01*
X58124Y204213D01*
X58132Y204220D01*
X61019Y207244D01*
X61065Y207312D01*
X61119Y207374D01*
X61134Y207413D01*
X61158Y207447D01*
X61180Y207526D01*
X61211Y207602D01*
X61217Y207656D01*
X61224Y207683D01*
X61223Y207712D01*
X61229Y207769D01*
X61229Y209703D01*
X63601Y212075D01*
X66955Y212075D01*
X69327Y209703D01*
X69327Y206349D01*
X66955Y203977D01*
X65251Y203977D01*
X65153Y203961D01*
X65053Y203951D01*
X65032Y203941D01*
X65009Y203938D01*
X64920Y203891D01*
X64829Y203849D01*
X64807Y203831D01*
X64791Y203822D01*
X64769Y203799D01*
X64701Y203742D01*
X62695Y201641D01*
X62649Y201573D01*
X62595Y201510D01*
X62580Y201472D01*
X62556Y201438D01*
X62534Y201358D01*
X62503Y201282D01*
X62497Y201228D01*
X62490Y201201D01*
X62491Y201172D01*
X62485Y201115D01*
X62485Y191460D01*
X62499Y191370D01*
X62507Y191279D01*
X62519Y191250D01*
X62524Y191218D01*
X62567Y191137D01*
X62603Y191053D01*
X62629Y191021D01*
X62640Y191000D01*
X62663Y190978D01*
X62708Y190922D01*
X64247Y189383D01*
X64247Y186029D01*
X61875Y183657D01*
X58521Y183657D01*
G37*
%LPD*%
%LPC*%
G36*
X12953Y147573D02*
X12953Y147573D01*
X12953Y156973D01*
X15954Y156973D01*
X22353Y150574D01*
X22353Y147573D01*
X12953Y147573D01*
G37*
%LPD*%
%LPC*%
G36*
X12953Y135127D02*
X12953Y135127D01*
X12953Y144527D01*
X22353Y144527D01*
X22353Y141526D01*
X15954Y135127D01*
X12953Y135127D01*
G37*
%LPD*%
D10*
X20000Y0D02*
X130000Y0D01*
X130483Y6D01*
X130966Y23D01*
X131449Y53D01*
X131930Y93D01*
X132411Y146D01*
X132890Y210D01*
X133367Y285D01*
X133843Y373D01*
X134316Y471D01*
X134786Y581D01*
X135254Y702D01*
X135719Y835D01*
X136180Y979D01*
X136638Y1134D01*
X137092Y1300D01*
X137542Y1477D01*
X137987Y1664D01*
X138428Y1863D01*
X138864Y2071D01*
X139294Y2291D01*
X139720Y2521D01*
X140139Y2761D01*
X140553Y3011D01*
X140960Y3271D01*
X141361Y3540D01*
X141756Y3820D01*
X142143Y4108D01*
X142524Y4407D01*
X142897Y4714D01*
X143262Y5030D01*
X143620Y5355D01*
X143970Y5688D01*
X144312Y6030D01*
X144645Y6380D01*
X144970Y6738D01*
X145286Y7103D01*
X145593Y7476D01*
X145892Y7857D01*
X146180Y8244D01*
X146460Y8639D01*
X146729Y9040D01*
X146989Y9447D01*
X147239Y9861D01*
X147479Y10280D01*
X147709Y10706D01*
X147929Y11136D01*
X148137Y11572D01*
X148336Y12013D01*
X148523Y12458D01*
X148700Y12908D01*
X148866Y13362D01*
X149021Y13820D01*
X149165Y14281D01*
X149298Y14746D01*
X149419Y15214D01*
X149529Y15684D01*
X149627Y16157D01*
X149715Y16633D01*
X149790Y17110D01*
X149854Y17589D01*
X149907Y18070D01*
X149947Y18551D01*
X149977Y19034D01*
X149994Y19517D01*
X150000Y20000D01*
X150000Y250000D01*
X149994Y250483D01*
X149977Y250966D01*
X149947Y251449D01*
X149907Y251930D01*
X149854Y252411D01*
X149790Y252890D01*
X149715Y253367D01*
X149627Y253843D01*
X149529Y254316D01*
X149419Y254786D01*
X149298Y255254D01*
X149165Y255719D01*
X149021Y256180D01*
X148866Y256638D01*
X148700Y257092D01*
X148523Y257542D01*
X148336Y257987D01*
X148137Y258428D01*
X147929Y258864D01*
X147709Y259294D01*
X147479Y259720D01*
X147239Y260139D01*
X146989Y260553D01*
X146729Y260960D01*
X146460Y261361D01*
X146180Y261756D01*
X145892Y262143D01*
X145593Y262524D01*
X145286Y262897D01*
X144970Y263262D01*
X144645Y263620D01*
X144312Y263970D01*
X143970Y264312D01*
X143620Y264645D01*
X143262Y264970D01*
X142897Y265286D01*
X142524Y265593D01*
X142143Y265892D01*
X141756Y266180D01*
X141361Y266460D01*
X140960Y266729D01*
X140553Y266989D01*
X140139Y267239D01*
X139720Y267479D01*
X139294Y267709D01*
X138864Y267929D01*
X138428Y268137D01*
X137987Y268336D01*
X137542Y268523D01*
X137092Y268700D01*
X136638Y268866D01*
X136180Y269021D01*
X135719Y269165D01*
X135254Y269298D01*
X134786Y269419D01*
X134316Y269529D01*
X133843Y269627D01*
X133367Y269715D01*
X132890Y269790D01*
X132411Y269854D01*
X131930Y269907D01*
X131449Y269947D01*
X130966Y269977D01*
X130483Y269994D01*
X130000Y270000D01*
X20000Y270000D01*
X19517Y269994D01*
X19034Y269977D01*
X18551Y269947D01*
X18070Y269907D01*
X17589Y269854D01*
X17110Y269790D01*
X16633Y269715D01*
X16157Y269627D01*
X15684Y269529D01*
X15214Y269419D01*
X14746Y269298D01*
X14281Y269165D01*
X13820Y269021D01*
X13362Y268866D01*
X12908Y268700D01*
X12458Y268523D01*
X12013Y268336D01*
X11572Y268137D01*
X11136Y267929D01*
X10706Y267709D01*
X10280Y267479D01*
X9861Y267239D01*
X9447Y266989D01*
X9040Y266729D01*
X8639Y266460D01*
X8244Y266180D01*
X7857Y265892D01*
X7476Y265593D01*
X7103Y265286D01*
X6738Y264970D01*
X6380Y264645D01*
X6030Y264312D01*
X5688Y263970D01*
X5355Y263620D01*
X5030Y263262D01*
X4714Y262897D01*
X4407Y262524D01*
X4108Y262143D01*
X3820Y261756D01*
X3540Y261361D01*
X3271Y260960D01*
X3011Y260553D01*
X2761Y260139D01*
X2521Y259720D01*
X2291Y259294D01*
X2071Y258864D01*
X1863Y258428D01*
X1664Y257987D01*
X1477Y257542D01*
X1300Y257092D01*
X1134Y256638D01*
X979Y256180D01*
X835Y255719D01*
X702Y255254D01*
X581Y254786D01*
X471Y254316D01*
X373Y253843D01*
X285Y253367D01*
X210Y252890D01*
X146Y252411D01*
X93Y251930D01*
X53Y251449D01*
X23Y250966D01*
X6Y250483D01*
X0Y250000D01*
X0Y20000D01*
X6Y19517D01*
X23Y19034D01*
X53Y18551D01*
X93Y18070D01*
X146Y17589D01*
X210Y17110D01*
X285Y16633D01*
X373Y16157D01*
X471Y15684D01*
X581Y15214D01*
X702Y14746D01*
X835Y14281D01*
X979Y13820D01*
X1134Y13362D01*
X1300Y12908D01*
X1477Y12458D01*
X1664Y12013D01*
X1863Y11572D01*
X2071Y11136D01*
X2291Y10706D01*
X2521Y10280D01*
X2761Y9861D01*
X3011Y9447D01*
X3271Y9040D01*
X3540Y8639D01*
X3820Y8244D01*
X4108Y7857D01*
X4407Y7476D01*
X4714Y7103D01*
X5030Y6738D01*
X5355Y6380D01*
X5688Y6030D01*
X6030Y5688D01*
X6380Y5355D01*
X6738Y5030D01*
X7103Y4714D01*
X7476Y4407D01*
X7857Y4108D01*
X8244Y3820D01*
X8639Y3540D01*
X9040Y3271D01*
X9447Y3011D01*
X9861Y2761D01*
X10280Y2521D01*
X10706Y2291D01*
X11136Y2071D01*
X11572Y1863D01*
X12013Y1664D01*
X12458Y1477D01*
X12908Y1300D01*
X13362Y1134D01*
X13820Y979D01*
X14281Y835D01*
X14746Y702D01*
X15214Y581D01*
X15684Y471D01*
X16157Y373D01*
X16633Y285D01*
X17110Y210D01*
X17589Y146D01*
X18070Y93D01*
X18551Y53D01*
X19034Y23D01*
X19517Y6D01*
X20000Y0D01*
D11*
X138430Y95250D03*
X138430Y120650D03*
X138430Y146050D03*
X138430Y171450D03*
X138430Y196850D03*
X138430Y222250D03*
X138430Y247650D03*
X11430Y95250D03*
X11430Y120650D03*
X11430Y146050D03*
X11430Y171450D03*
X11430Y196850D03*
X11430Y222250D03*
X11430Y247650D03*
D10*
X42850Y50000D02*
X42852Y50113D01*
X42858Y50227D01*
X42868Y50340D01*
X42882Y50452D01*
X42899Y50564D01*
X42921Y50676D01*
X42947Y50786D01*
X42976Y50896D01*
X43009Y51004D01*
X43046Y51112D01*
X43087Y51217D01*
X43131Y51322D01*
X43179Y51425D01*
X43230Y51526D01*
X43285Y51625D01*
X43344Y51722D01*
X43406Y51817D01*
X43471Y51910D01*
X43539Y52001D01*
X43610Y52089D01*
X43685Y52175D01*
X43762Y52258D01*
X43842Y52338D01*
X43925Y52415D01*
X44011Y52490D01*
X44099Y52561D01*
X44190Y52629D01*
X44283Y52694D01*
X44378Y52756D01*
X44475Y52815D01*
X44574Y52870D01*
X44675Y52921D01*
X44778Y52969D01*
X44883Y53013D01*
X44988Y53054D01*
X45096Y53091D01*
X45204Y53124D01*
X45314Y53153D01*
X45424Y53179D01*
X45536Y53201D01*
X45648Y53218D01*
X45760Y53232D01*
X45873Y53242D01*
X45987Y53248D01*
X46100Y53250D01*
X46213Y53248D01*
X46327Y53242D01*
X46440Y53232D01*
X46552Y53218D01*
X46664Y53201D01*
X46776Y53179D01*
X46886Y53153D01*
X46996Y53124D01*
X47104Y53091D01*
X47212Y53054D01*
X47317Y53013D01*
X47422Y52969D01*
X47525Y52921D01*
X47626Y52870D01*
X47725Y52815D01*
X47822Y52756D01*
X47917Y52694D01*
X48010Y52629D01*
X48101Y52561D01*
X48189Y52490D01*
X48275Y52415D01*
X48358Y52338D01*
X48438Y52258D01*
X48515Y52175D01*
X48590Y52089D01*
X48661Y52001D01*
X48729Y51910D01*
X48794Y51817D01*
X48856Y51722D01*
X48915Y51625D01*
X48970Y51526D01*
X49021Y51425D01*
X49069Y51322D01*
X49113Y51217D01*
X49154Y51112D01*
X49191Y51004D01*
X49224Y50896D01*
X49253Y50786D01*
X49279Y50676D01*
X49301Y50564D01*
X49318Y50452D01*
X49332Y50340D01*
X49342Y50227D01*
X49348Y50113D01*
X49350Y50000D01*
X49348Y49887D01*
X49342Y49773D01*
X49332Y49660D01*
X49318Y49548D01*
X49301Y49436D01*
X49279Y49324D01*
X49253Y49214D01*
X49224Y49104D01*
X49191Y48996D01*
X49154Y48888D01*
X49113Y48783D01*
X49069Y48678D01*
X49021Y48575D01*
X48970Y48474D01*
X48915Y48375D01*
X48856Y48278D01*
X48794Y48183D01*
X48729Y48090D01*
X48661Y47999D01*
X48590Y47911D01*
X48515Y47825D01*
X48438Y47742D01*
X48358Y47662D01*
X48275Y47585D01*
X48189Y47510D01*
X48101Y47439D01*
X48010Y47371D01*
X47917Y47306D01*
X47822Y47244D01*
X47725Y47185D01*
X47626Y47130D01*
X47525Y47079D01*
X47422Y47031D01*
X47317Y46987D01*
X47212Y46946D01*
X47104Y46909D01*
X46996Y46876D01*
X46886Y46847D01*
X46776Y46821D01*
X46664Y46799D01*
X46552Y46782D01*
X46440Y46768D01*
X46327Y46758D01*
X46213Y46752D01*
X46100Y46750D01*
X45987Y46752D01*
X45873Y46758D01*
X45760Y46768D01*
X45648Y46782D01*
X45536Y46799D01*
X45424Y46821D01*
X45314Y46847D01*
X45204Y46876D01*
X45096Y46909D01*
X44988Y46946D01*
X44883Y46987D01*
X44778Y47031D01*
X44675Y47079D01*
X44574Y47130D01*
X44475Y47185D01*
X44378Y47244D01*
X44283Y47306D01*
X44190Y47371D01*
X44099Y47439D01*
X44011Y47510D01*
X43925Y47585D01*
X43842Y47662D01*
X43762Y47742D01*
X43685Y47825D01*
X43610Y47911D01*
X43539Y47999D01*
X43471Y48090D01*
X43406Y48183D01*
X43344Y48278D01*
X43285Y48375D01*
X43230Y48474D01*
X43179Y48575D01*
X43131Y48678D01*
X43087Y48783D01*
X43046Y48888D01*
X43009Y48996D01*
X42976Y49104D01*
X42947Y49214D01*
X42921Y49324D01*
X42899Y49436D01*
X42882Y49548D01*
X42868Y49660D01*
X42858Y49773D01*
X42852Y49887D01*
X42850Y50000D01*
X100650Y50000D02*
X100652Y50113D01*
X100658Y50227D01*
X100668Y50340D01*
X100682Y50452D01*
X100699Y50564D01*
X100721Y50676D01*
X100747Y50786D01*
X100776Y50896D01*
X100809Y51004D01*
X100846Y51112D01*
X100887Y51217D01*
X100931Y51322D01*
X100979Y51425D01*
X101030Y51526D01*
X101085Y51625D01*
X101144Y51722D01*
X101206Y51817D01*
X101271Y51910D01*
X101339Y52001D01*
X101410Y52089D01*
X101485Y52175D01*
X101562Y52258D01*
X101642Y52338D01*
X101725Y52415D01*
X101811Y52490D01*
X101899Y52561D01*
X101990Y52629D01*
X102083Y52694D01*
X102178Y52756D01*
X102275Y52815D01*
X102374Y52870D01*
X102475Y52921D01*
X102578Y52969D01*
X102683Y53013D01*
X102788Y53054D01*
X102896Y53091D01*
X103004Y53124D01*
X103114Y53153D01*
X103224Y53179D01*
X103336Y53201D01*
X103448Y53218D01*
X103560Y53232D01*
X103673Y53242D01*
X103787Y53248D01*
X103900Y53250D01*
X104013Y53248D01*
X104127Y53242D01*
X104240Y53232D01*
X104352Y53218D01*
X104464Y53201D01*
X104576Y53179D01*
X104686Y53153D01*
X104796Y53124D01*
X104904Y53091D01*
X105012Y53054D01*
X105117Y53013D01*
X105222Y52969D01*
X105325Y52921D01*
X105426Y52870D01*
X105525Y52815D01*
X105622Y52756D01*
X105717Y52694D01*
X105810Y52629D01*
X105901Y52561D01*
X105989Y52490D01*
X106075Y52415D01*
X106158Y52338D01*
X106238Y52258D01*
X106315Y52175D01*
X106390Y52089D01*
X106461Y52001D01*
X106529Y51910D01*
X106594Y51817D01*
X106656Y51722D01*
X106715Y51625D01*
X106770Y51526D01*
X106821Y51425D01*
X106869Y51322D01*
X106913Y51217D01*
X106954Y51112D01*
X106991Y51004D01*
X107024Y50896D01*
X107053Y50786D01*
X107079Y50676D01*
X107101Y50564D01*
X107118Y50452D01*
X107132Y50340D01*
X107142Y50227D01*
X107148Y50113D01*
X107150Y50000D01*
X107148Y49887D01*
X107142Y49773D01*
X107132Y49660D01*
X107118Y49548D01*
X107101Y49436D01*
X107079Y49324D01*
X107053Y49214D01*
X107024Y49104D01*
X106991Y48996D01*
X106954Y48888D01*
X106913Y48783D01*
X106869Y48678D01*
X106821Y48575D01*
X106770Y48474D01*
X106715Y48375D01*
X106656Y48278D01*
X106594Y48183D01*
X106529Y48090D01*
X106461Y47999D01*
X106390Y47911D01*
X106315Y47825D01*
X106238Y47742D01*
X106158Y47662D01*
X106075Y47585D01*
X105989Y47510D01*
X105901Y47439D01*
X105810Y47371D01*
X105717Y47306D01*
X105622Y47244D01*
X105525Y47185D01*
X105426Y47130D01*
X105325Y47079D01*
X105222Y47031D01*
X105117Y46987D01*
X105012Y46946D01*
X104904Y46909D01*
X104796Y46876D01*
X104686Y46847D01*
X104576Y46821D01*
X104464Y46799D01*
X104352Y46782D01*
X104240Y46768D01*
X104127Y46758D01*
X104013Y46752D01*
X103900Y46750D01*
X103787Y46752D01*
X103673Y46758D01*
X103560Y46768D01*
X103448Y46782D01*
X103336Y46799D01*
X103224Y46821D01*
X103114Y46847D01*
X103004Y46876D01*
X102896Y46909D01*
X102788Y46946D01*
X102683Y46987D01*
X102578Y47031D01*
X102475Y47079D01*
X102374Y47130D01*
X102275Y47185D01*
X102178Y47244D01*
X102083Y47306D01*
X101990Y47371D01*
X101899Y47439D01*
X101811Y47510D01*
X101725Y47585D01*
X101642Y47662D01*
X101562Y47742D01*
X101485Y47825D01*
X101410Y47911D01*
X101339Y47999D01*
X101271Y48090D01*
X101206Y48183D01*
X101144Y48278D01*
X101085Y48375D01*
X101030Y48474D01*
X100979Y48575D01*
X100931Y48678D01*
X100887Y48783D01*
X100846Y48888D01*
X100809Y48996D01*
X100776Y49104D01*
X100747Y49214D01*
X100721Y49324D01*
X100699Y49436D01*
X100682Y49548D01*
X100668Y49660D01*
X100658Y49773D01*
X100652Y49887D01*
X100650Y50000D01*
X34800Y49500D02*
X34800Y60500D01*
X34800Y49500D02*
X34798Y49393D01*
X34792Y49286D01*
X34783Y49179D01*
X34769Y49073D01*
X34752Y48967D01*
X34731Y48862D01*
X34707Y48758D01*
X34678Y48655D01*
X34646Y48553D01*
X34611Y48452D01*
X34572Y48352D01*
X34529Y48254D01*
X34483Y48157D01*
X34433Y48062D01*
X34380Y47969D01*
X34324Y47878D01*
X34264Y47789D01*
X34202Y47702D01*
X34136Y47618D01*
X34067Y47535D01*
X33996Y47456D01*
X33921Y47379D01*
X33844Y47304D01*
X33765Y47233D01*
X33682Y47164D01*
X33598Y47098D01*
X33511Y47036D01*
X33422Y46976D01*
X33331Y46920D01*
X33238Y46867D01*
X33143Y46817D01*
X33046Y46771D01*
X32948Y46728D01*
X32848Y46689D01*
X32747Y46654D01*
X32645Y46622D01*
X32542Y46593D01*
X32438Y46569D01*
X32333Y46548D01*
X32227Y46531D01*
X32121Y46517D01*
X32014Y46508D01*
X31907Y46502D01*
X31800Y46500D01*
X31693Y46502D01*
X31586Y46508D01*
X31479Y46517D01*
X31373Y46531D01*
X31267Y46548D01*
X31162Y46569D01*
X31058Y46593D01*
X30955Y46622D01*
X30853Y46654D01*
X30752Y46689D01*
X30652Y46728D01*
X30554Y46771D01*
X30457Y46817D01*
X30362Y46867D01*
X30269Y46920D01*
X30178Y46976D01*
X30089Y47036D01*
X30002Y47098D01*
X29918Y47164D01*
X29835Y47233D01*
X29756Y47304D01*
X29679Y47379D01*
X29604Y47456D01*
X29533Y47535D01*
X29464Y47618D01*
X29398Y47702D01*
X29336Y47789D01*
X29276Y47878D01*
X29220Y47969D01*
X29167Y48062D01*
X29117Y48157D01*
X29071Y48254D01*
X29028Y48352D01*
X28989Y48452D01*
X28954Y48553D01*
X28922Y48655D01*
X28893Y48758D01*
X28869Y48862D01*
X28848Y48967D01*
X28831Y49073D01*
X28817Y49179D01*
X28808Y49286D01*
X28802Y49393D01*
X28800Y49500D01*
X28800Y60500D01*
X28802Y60607D01*
X28808Y60714D01*
X28817Y60821D01*
X28831Y60927D01*
X28848Y61033D01*
X28869Y61138D01*
X28893Y61242D01*
X28922Y61345D01*
X28954Y61447D01*
X28989Y61548D01*
X29028Y61648D01*
X29071Y61746D01*
X29117Y61843D01*
X29167Y61938D01*
X29220Y62031D01*
X29276Y62122D01*
X29336Y62211D01*
X29398Y62298D01*
X29464Y62382D01*
X29533Y62465D01*
X29604Y62544D01*
X29679Y62621D01*
X29756Y62696D01*
X29835Y62767D01*
X29918Y62836D01*
X30002Y62902D01*
X30089Y62964D01*
X30178Y63024D01*
X30269Y63080D01*
X30362Y63133D01*
X30457Y63183D01*
X30554Y63229D01*
X30652Y63272D01*
X30752Y63311D01*
X30853Y63346D01*
X30955Y63378D01*
X31058Y63407D01*
X31162Y63431D01*
X31267Y63452D01*
X31373Y63469D01*
X31479Y63483D01*
X31586Y63492D01*
X31693Y63498D01*
X31800Y63500D01*
X31907Y63498D01*
X32014Y63492D01*
X32121Y63483D01*
X32227Y63469D01*
X32333Y63452D01*
X32438Y63431D01*
X32542Y63407D01*
X32645Y63378D01*
X32747Y63346D01*
X32848Y63311D01*
X32948Y63272D01*
X33046Y63229D01*
X33143Y63183D01*
X33238Y63133D01*
X33331Y63080D01*
X33422Y63024D01*
X33511Y62964D01*
X33598Y62902D01*
X33682Y62836D01*
X33765Y62767D01*
X33844Y62696D01*
X33921Y62621D01*
X33996Y62544D01*
X34067Y62465D01*
X34136Y62382D01*
X34202Y62298D01*
X34264Y62211D01*
X34324Y62122D01*
X34380Y62031D01*
X34433Y61938D01*
X34483Y61843D01*
X34529Y61746D01*
X34572Y61648D01*
X34611Y61548D01*
X34646Y61447D01*
X34678Y61345D01*
X34707Y61242D01*
X34731Y61138D01*
X34752Y61033D01*
X34769Y60927D01*
X34783Y60821D01*
X34792Y60714D01*
X34798Y60607D01*
X34800Y60500D01*
X31800Y63500D02*
X31693Y63498D01*
X31586Y63492D01*
X31479Y63483D01*
X31373Y63469D01*
X31267Y63452D01*
X31162Y63431D01*
X31058Y63407D01*
X30955Y63378D01*
X30853Y63346D01*
X30752Y63311D01*
X30652Y63272D01*
X30554Y63229D01*
X30457Y63183D01*
X30362Y63133D01*
X30269Y63080D01*
X30178Y63024D01*
X30089Y62964D01*
X30002Y62902D01*
X29918Y62836D01*
X29835Y62767D01*
X29756Y62696D01*
X29679Y62621D01*
X29604Y62544D01*
X29533Y62465D01*
X29464Y62382D01*
X29398Y62298D01*
X29336Y62211D01*
X29276Y62122D01*
X29220Y62031D01*
X29167Y61938D01*
X29117Y61843D01*
X29071Y61746D01*
X29028Y61648D01*
X28989Y61548D01*
X28954Y61447D01*
X28922Y61345D01*
X28893Y61242D01*
X28869Y61138D01*
X28848Y61033D01*
X28831Y60927D01*
X28817Y60821D01*
X28808Y60714D01*
X28802Y60607D01*
X28800Y60500D01*
D12*
X31800Y60500D02*
X31800Y49500D01*
D10*
X121200Y49500D02*
X121200Y60500D01*
X121200Y49500D02*
X121198Y49393D01*
X121192Y49286D01*
X121183Y49179D01*
X121169Y49073D01*
X121152Y48967D01*
X121131Y48862D01*
X121107Y48758D01*
X121078Y48655D01*
X121046Y48553D01*
X121011Y48452D01*
X120972Y48352D01*
X120929Y48254D01*
X120883Y48157D01*
X120833Y48062D01*
X120780Y47969D01*
X120724Y47878D01*
X120664Y47789D01*
X120602Y47702D01*
X120536Y47618D01*
X120467Y47535D01*
X120396Y47456D01*
X120321Y47379D01*
X120244Y47304D01*
X120165Y47233D01*
X120082Y47164D01*
X119998Y47098D01*
X119911Y47036D01*
X119822Y46976D01*
X119731Y46920D01*
X119638Y46867D01*
X119543Y46817D01*
X119446Y46771D01*
X119348Y46728D01*
X119248Y46689D01*
X119147Y46654D01*
X119045Y46622D01*
X118942Y46593D01*
X118838Y46569D01*
X118733Y46548D01*
X118627Y46531D01*
X118521Y46517D01*
X118414Y46508D01*
X118307Y46502D01*
X118200Y46500D01*
X118093Y46502D01*
X117986Y46508D01*
X117879Y46517D01*
X117773Y46531D01*
X117667Y46548D01*
X117562Y46569D01*
X117458Y46593D01*
X117355Y46622D01*
X117253Y46654D01*
X117152Y46689D01*
X117052Y46728D01*
X116954Y46771D01*
X116857Y46817D01*
X116762Y46867D01*
X116669Y46920D01*
X116578Y46976D01*
X116489Y47036D01*
X116402Y47098D01*
X116318Y47164D01*
X116235Y47233D01*
X116156Y47304D01*
X116079Y47379D01*
X116004Y47456D01*
X115933Y47535D01*
X115864Y47618D01*
X115798Y47702D01*
X115736Y47789D01*
X115676Y47878D01*
X115620Y47969D01*
X115567Y48062D01*
X115517Y48157D01*
X115471Y48254D01*
X115428Y48352D01*
X115389Y48452D01*
X115354Y48553D01*
X115322Y48655D01*
X115293Y48758D01*
X115269Y48862D01*
X115248Y48967D01*
X115231Y49073D01*
X115217Y49179D01*
X115208Y49286D01*
X115202Y49393D01*
X115200Y49500D01*
X115200Y60500D01*
X115202Y60607D01*
X115208Y60714D01*
X115217Y60821D01*
X115231Y60927D01*
X115248Y61033D01*
X115269Y61138D01*
X115293Y61242D01*
X115322Y61345D01*
X115354Y61447D01*
X115389Y61548D01*
X115428Y61648D01*
X115471Y61746D01*
X115517Y61843D01*
X115567Y61938D01*
X115620Y62031D01*
X115676Y62122D01*
X115736Y62211D01*
X115798Y62298D01*
X115864Y62382D01*
X115933Y62465D01*
X116004Y62544D01*
X116079Y62621D01*
X116156Y62696D01*
X116235Y62767D01*
X116318Y62836D01*
X116402Y62902D01*
X116489Y62964D01*
X116578Y63024D01*
X116669Y63080D01*
X116762Y63133D01*
X116857Y63183D01*
X116954Y63229D01*
X117052Y63272D01*
X117152Y63311D01*
X117253Y63346D01*
X117355Y63378D01*
X117458Y63407D01*
X117562Y63431D01*
X117667Y63452D01*
X117773Y63469D01*
X117879Y63483D01*
X117986Y63492D01*
X118093Y63498D01*
X118200Y63500D01*
X118307Y63498D01*
X118414Y63492D01*
X118521Y63483D01*
X118627Y63469D01*
X118733Y63452D01*
X118838Y63431D01*
X118942Y63407D01*
X119045Y63378D01*
X119147Y63346D01*
X119248Y63311D01*
X119348Y63272D01*
X119446Y63229D01*
X119543Y63183D01*
X119638Y63133D01*
X119731Y63080D01*
X119822Y63024D01*
X119911Y62964D01*
X119998Y62902D01*
X120082Y62836D01*
X120165Y62767D01*
X120244Y62696D01*
X120321Y62621D01*
X120396Y62544D01*
X120467Y62465D01*
X120536Y62382D01*
X120602Y62298D01*
X120664Y62211D01*
X120724Y62122D01*
X120780Y62031D01*
X120833Y61938D01*
X120883Y61843D01*
X120929Y61746D01*
X120972Y61648D01*
X121011Y61548D01*
X121046Y61447D01*
X121078Y61345D01*
X121107Y61242D01*
X121131Y61138D01*
X121152Y61033D01*
X121169Y60927D01*
X121183Y60821D01*
X121192Y60714D01*
X121198Y60607D01*
X121200Y60500D01*
X118200Y63500D02*
X118093Y63498D01*
X117986Y63492D01*
X117879Y63483D01*
X117773Y63469D01*
X117667Y63452D01*
X117562Y63431D01*
X117458Y63407D01*
X117355Y63378D01*
X117253Y63346D01*
X117152Y63311D01*
X117052Y63272D01*
X116954Y63229D01*
X116857Y63183D01*
X116762Y63133D01*
X116669Y63080D01*
X116578Y63024D01*
X116489Y62964D01*
X116402Y62902D01*
X116318Y62836D01*
X116235Y62767D01*
X116156Y62696D01*
X116079Y62621D01*
X116004Y62544D01*
X115933Y62465D01*
X115864Y62382D01*
X115798Y62298D01*
X115736Y62211D01*
X115676Y62122D01*
X115620Y62031D01*
X115567Y61938D01*
X115517Y61843D01*
X115471Y61746D01*
X115428Y61648D01*
X115389Y61548D01*
X115354Y61447D01*
X115322Y61345D01*
X115293Y61242D01*
X115269Y61138D01*
X115248Y61033D01*
X115231Y60927D01*
X115217Y60821D01*
X115208Y60714D01*
X115202Y60607D01*
X115200Y60500D01*
D12*
X118200Y60500D02*
X118200Y49500D01*
D10*
X34800Y17300D02*
X34800Y9300D01*
X34798Y9193D01*
X34792Y9086D01*
X34783Y8979D01*
X34769Y8873D01*
X34752Y8767D01*
X34731Y8662D01*
X34707Y8558D01*
X34678Y8455D01*
X34646Y8353D01*
X34611Y8252D01*
X34572Y8152D01*
X34529Y8054D01*
X34483Y7957D01*
X34433Y7862D01*
X34380Y7769D01*
X34324Y7678D01*
X34264Y7589D01*
X34202Y7502D01*
X34136Y7418D01*
X34067Y7335D01*
X33996Y7256D01*
X33921Y7179D01*
X33844Y7104D01*
X33765Y7033D01*
X33682Y6964D01*
X33598Y6898D01*
X33511Y6836D01*
X33422Y6776D01*
X33331Y6720D01*
X33238Y6667D01*
X33143Y6617D01*
X33046Y6571D01*
X32948Y6528D01*
X32848Y6489D01*
X32747Y6454D01*
X32645Y6422D01*
X32542Y6393D01*
X32438Y6369D01*
X32333Y6348D01*
X32227Y6331D01*
X32121Y6317D01*
X32014Y6308D01*
X31907Y6302D01*
X31800Y6300D01*
X31693Y6302D01*
X31586Y6308D01*
X31479Y6317D01*
X31373Y6331D01*
X31267Y6348D01*
X31162Y6369D01*
X31058Y6393D01*
X30955Y6422D01*
X30853Y6454D01*
X30752Y6489D01*
X30652Y6528D01*
X30554Y6571D01*
X30457Y6617D01*
X30362Y6667D01*
X30269Y6720D01*
X30178Y6776D01*
X30089Y6836D01*
X30002Y6898D01*
X29918Y6964D01*
X29835Y7033D01*
X29756Y7104D01*
X29679Y7179D01*
X29604Y7256D01*
X29533Y7335D01*
X29464Y7418D01*
X29398Y7502D01*
X29336Y7589D01*
X29276Y7678D01*
X29220Y7769D01*
X29167Y7862D01*
X29117Y7957D01*
X29071Y8054D01*
X29028Y8152D01*
X28989Y8252D01*
X28954Y8353D01*
X28922Y8455D01*
X28893Y8558D01*
X28869Y8662D01*
X28848Y8767D01*
X28831Y8873D01*
X28817Y8979D01*
X28808Y9086D01*
X28802Y9193D01*
X28800Y9300D01*
X28800Y17300D01*
X28802Y17407D01*
X28808Y17514D01*
X28817Y17621D01*
X28831Y17727D01*
X28848Y17833D01*
X28869Y17938D01*
X28893Y18042D01*
X28922Y18145D01*
X28954Y18247D01*
X28989Y18348D01*
X29028Y18448D01*
X29071Y18546D01*
X29117Y18643D01*
X29167Y18738D01*
X29220Y18831D01*
X29276Y18922D01*
X29336Y19011D01*
X29398Y19098D01*
X29464Y19182D01*
X29533Y19265D01*
X29604Y19344D01*
X29679Y19421D01*
X29756Y19496D01*
X29835Y19567D01*
X29918Y19636D01*
X30002Y19702D01*
X30089Y19764D01*
X30178Y19824D01*
X30269Y19880D01*
X30362Y19933D01*
X30457Y19983D01*
X30554Y20029D01*
X30652Y20072D01*
X30752Y20111D01*
X30853Y20146D01*
X30955Y20178D01*
X31058Y20207D01*
X31162Y20231D01*
X31267Y20252D01*
X31373Y20269D01*
X31479Y20283D01*
X31586Y20292D01*
X31693Y20298D01*
X31800Y20300D01*
X31907Y20298D01*
X32014Y20292D01*
X32121Y20283D01*
X32227Y20269D01*
X32333Y20252D01*
X32438Y20231D01*
X32542Y20207D01*
X32645Y20178D01*
X32747Y20146D01*
X32848Y20111D01*
X32948Y20072D01*
X33046Y20029D01*
X33143Y19983D01*
X33238Y19933D01*
X33331Y19880D01*
X33422Y19824D01*
X33511Y19764D01*
X33598Y19702D01*
X33682Y19636D01*
X33765Y19567D01*
X33844Y19496D01*
X33921Y19421D01*
X33996Y19344D01*
X34067Y19265D01*
X34136Y19182D01*
X34202Y19098D01*
X34264Y19011D01*
X34324Y18922D01*
X34380Y18831D01*
X34433Y18738D01*
X34483Y18643D01*
X34529Y18546D01*
X34572Y18448D01*
X34611Y18348D01*
X34646Y18247D01*
X34678Y18145D01*
X34707Y18042D01*
X34731Y17938D01*
X34752Y17833D01*
X34769Y17727D01*
X34783Y17621D01*
X34792Y17514D01*
X34798Y17407D01*
X34800Y17300D01*
X31800Y20300D02*
X31693Y20298D01*
X31586Y20292D01*
X31479Y20283D01*
X31373Y20269D01*
X31267Y20252D01*
X31162Y20231D01*
X31058Y20207D01*
X30955Y20178D01*
X30853Y20146D01*
X30752Y20111D01*
X30652Y20072D01*
X30554Y20029D01*
X30457Y19983D01*
X30362Y19933D01*
X30269Y19880D01*
X30178Y19824D01*
X30089Y19764D01*
X30002Y19702D01*
X29918Y19636D01*
X29835Y19567D01*
X29756Y19496D01*
X29679Y19421D01*
X29604Y19344D01*
X29533Y19265D01*
X29464Y19182D01*
X29398Y19098D01*
X29336Y19011D01*
X29276Y18922D01*
X29220Y18831D01*
X29167Y18738D01*
X29117Y18643D01*
X29071Y18546D01*
X29028Y18448D01*
X28989Y18348D01*
X28954Y18247D01*
X28922Y18145D01*
X28893Y18042D01*
X28869Y17938D01*
X28848Y17833D01*
X28831Y17727D01*
X28817Y17621D01*
X28808Y17514D01*
X28802Y17407D01*
X28800Y17300D01*
D12*
X31800Y17300D02*
X31800Y9300D01*
D10*
X121200Y9300D02*
X121200Y17300D01*
X121200Y9300D02*
X121198Y9193D01*
X121192Y9086D01*
X121183Y8979D01*
X121169Y8873D01*
X121152Y8767D01*
X121131Y8662D01*
X121107Y8558D01*
X121078Y8455D01*
X121046Y8353D01*
X121011Y8252D01*
X120972Y8152D01*
X120929Y8054D01*
X120883Y7957D01*
X120833Y7862D01*
X120780Y7769D01*
X120724Y7678D01*
X120664Y7589D01*
X120602Y7502D01*
X120536Y7418D01*
X120467Y7335D01*
X120396Y7256D01*
X120321Y7179D01*
X120244Y7104D01*
X120165Y7033D01*
X120082Y6964D01*
X119998Y6898D01*
X119911Y6836D01*
X119822Y6776D01*
X119731Y6720D01*
X119638Y6667D01*
X119543Y6617D01*
X119446Y6571D01*
X119348Y6528D01*
X119248Y6489D01*
X119147Y6454D01*
X119045Y6422D01*
X118942Y6393D01*
X118838Y6369D01*
X118733Y6348D01*
X118627Y6331D01*
X118521Y6317D01*
X118414Y6308D01*
X118307Y6302D01*
X118200Y6300D01*
X118093Y6302D01*
X117986Y6308D01*
X117879Y6317D01*
X117773Y6331D01*
X117667Y6348D01*
X117562Y6369D01*
X117458Y6393D01*
X117355Y6422D01*
X117253Y6454D01*
X117152Y6489D01*
X117052Y6528D01*
X116954Y6571D01*
X116857Y6617D01*
X116762Y6667D01*
X116669Y6720D01*
X116578Y6776D01*
X116489Y6836D01*
X116402Y6898D01*
X116318Y6964D01*
X116235Y7033D01*
X116156Y7104D01*
X116079Y7179D01*
X116004Y7256D01*
X115933Y7335D01*
X115864Y7418D01*
X115798Y7502D01*
X115736Y7589D01*
X115676Y7678D01*
X115620Y7769D01*
X115567Y7862D01*
X115517Y7957D01*
X115471Y8054D01*
X115428Y8152D01*
X115389Y8252D01*
X115354Y8353D01*
X115322Y8455D01*
X115293Y8558D01*
X115269Y8662D01*
X115248Y8767D01*
X115231Y8873D01*
X115217Y8979D01*
X115208Y9086D01*
X115202Y9193D01*
X115200Y9300D01*
X115200Y17300D01*
X115202Y17407D01*
X115208Y17514D01*
X115217Y17621D01*
X115231Y17727D01*
X115248Y17833D01*
X115269Y17938D01*
X115293Y18042D01*
X115322Y18145D01*
X115354Y18247D01*
X115389Y18348D01*
X115428Y18448D01*
X115471Y18546D01*
X115517Y18643D01*
X115567Y18738D01*
X115620Y18831D01*
X115676Y18922D01*
X115736Y19011D01*
X115798Y19098D01*
X115864Y19182D01*
X115933Y19265D01*
X116004Y19344D01*
X116079Y19421D01*
X116156Y19496D01*
X116235Y19567D01*
X116318Y19636D01*
X116402Y19702D01*
X116489Y19764D01*
X116578Y19824D01*
X116669Y19880D01*
X116762Y19933D01*
X116857Y19983D01*
X116954Y20029D01*
X117052Y20072D01*
X117152Y20111D01*
X117253Y20146D01*
X117355Y20178D01*
X117458Y20207D01*
X117562Y20231D01*
X117667Y20252D01*
X117773Y20269D01*
X117879Y20283D01*
X117986Y20292D01*
X118093Y20298D01*
X118200Y20300D01*
X118307Y20298D01*
X118414Y20292D01*
X118521Y20283D01*
X118627Y20269D01*
X118733Y20252D01*
X118838Y20231D01*
X118942Y20207D01*
X119045Y20178D01*
X119147Y20146D01*
X119248Y20111D01*
X119348Y20072D01*
X119446Y20029D01*
X119543Y19983D01*
X119638Y19933D01*
X119731Y19880D01*
X119822Y19824D01*
X119911Y19764D01*
X119998Y19702D01*
X120082Y19636D01*
X120165Y19567D01*
X120244Y19496D01*
X120321Y19421D01*
X120396Y19344D01*
X120467Y19265D01*
X120536Y19182D01*
X120602Y19098D01*
X120664Y19011D01*
X120724Y18922D01*
X120780Y18831D01*
X120833Y18738D01*
X120883Y18643D01*
X120929Y18546D01*
X120972Y18448D01*
X121011Y18348D01*
X121046Y18247D01*
X121078Y18145D01*
X121107Y18042D01*
X121131Y17938D01*
X121152Y17833D01*
X121169Y17727D01*
X121183Y17621D01*
X121192Y17514D01*
X121198Y17407D01*
X121200Y17300D01*
X118200Y20300D02*
X118093Y20298D01*
X117986Y20292D01*
X117879Y20283D01*
X117773Y20269D01*
X117667Y20252D01*
X117562Y20231D01*
X117458Y20207D01*
X117355Y20178D01*
X117253Y20146D01*
X117152Y20111D01*
X117052Y20072D01*
X116954Y20029D01*
X116857Y19983D01*
X116762Y19933D01*
X116669Y19880D01*
X116578Y19824D01*
X116489Y19764D01*
X116402Y19702D01*
X116318Y19636D01*
X116235Y19567D01*
X116156Y19496D01*
X116079Y19421D01*
X116004Y19344D01*
X115933Y19265D01*
X115864Y19182D01*
X115798Y19098D01*
X115736Y19011D01*
X115676Y18922D01*
X115620Y18831D01*
X115567Y18738D01*
X115517Y18643D01*
X115471Y18546D01*
X115428Y18448D01*
X115389Y18348D01*
X115354Y18247D01*
X115322Y18145D01*
X115293Y18042D01*
X115269Y17938D01*
X115248Y17833D01*
X115231Y17727D01*
X115217Y17621D01*
X115208Y17514D01*
X115202Y17407D01*
X115200Y17300D01*
D12*
X118200Y17300D02*
X118200Y9300D01*
D13*
X81147Y3658D03*
D14*
X62554Y3658D03*
D15*
X97454Y3810D03*
X93339Y3810D03*
X89224Y3810D03*
X85414Y3810D03*
D16*
X81147Y3810D03*
D15*
X77032Y3810D03*
X72917Y3810D03*
X68802Y3810D03*
D17*
X62630Y3810D03*
D18*
X54553Y3810D03*
D15*
X97454Y3962D03*
X93339Y3962D03*
X89224Y3962D03*
X85414Y3962D03*
X81147Y3962D03*
X77032Y3962D03*
X72917Y3962D03*
X68802Y3962D03*
D19*
X62554Y3962D03*
D20*
X54477Y3962D03*
D15*
X97454Y4115D03*
X93339Y4115D03*
X89224Y4115D03*
X85414Y4115D03*
D21*
X81223Y4115D03*
D15*
X77032Y4115D03*
X72917Y4115D03*
X68802Y4115D03*
D22*
X62554Y4115D03*
D23*
X54401Y4115D03*
D15*
X97454Y4267D03*
X93339Y4267D03*
X89224Y4267D03*
X85414Y4267D03*
D14*
X81147Y4267D03*
D15*
X77032Y4267D03*
X72917Y4267D03*
X68802Y4267D03*
D24*
X62630Y4267D03*
D25*
X54324Y4267D03*
D15*
X97454Y4420D03*
X93339Y4420D03*
X89224Y4420D03*
X85414Y4420D03*
D14*
X81147Y4420D03*
D15*
X77032Y4420D03*
X72917Y4420D03*
X68802Y4420D03*
D26*
X62630Y4420D03*
D27*
X54248Y4420D03*
D15*
X97454Y4572D03*
X93339Y4572D03*
X89224Y4572D03*
X85414Y4572D03*
D14*
X81147Y4572D03*
D15*
X77032Y4572D03*
X72917Y4572D03*
X68802Y4572D03*
D28*
X62630Y4572D03*
D29*
X54172Y4572D03*
D15*
X97454Y4724D03*
X93339Y4724D03*
X89224Y4724D03*
X85414Y4724D03*
D14*
X81147Y4724D03*
D15*
X77032Y4724D03*
X72917Y4724D03*
X68802Y4724D03*
D30*
X62630Y4724D03*
D29*
X54172Y4724D03*
D15*
X97454Y4877D03*
X93339Y4877D03*
X89224Y4877D03*
X85414Y4877D03*
D14*
X81147Y4877D03*
D15*
X77032Y4877D03*
X72917Y4877D03*
X68802Y4877D03*
D31*
X62554Y4877D03*
D32*
X54096Y4877D03*
D15*
X97454Y5029D03*
X93339Y5029D03*
X89224Y5029D03*
X85414Y5029D03*
X81147Y5029D03*
X77032Y5029D03*
X72917Y5029D03*
X68802Y5029D03*
D17*
X64002Y5029D03*
D33*
X61182Y5029D03*
D34*
X54020Y5029D03*
D15*
X97454Y5182D03*
X93339Y5182D03*
X89224Y5182D03*
X85414Y5182D03*
X81147Y5182D03*
X77032Y5182D03*
X72917Y5182D03*
X68802Y5182D03*
D35*
X64307Y5182D03*
D36*
X60801Y5182D03*
D37*
X53943Y5182D03*
D15*
X97454Y5334D03*
X93339Y5334D03*
X89224Y5334D03*
X85414Y5334D03*
D16*
X81147Y5334D03*
D15*
X77032Y5334D03*
X72917Y5334D03*
X68802Y5334D03*
D14*
X64535Y5334D03*
X60725Y5334D03*
X56001Y5334D03*
D15*
X97454Y5486D03*
X93339Y5486D03*
X89224Y5486D03*
X85414Y5486D03*
D38*
X81147Y5486D03*
D15*
X77032Y5486D03*
X72917Y5486D03*
X68802Y5486D03*
D39*
X64611Y5486D03*
D21*
X60649Y5486D03*
D35*
X55925Y5486D03*
D15*
X97454Y5639D03*
X93339Y5639D03*
X89224Y5639D03*
X85414Y5639D03*
X77032Y5639D03*
X72917Y5639D03*
X68802Y5639D03*
D39*
X64611Y5639D03*
D21*
X60497Y5639D03*
D14*
X55848Y5639D03*
D15*
X97454Y5791D03*
X93339Y5791D03*
X89224Y5791D03*
X85414Y5791D03*
X77032Y5791D03*
X72917Y5791D03*
X68802Y5791D03*
D39*
X64764Y5791D03*
D21*
X60497Y5791D03*
D14*
X55696Y5791D03*
D15*
X97454Y5944D03*
X93339Y5944D03*
X89224Y5944D03*
X85414Y5944D03*
X77032Y5944D03*
X72917Y5944D03*
X68802Y5944D03*
D39*
X64764Y5944D03*
D15*
X60420Y5944D03*
D14*
X55544Y5944D03*
D15*
X97454Y6096D03*
X93339Y6096D03*
X89224Y6096D03*
X85414Y6096D03*
X77032Y6096D03*
X72917Y6096D03*
X68802Y6096D03*
X64840Y6096D03*
X60420Y6096D03*
D14*
X55391Y6096D03*
D15*
X97454Y6248D03*
X93339Y6248D03*
X89224Y6248D03*
X85414Y6248D03*
X77032Y6248D03*
X72917Y6248D03*
X68802Y6248D03*
X64840Y6248D03*
X60420Y6248D03*
D14*
X55239Y6248D03*
D15*
X97454Y6401D03*
X93339Y6401D03*
X89224Y6401D03*
X85414Y6401D03*
X77032Y6401D03*
X72917Y6401D03*
X68802Y6401D03*
X64840Y6401D03*
X60420Y6401D03*
D35*
X55163Y6401D03*
D15*
X97454Y6553D03*
X93339Y6553D03*
X89224Y6553D03*
X85414Y6553D03*
X77032Y6553D03*
X72917Y6553D03*
X68802Y6553D03*
X64840Y6553D03*
X60420Y6553D03*
D14*
X55086Y6553D03*
D15*
X97454Y6706D03*
X93339Y6706D03*
X89224Y6706D03*
X85414Y6706D03*
X77032Y6706D03*
X72917Y6706D03*
X68802Y6706D03*
X64840Y6706D03*
D40*
X60344Y6706D03*
D14*
X54934Y6706D03*
D15*
X97454Y6858D03*
X93339Y6858D03*
X89224Y6858D03*
X85414Y6858D03*
X77032Y6858D03*
X72917Y6858D03*
X68802Y6858D03*
X64840Y6858D03*
X60268Y6858D03*
D14*
X54782Y6858D03*
D15*
X97454Y7010D03*
X93339Y7010D03*
X89224Y7010D03*
X85414Y7010D03*
X77032Y7010D03*
X72917Y7010D03*
X68802Y7010D03*
X64840Y7010D03*
X60268Y7010D03*
D14*
X54629Y7010D03*
D15*
X97454Y7163D03*
X93339Y7163D03*
X89224Y7163D03*
X85414Y7163D03*
X77032Y7163D03*
X72917Y7163D03*
X68802Y7163D03*
X64840Y7163D03*
X60268Y7163D03*
D14*
X54477Y7163D03*
D15*
X97454Y7315D03*
X93339Y7315D03*
X89224Y7315D03*
X85414Y7315D03*
X77032Y7315D03*
X72917Y7315D03*
X68802Y7315D03*
X64840Y7315D03*
X60268Y7315D03*
D35*
X54401Y7315D03*
D15*
X97454Y7468D03*
X93339Y7468D03*
X89224Y7468D03*
X85414Y7468D03*
X77032Y7468D03*
X72917Y7468D03*
X68802Y7468D03*
X64840Y7468D03*
X60268Y7468D03*
D14*
X54324Y7468D03*
D15*
X97454Y7620D03*
X93339Y7620D03*
X89224Y7620D03*
X85414Y7620D03*
X77032Y7620D03*
X72917Y7620D03*
X68802Y7620D03*
X64840Y7620D03*
X60268Y7620D03*
D14*
X54172Y7620D03*
D15*
X97454Y7772D03*
X93339Y7772D03*
X89224Y7772D03*
X85414Y7772D03*
X77032Y7772D03*
X72917Y7772D03*
X68802Y7772D03*
X64840Y7772D03*
X60268Y7772D03*
D14*
X54020Y7772D03*
D15*
X97454Y7925D03*
X93339Y7925D03*
X89224Y7925D03*
X85414Y7925D03*
X77032Y7925D03*
X72917Y7925D03*
X68802Y7925D03*
X64840Y7925D03*
X60268Y7925D03*
D14*
X53867Y7925D03*
D15*
X97454Y8077D03*
X93339Y8077D03*
X89224Y8077D03*
X85414Y8077D03*
X77032Y8077D03*
X72917Y8077D03*
X68802Y8077D03*
X64840Y8077D03*
X60268Y8077D03*
D36*
X53791Y8077D03*
D15*
X97454Y8230D03*
X93339Y8230D03*
X89224Y8230D03*
X85414Y8230D03*
X77032Y8230D03*
X72917Y8230D03*
X68802Y8230D03*
X64840Y8230D03*
X60268Y8230D03*
D35*
X53639Y8230D03*
D15*
X97454Y8382D03*
D21*
X93263Y8382D03*
D15*
X89224Y8382D03*
X85414Y8382D03*
X77032Y8382D03*
D21*
X72841Y8382D03*
D15*
X68802Y8382D03*
X64840Y8382D03*
X60268Y8382D03*
D14*
X53562Y8382D03*
D39*
X97377Y8534D03*
D21*
X93263Y8534D03*
D15*
X89224Y8534D03*
X85414Y8534D03*
D39*
X76956Y8534D03*
D21*
X72841Y8534D03*
D15*
X68802Y8534D03*
X64840Y8534D03*
X60268Y8534D03*
D14*
X53410Y8534D03*
D39*
X97377Y8687D03*
D14*
X93339Y8687D03*
D15*
X89224Y8687D03*
X85414Y8687D03*
D39*
X76956Y8687D03*
D14*
X72917Y8687D03*
D15*
X68802Y8687D03*
X64840Y8687D03*
X60268Y8687D03*
D14*
X53258Y8687D03*
D39*
X97377Y8839D03*
D14*
X93339Y8839D03*
D21*
X89300Y8839D03*
D15*
X85414Y8839D03*
D39*
X76956Y8839D03*
D14*
X72917Y8839D03*
D21*
X68879Y8839D03*
D15*
X64840Y8839D03*
X60268Y8839D03*
D14*
X53105Y8839D03*
X97301Y8992D03*
D35*
X93263Y8992D03*
D21*
X89300Y8992D03*
D15*
X85414Y8992D03*
D14*
X76880Y8992D03*
D36*
X72841Y8992D03*
D21*
X68879Y8992D03*
D15*
X64840Y8992D03*
X60268Y8992D03*
D36*
X53029Y8992D03*
D14*
X97301Y9144D03*
D41*
X93339Y9144D03*
D21*
X89300Y9144D03*
D15*
X85414Y9144D03*
D42*
X81147Y9144D03*
D14*
X76880Y9144D03*
D41*
X72917Y9144D03*
D21*
X68879Y9144D03*
D15*
X64840Y9144D03*
X60268Y9144D03*
D14*
X52953Y9144D03*
D36*
X97225Y9296D03*
D43*
X93263Y9296D03*
D21*
X89453Y9296D03*
D15*
X85414Y9296D03*
D13*
X81147Y9296D03*
D36*
X76803Y9296D03*
D43*
X72841Y9296D03*
D21*
X69031Y9296D03*
D15*
X64840Y9296D03*
X60268Y9296D03*
D14*
X52800Y9296D03*
D41*
X97149Y9449D03*
D17*
X93263Y9449D03*
D14*
X89529Y9449D03*
D15*
X85414Y9449D03*
D16*
X81147Y9449D03*
D41*
X76727Y9449D03*
D17*
X72841Y9449D03*
D14*
X69107Y9449D03*
D15*
X64840Y9449D03*
X60268Y9449D03*
D44*
X54477Y9449D03*
D33*
X96996Y9601D03*
D45*
X93263Y9601D03*
D41*
X89681Y9601D03*
D15*
X85414Y9601D03*
X81147Y9601D03*
D33*
X76575Y9601D03*
D45*
X72841Y9601D03*
D41*
X69260Y9601D03*
D15*
X64840Y9601D03*
X60268Y9601D03*
D46*
X54401Y9601D03*
D47*
X93415Y9754D03*
D15*
X85414Y9754D03*
D14*
X81147Y9754D03*
D47*
X72993Y9754D03*
D15*
X64840Y9754D03*
X60268Y9754D03*
D48*
X54324Y9754D03*
D49*
X93491Y9906D03*
D15*
X85414Y9906D03*
D14*
X81147Y9906D03*
D49*
X73070Y9906D03*
D15*
X64840Y9906D03*
X60268Y9906D03*
D50*
X54248Y9906D03*
D49*
X93491Y10058D03*
D15*
X85414Y10058D03*
D14*
X81147Y10058D03*
D49*
X73070Y10058D03*
D15*
X64840Y10058D03*
X60268Y10058D03*
D50*
X54248Y10058D03*
D31*
X95625Y10211D03*
D51*
X90824Y10211D03*
D15*
X85414Y10211D03*
D14*
X81147Y10211D03*
D31*
X75203Y10211D03*
D51*
X70403Y10211D03*
D15*
X64840Y10211D03*
X60268Y10211D03*
D52*
X54172Y10211D03*
D30*
X95701Y10363D03*
D53*
X90824Y10363D03*
D15*
X85414Y10363D03*
D14*
X81147Y10363D03*
D30*
X75279Y10363D03*
D54*
X70403Y10363D03*
D15*
X64840Y10363D03*
X60268Y10363D03*
D37*
X54096Y10363D03*
D15*
X97454Y10516D03*
D55*
X94863Y10516D03*
D19*
X90748Y10516D03*
D15*
X85414Y10516D03*
D14*
X81147Y10516D03*
D15*
X77032Y10516D03*
D55*
X74441Y10516D03*
D19*
X70326Y10516D03*
D15*
X64840Y10516D03*
X60268Y10516D03*
D34*
X54020Y10516D03*
D15*
X97454Y10668D03*
D56*
X94863Y10668D03*
D55*
X90748Y10668D03*
D15*
X85414Y10668D03*
X81147Y10668D03*
X77032Y10668D03*
D56*
X74441Y10668D03*
D55*
X70326Y10668D03*
D15*
X64840Y10668D03*
X60268Y10668D03*
D32*
X53943Y10668D03*
D15*
X97454Y10820D03*
D41*
X94863Y10820D03*
D17*
X90824Y10820D03*
D15*
X85414Y10820D03*
D40*
X81223Y10820D03*
D15*
X77032Y10820D03*
D41*
X74441Y10820D03*
D17*
X70403Y10820D03*
D15*
X64840Y10820D03*
X60268Y10820D03*
D29*
X53867Y10820D03*
D40*
X97530Y10973D03*
D21*
X94939Y10973D03*
D36*
X90824Y10973D03*
D40*
X85490Y10973D03*
D13*
X81147Y10973D03*
D40*
X77108Y10973D03*
D39*
X74517Y10973D03*
D35*
X70403Y10973D03*
D40*
X64916Y10973D03*
X60344Y10973D03*
D29*
X53867Y10973D03*
D57*
X94939Y11125D03*
D58*
X90748Y11125D03*
D59*
X81147Y11125D03*
D57*
X74517Y11125D03*
D13*
X70326Y11125D03*
D59*
X85414Y12954D03*
D60*
X85490Y13106D03*
D15*
X85414Y13259D03*
X85414Y13411D03*
D14*
X85414Y13564D03*
X85414Y13716D03*
D36*
X85490Y13868D03*
X85490Y14021D03*
D14*
X85414Y14173D03*
X85414Y14326D03*
X85414Y14478D03*
D15*
X85414Y14630D03*
D16*
X85414Y14783D03*
D58*
X85414Y14935D03*
D45*
X74822Y14935D03*
D50*
X74822Y15088D03*
D61*
X74822Y15240D03*
D62*
X74822Y15392D03*
D63*
X74822Y15545D03*
D64*
X74822Y15697D03*
D65*
X74822Y15850D03*
D66*
X74822Y16002D03*
D67*
X74822Y16154D03*
D68*
X74822Y16307D03*
D69*
X74822Y16459D03*
D70*
X74822Y16612D03*
D71*
X74822Y16764D03*
D72*
X74822Y16916D03*
D73*
X74822Y17069D03*
D74*
X74822Y17221D03*
D75*
X74822Y17374D03*
D76*
X74822Y17526D03*
D77*
X74822Y17678D03*
D78*
X74822Y17831D03*
D79*
X74822Y17983D03*
D80*
X74822Y18136D03*
D81*
X74822Y18288D03*
D82*
X74822Y18440D03*
D83*
X74822Y18593D03*
D84*
X74822Y18745D03*
D85*
X74822Y18898D03*
D86*
X74822Y19050D03*
D87*
X82214Y19202D03*
X67431Y19202D03*
D88*
X82976Y19355D03*
X66669Y19355D03*
D89*
X83509Y19507D03*
X66135Y19507D03*
D90*
X83966Y19660D03*
X65678Y19660D03*
D91*
X84423Y19812D03*
X65221Y19812D03*
D92*
X84804Y19964D03*
X64840Y19964D03*
D20*
X85109Y20117D03*
X64535Y20117D03*
D27*
X85490Y20269D03*
X64154Y20269D03*
D29*
X85719Y20422D03*
X63926Y20422D03*
D34*
X86024Y20574D03*
X63621Y20574D03*
D93*
X86252Y20726D03*
X63392Y20726D03*
D50*
X86557Y20879D03*
X63087Y20879D03*
D94*
X86786Y21031D03*
D48*
X62859Y21031D03*
D46*
X87014Y21184D03*
X62630Y21184D03*
D44*
X87243Y21336D03*
D95*
X62402Y21336D03*
D96*
X87471Y21488D03*
X62173Y21488D03*
D31*
X87700Y21641D03*
X61944Y21641D03*
X87852Y21793D03*
X61792Y21793D03*
D30*
X88081Y21946D03*
X61563Y21946D03*
X88233Y22098D03*
X61411Y22098D03*
D97*
X88462Y22250D03*
X61182Y22250D03*
X88614Y22403D03*
X61030Y22403D03*
D28*
X88843Y22555D03*
D98*
X60801Y22555D03*
D99*
X88919Y22708D03*
X60725Y22708D03*
X89072Y22860D03*
X60573Y22860D03*
D26*
X89300Y23012D03*
X60344Y23012D03*
X89453Y23165D03*
X60192Y23165D03*
X89605Y23317D03*
X60039Y23317D03*
D100*
X89681Y23470D03*
X59963Y23470D03*
D101*
X89834Y23622D03*
D100*
X59811Y23622D03*
X89986Y23774D03*
X59658Y23774D03*
D24*
X90062Y23927D03*
X59582Y23927D03*
X90215Y24079D03*
X59430Y24079D03*
X90367Y24232D03*
X59277Y24232D03*
X90519Y24384D03*
X59125Y24384D03*
D102*
X90596Y24536D03*
D103*
X59049Y24536D03*
D24*
X90672Y24689D03*
X58973Y24689D03*
D102*
X90748Y24841D03*
D103*
X58896Y24841D03*
X90900Y24994D03*
D102*
X58744Y24994D03*
D103*
X91053Y25146D03*
D102*
X58592Y25146D03*
D103*
X91053Y25298D03*
D102*
X58592Y25298D03*
X91205Y25451D03*
X58439Y25451D03*
D51*
X91281Y25603D03*
X58363Y25603D03*
D102*
X91358Y25756D03*
D103*
X58287Y25756D03*
D102*
X91510Y25908D03*
D103*
X58134Y25908D03*
D102*
X91510Y26060D03*
D103*
X58134Y26060D03*
X91662Y26213D03*
D102*
X57982Y26213D03*
D103*
X91662Y26365D03*
D102*
X57982Y26365D03*
D103*
X91815Y26518D03*
D102*
X57830Y26518D03*
D103*
X91815Y26670D03*
D102*
X57830Y26670D03*
X91967Y26822D03*
D40*
X74822Y26822D03*
D102*
X57677Y26822D03*
X91967Y26975D03*
D24*
X74822Y26975D03*
D102*
X57677Y26975D03*
D24*
X92043Y27127D03*
D48*
X74746Y27127D03*
D24*
X57601Y27127D03*
D102*
X92120Y27280D03*
D23*
X74822Y27280D03*
D103*
X57525Y27280D03*
D24*
X92196Y27432D03*
D90*
X74822Y27432D03*
D24*
X57449Y27432D03*
X92196Y27584D03*
D62*
X74822Y27584D03*
D24*
X57449Y27584D03*
X92348Y27737D03*
D104*
X74822Y27737D03*
D24*
X57296Y27737D03*
X92348Y27889D03*
D105*
X74822Y27889D03*
D24*
X57296Y27889D03*
X92348Y28042D03*
D64*
X74822Y28042D03*
D24*
X57296Y28042D03*
D100*
X92424Y28194D03*
D106*
X74822Y28194D03*
D100*
X57220Y28194D03*
X92424Y28346D03*
D107*
X74822Y28346D03*
D100*
X57220Y28346D03*
X92577Y28499D03*
D66*
X74822Y28499D03*
D101*
X57068Y28499D03*
D100*
X92577Y28651D03*
D108*
X74822Y28651D03*
D101*
X57068Y28651D03*
D100*
X92577Y28804D03*
D109*
X74746Y28804D03*
D101*
X57068Y28804D03*
D26*
X92653Y28956D03*
D110*
X74746Y28956D03*
D26*
X56991Y28956D03*
X92653Y29108D03*
D111*
X74822Y29108D03*
D26*
X56991Y29108D03*
X92653Y29261D03*
D112*
X74746Y29261D03*
D26*
X56991Y29261D03*
D99*
X92729Y29413D03*
D112*
X74746Y29413D03*
D99*
X56915Y29413D03*
X92729Y29566D03*
D112*
X74746Y29566D03*
D99*
X56915Y29566D03*
X92729Y29718D03*
D112*
X74746Y29718D03*
D99*
X56915Y29718D03*
D98*
X92805Y29870D03*
D111*
X74822Y29870D03*
D28*
X56839Y29870D03*
D98*
X92805Y30023D03*
D110*
X74746Y30023D03*
D28*
X56839Y30023D03*
D98*
X92805Y30175D03*
D109*
X74746Y30175D03*
D28*
X56839Y30175D03*
D97*
X92882Y30328D03*
D108*
X74822Y30328D03*
D97*
X56763Y30328D03*
X92882Y30480D03*
D66*
X74822Y30480D03*
D97*
X56763Y30480D03*
D30*
X92805Y30632D03*
D107*
X74822Y30632D03*
D30*
X56839Y30632D03*
X92805Y30785D03*
D106*
X74822Y30785D03*
D30*
X56839Y30785D03*
D31*
X92882Y30937D03*
D64*
X74822Y30937D03*
D31*
X56763Y30937D03*
X92882Y31090D03*
D113*
X74822Y31090D03*
D31*
X56763Y31090D03*
X92882Y31242D03*
D114*
X74822Y31242D03*
D31*
X56763Y31242D03*
D96*
X92805Y31394D03*
D89*
X74822Y31394D03*
D96*
X56839Y31394D03*
D95*
X92882Y31547D03*
D115*
X74898Y31547D03*
D44*
X56763Y31547D03*
D95*
X92882Y31699D03*
D32*
X74822Y31699D03*
D44*
X56763Y31699D03*
D46*
X92805Y31852D03*
D30*
X74822Y31852D03*
D46*
X56839Y31852D03*
X92805Y32004D03*
D17*
X74822Y32004D03*
D46*
X56839Y32004D03*
X92805Y32156D03*
X56839Y32156D03*
D50*
X92805Y32309D03*
X56839Y32309D03*
X92805Y32461D03*
X56839Y32461D03*
D52*
X92729Y32614D03*
X56915Y32614D03*
X92729Y32766D03*
X56915Y32766D03*
D93*
X92653Y32918D03*
D37*
X56991Y32918D03*
D93*
X92653Y33071D03*
D37*
X56991Y33071D03*
D32*
X92653Y33223D03*
X56991Y33223D03*
X92653Y33376D03*
X56991Y33376D03*
D29*
X92577Y33528D03*
X57068Y33528D03*
D27*
X92501Y33680D03*
X57144Y33680D03*
X92501Y33833D03*
X57144Y33833D03*
D25*
X92424Y33985D03*
D116*
X57220Y33985D03*
D23*
X92348Y34138D03*
X57296Y34138D03*
D20*
X92272Y34290D03*
X57372Y34290D03*
X92272Y34442D03*
X57372Y34442D03*
D92*
X92272Y34595D03*
X57372Y34595D03*
D117*
X92196Y34747D03*
D61*
X57449Y34747D03*
D115*
X92120Y34900D03*
X57525Y34900D03*
D91*
X92043Y35052D03*
X57601Y35052D03*
D118*
X91967Y35204D03*
X57677Y35204D03*
D90*
X91891Y35357D03*
X57753Y35357D03*
D119*
X91815Y35509D03*
D120*
X57830Y35509D03*
D121*
X91739Y35662D03*
X57906Y35662D03*
D122*
X91662Y35814D03*
X57982Y35814D03*
D89*
X91586Y35966D03*
X58058Y35966D03*
D123*
X91434Y36119D03*
D62*
X58211Y36119D03*
D49*
X91358Y36271D03*
X58287Y36271D03*
D47*
X91281Y36424D03*
X58363Y36424D03*
D114*
X91129Y36576D03*
X58515Y36576D03*
D124*
X91053Y36728D03*
D125*
X58592Y36728D03*
D126*
X90900Y36881D03*
X58744Y36881D03*
D63*
X90824Y37033D03*
X58820Y37033D03*
D127*
X90672Y37186D03*
D113*
X58973Y37186D03*
D87*
X90596Y37338D03*
X59049Y37338D03*
D128*
X90443Y37490D03*
X59201Y37490D03*
D129*
X90291Y37643D03*
D130*
X59354Y37643D03*
D131*
X90138Y37795D03*
X59506Y37795D03*
D132*
X89910Y37948D03*
X59735Y37948D03*
D133*
X89757Y38100D03*
D106*
X59887Y38100D03*
D48*
X93034Y38252D03*
D46*
X85947Y38252D03*
D96*
X63849Y38252D03*
D52*
X56763Y38252D03*
D96*
X93263Y38405D03*
D44*
X85566Y38405D03*
D31*
X64230Y38405D03*
D46*
X56534Y38405D03*
D30*
X93415Y38557D03*
D46*
X85185Y38557D03*
D96*
X64611Y38557D03*
X56382Y38557D03*
D98*
X93567Y38710D03*
D46*
X84881Y38710D03*
D96*
X64916Y38710D03*
D30*
X56229Y38710D03*
D99*
X93644Y38862D03*
D52*
X84500Y38862D03*
D48*
X65297Y38862D03*
D97*
X56153Y38862D03*
D26*
X93720Y39014D03*
D34*
X84195Y39014D03*
D52*
X65602Y39014D03*
D28*
X56077Y39014D03*
D100*
X93796Y39167D03*
D27*
X83814Y39167D03*
D32*
X65983Y39167D03*
D99*
X56001Y39167D03*
D102*
X93796Y39319D03*
D20*
X83433Y39319D03*
D116*
X66364Y39319D03*
D100*
X56001Y39319D03*
D102*
X93796Y39472D03*
D91*
X83052Y39472D03*
D61*
X66745Y39472D03*
D100*
X56001Y39472D03*
D51*
X93872Y39624D03*
D122*
X82518Y39624D03*
D119*
X67278Y39624D03*
D24*
X55925Y39624D03*
D51*
X93872Y39776D03*
D104*
X81833Y39776D03*
D114*
X67964Y39776D03*
D24*
X55925Y39776D03*
D22*
X93948Y39929D03*
D82*
X74975Y39929D03*
D103*
X55848Y39929D03*
D22*
X93948Y40081D03*
D82*
X74975Y40081D03*
D103*
X55848Y40081D03*
D53*
X93872Y40234D03*
D82*
X74975Y40234D03*
D51*
X55925Y40234D03*
D19*
X93948Y40386D03*
D134*
X74975Y40386D03*
D22*
X55848Y40386D03*
D19*
X93948Y40538D03*
D134*
X74975Y40538D03*
D22*
X55848Y40538D03*
D19*
X93948Y40691D03*
D134*
X74975Y40691D03*
D22*
X55848Y40691D03*
D19*
X93948Y40843D03*
D134*
X74975Y40843D03*
D22*
X55848Y40843D03*
D45*
X93872Y40996D03*
D134*
X74975Y40996D03*
D54*
X55925Y40996D03*
D45*
X93872Y41148D03*
D134*
X74975Y41148D03*
D54*
X55925Y41148D03*
D45*
X93872Y41300D03*
D134*
X74975Y41300D03*
D54*
X55925Y41300D03*
D45*
X93872Y41453D03*
D134*
X74975Y41453D03*
D54*
X55925Y41453D03*
D135*
X93720Y41605D03*
D82*
X74975Y41605D03*
D53*
X56077Y41605D03*
D135*
X93720Y41758D03*
D82*
X74975Y41758D03*
D53*
X56077Y41758D03*
D135*
X93720Y41910D03*
D82*
X74975Y41910D03*
D53*
X56077Y41910D03*
D19*
X93644Y42062D03*
D83*
X74975Y42062D03*
D22*
X56153Y42062D03*
D135*
X93567Y42215D03*
D83*
X74975Y42215D03*
D53*
X56229Y42215D03*
D19*
X93491Y42367D03*
D84*
X74975Y42367D03*
D22*
X56306Y42367D03*
D19*
X93491Y42520D03*
D84*
X74975Y42520D03*
D22*
X56306Y42520D03*
D19*
X93339Y42672D03*
D136*
X74975Y42672D03*
D22*
X56458Y42672D03*
D54*
X93263Y42824D03*
D137*
X74975Y42824D03*
D51*
X56534Y42824D03*
D22*
X93186Y42977D03*
D86*
X74975Y42977D03*
D103*
X56610Y42977D03*
D22*
X93034Y43129D03*
D138*
X74975Y43129D03*
D103*
X56763Y43129D03*
D102*
X92882Y43282D03*
D139*
X74975Y43282D03*
D100*
X56915Y43282D03*
X92729Y43434D03*
D140*
X74975Y43434D03*
D99*
X57068Y43434D03*
X92424Y43586D03*
D141*
X74975Y43586D03*
D97*
X57372Y43586D03*
D142*
X74822Y43739D03*
X74822Y43891D03*
D143*
X74822Y44044D03*
X74822Y44196D03*
D144*
X74822Y44348D03*
X74822Y44501D03*
X74822Y44653D03*
D145*
X74822Y44806D03*
X74822Y44958D03*
D146*
X74822Y45110D03*
X74822Y45263D03*
D147*
X74822Y45415D03*
X74822Y45568D03*
D148*
X74822Y45720D03*
X74822Y45872D03*
D149*
X74822Y46025D03*
X74822Y46177D03*
D150*
X74822Y46330D03*
X74822Y46482D03*
D151*
X74822Y46634D03*
D152*
X74822Y46787D03*
X74822Y46939D03*
D153*
X74822Y47092D03*
X74822Y47244D03*
D154*
X74822Y47396D03*
D155*
X74822Y47549D03*
X74822Y47701D03*
D156*
X74822Y47854D03*
X74822Y48006D03*
D157*
X74822Y48158D03*
D158*
X74822Y48311D03*
D159*
X74822Y48463D03*
X74822Y48616D03*
D160*
X74822Y48768D03*
D161*
X74822Y48920D03*
X74822Y49073D03*
D162*
X74822Y49225D03*
D163*
X74822Y49378D03*
D164*
X74822Y49530D03*
D165*
X74822Y49682D03*
X74822Y49835D03*
D166*
X74822Y49987D03*
D167*
X74822Y50140D03*
D168*
X74822Y50292D03*
D169*
X74822Y50444D03*
D170*
X74822Y50597D03*
D171*
X74822Y50749D03*
D172*
X74822Y50902D03*
D173*
X74822Y51054D03*
D174*
X74822Y51206D03*
D175*
X74822Y51359D03*
D176*
X74822Y51511D03*
D177*
X74822Y51664D03*
D178*
X74822Y51816D03*
D179*
X74822Y51968D03*
D180*
X74822Y52121D03*
D181*
X74822Y52273D03*
D141*
X74822Y52426D03*
D182*
X74822Y52578D03*
D140*
X74822Y52730D03*
D183*
X74822Y52883D03*
D139*
X74822Y53035D03*
D184*
X74822Y53188D03*
D86*
X74822Y53340D03*
D85*
X74822Y53492D03*
D84*
X74822Y53645D03*
D83*
X74822Y53797D03*
D82*
X74822Y53950D03*
D81*
X74822Y54102D03*
D80*
X74822Y54254D03*
D79*
X74822Y54407D03*
D78*
X74822Y54559D03*
D77*
X74822Y54712D03*
D76*
X74822Y54864D03*
D75*
X74822Y55016D03*
D74*
X74822Y55169D03*
D73*
X74822Y55321D03*
D72*
X74822Y55474D03*
D71*
X74822Y55626D03*
D70*
X74822Y55778D03*
D69*
X74822Y55931D03*
D68*
X74822Y56083D03*
D67*
X74822Y56236D03*
D66*
X74822Y56388D03*
D65*
X74822Y56540D03*
D64*
X74822Y56693D03*
D63*
X74822Y56845D03*
D62*
X74822Y56998D03*
D61*
X74822Y57150D03*
D50*
X74822Y57302D03*
D45*
X74822Y57455D03*
D185*
X39370Y125730D02*
X11430Y146050D01*
D186*
X55372Y125730D03*
D185*
X39370Y125730D01*
D186*
X86106Y125730D03*
D185*
X70866Y125730D02*
X55372Y125730D01*
X70866Y125730D02*
X86106Y125730D01*
D186*
X106934Y72136D03*
D185*
X106172Y72136D01*
X98940Y64904D01*
X99078Y64770D01*
X48756Y64770D01*
X43180Y71120D01*
X37846Y71120D01*
X36576Y70866D01*
D186*
X36576Y70866D03*
D185*
X30226Y78486D01*
X29972Y117856D01*
X39370Y125730D01*
D186*
X101600Y234950D03*
X25400Y260350D03*
X22860Y187452D03*
X74168Y101600D03*
D187*
X70866Y104902D01*
X70866Y125730D01*
X101600Y234950D02*
X76200Y260350D01*
X26416Y260350D01*
X25400Y260350D01*
X22860Y187452D02*
X24892Y185420D01*
X24892Y158496D01*
X12446Y146050D01*
X11430Y146050D01*
X22860Y187452D02*
X22860Y189230D01*
X26416Y192786D01*
X26416Y260350D01*
D186*
X34544Y235458D03*
D188*
X34544Y154432D01*
X32258Y152146D01*
D186*
X32258Y152146D03*
D188*
X11430Y120650D02*
X24130Y108966D01*
X24130Y86614D01*
X15240Y77470D01*
X15240Y77216D01*
D186*
X15240Y77216D03*
X65278Y208026D03*
D188*
X59944Y202438D01*
X59944Y187960D01*
X60198Y187706D01*
D186*
X60198Y187706D03*
X92456Y72136D03*
D188*
X112014Y95250D01*
X112014Y103378D01*
D186*
X112014Y103378D03*
X62484Y72136D03*
D188*
X81534Y72136D01*
X93472Y85598D01*
X93218Y108204D01*
X94996Y110236D01*
D186*
X94996Y110236D03*
X117094Y226314D03*
D188*
X119126Y223266D01*
D186*
X119126Y81026D03*
D188*
X119126Y223266D01*
M02*
