M48
;GenerationSoftware,Autodesk,EAGLE,9.6.2*%
;CreationDate,2023-01-21T07:38:29Z*%
FMAT,2
ICI,OFF
METRIC,TZ,000.000
T3C0.200
T2C0.650
T1C1.016
%
G90
M71
T1
X1143Y24765
X1143Y22225
X1143Y19685
X1143Y17145
X1143Y14605
X1143Y12065
X1143Y9525
X13843Y24765
X13843Y22225
X13843Y19685
X13843Y17145
X13843Y14605
X13843Y12065
X13843Y9525
T2
X10390Y5000
X4610Y5000
T3
X9500Y11024
X5537Y12573
X11913Y8103
X6248Y7214
X11201Y10338
X9246Y7214
X6020Y18771
X6528Y20803
X1524Y7722
X3226Y15215
X3454Y23546
X7417Y10160
X2286Y18745
X2540Y26035
X10160Y23495
X3658Y7087
X10693Y7214
X8611Y12573
X11709Y22631
M30