G04 EAGLE Gerber RS-274X export*
G75*
%MOMM*%
%FSLAX34Y34*%
%LPD*%
%INSilk top*%
%IPPOS*%
%AMOC8*
5,1,8,0,0,1.08239X$1,22.5*%
G01*
%ADD10C,0.000000*%
%ADD11C,0.050800*%
%ADD12C,0.101600*%
%ADD13C,0.203200*%
%ADD14C,0.127000*%

G36*
X99520Y123330D02*
X99520Y123330D01*
X99522Y123332D01*
X99523Y123331D01*
X100194Y123566D01*
X100195Y123567D01*
X100196Y123567D01*
X100798Y123945D01*
X100799Y123947D01*
X100801Y123947D01*
X101303Y124449D01*
X101303Y124451D01*
X101305Y124452D01*
X101683Y125054D01*
X101683Y125055D01*
X101684Y125056D01*
X101919Y125727D01*
X101919Y125729D01*
X101920Y125730D01*
X101999Y126436D01*
X101999Y126437D01*
X101998Y126438D01*
X101999Y126439D01*
X101920Y127145D01*
X101918Y127147D01*
X101919Y127148D01*
X101684Y127819D01*
X101683Y127820D01*
X101683Y127821D01*
X101305Y128423D01*
X101303Y128424D01*
X101303Y128426D01*
X100801Y128928D01*
X100799Y128928D01*
X100798Y128930D01*
X100196Y129308D01*
X100195Y129308D01*
X100194Y129309D01*
X99523Y129544D01*
X99521Y129544D01*
X99520Y129545D01*
X98814Y129624D01*
X98812Y129623D01*
X98811Y129624D01*
X98105Y129545D01*
X98103Y129543D01*
X98102Y129544D01*
X97431Y129309D01*
X97430Y129308D01*
X97429Y129308D01*
X96827Y128930D01*
X96826Y128928D01*
X96824Y128928D01*
X96322Y128426D01*
X96322Y128424D01*
X96320Y128423D01*
X95942Y127821D01*
X95942Y127820D01*
X95941Y127819D01*
X95706Y127148D01*
X95707Y127146D01*
X95705Y127145D01*
X95626Y126439D01*
X95627Y126437D01*
X95626Y126436D01*
X95705Y125730D01*
X95707Y125728D01*
X95706Y125727D01*
X95941Y125056D01*
X95942Y125055D01*
X95942Y125054D01*
X96320Y124452D01*
X96322Y124451D01*
X96322Y124449D01*
X96824Y123947D01*
X96826Y123947D01*
X96827Y123945D01*
X97429Y123567D01*
X97430Y123567D01*
X97431Y123566D01*
X98102Y123331D01*
X98104Y123332D01*
X98105Y123330D01*
X98811Y123251D01*
X98813Y123252D01*
X98814Y123251D01*
X99520Y123330D01*
G37*
D10*
X20000Y0D02*
X130000Y0D01*
X130483Y6D01*
X130966Y23D01*
X131449Y53D01*
X131930Y93D01*
X132411Y146D01*
X132890Y210D01*
X133367Y285D01*
X133843Y373D01*
X134316Y471D01*
X134786Y581D01*
X135254Y702D01*
X135719Y835D01*
X136180Y979D01*
X136638Y1134D01*
X137092Y1300D01*
X137542Y1477D01*
X137987Y1664D01*
X138428Y1863D01*
X138864Y2071D01*
X139294Y2291D01*
X139720Y2521D01*
X140139Y2761D01*
X140553Y3011D01*
X140960Y3271D01*
X141361Y3540D01*
X141756Y3820D01*
X142143Y4108D01*
X142524Y4407D01*
X142897Y4714D01*
X143262Y5030D01*
X143620Y5355D01*
X143970Y5688D01*
X144312Y6030D01*
X144645Y6380D01*
X144970Y6738D01*
X145286Y7103D01*
X145593Y7476D01*
X145892Y7857D01*
X146180Y8244D01*
X146460Y8639D01*
X146729Y9040D01*
X146989Y9447D01*
X147239Y9861D01*
X147479Y10280D01*
X147709Y10706D01*
X147929Y11136D01*
X148137Y11572D01*
X148336Y12013D01*
X148523Y12458D01*
X148700Y12908D01*
X148866Y13362D01*
X149021Y13820D01*
X149165Y14281D01*
X149298Y14746D01*
X149419Y15214D01*
X149529Y15684D01*
X149627Y16157D01*
X149715Y16633D01*
X149790Y17110D01*
X149854Y17589D01*
X149907Y18070D01*
X149947Y18551D01*
X149977Y19034D01*
X149994Y19517D01*
X150000Y20000D01*
X150000Y250000D01*
X149994Y250483D01*
X149977Y250966D01*
X149947Y251449D01*
X149907Y251930D01*
X149854Y252411D01*
X149790Y252890D01*
X149715Y253367D01*
X149627Y253843D01*
X149529Y254316D01*
X149419Y254786D01*
X149298Y255254D01*
X149165Y255719D01*
X149021Y256180D01*
X148866Y256638D01*
X148700Y257092D01*
X148523Y257542D01*
X148336Y257987D01*
X148137Y258428D01*
X147929Y258864D01*
X147709Y259294D01*
X147479Y259720D01*
X147239Y260139D01*
X146989Y260553D01*
X146729Y260960D01*
X146460Y261361D01*
X146180Y261756D01*
X145892Y262143D01*
X145593Y262524D01*
X145286Y262897D01*
X144970Y263262D01*
X144645Y263620D01*
X144312Y263970D01*
X143970Y264312D01*
X143620Y264645D01*
X143262Y264970D01*
X142897Y265286D01*
X142524Y265593D01*
X142143Y265892D01*
X141756Y266180D01*
X141361Y266460D01*
X140960Y266729D01*
X140553Y266989D01*
X140139Y267239D01*
X139720Y267479D01*
X139294Y267709D01*
X138864Y267929D01*
X138428Y268137D01*
X137987Y268336D01*
X137542Y268523D01*
X137092Y268700D01*
X136638Y268866D01*
X136180Y269021D01*
X135719Y269165D01*
X135254Y269298D01*
X134786Y269419D01*
X134316Y269529D01*
X133843Y269627D01*
X133367Y269715D01*
X132890Y269790D01*
X132411Y269854D01*
X131930Y269907D01*
X131449Y269947D01*
X130966Y269977D01*
X130483Y269994D01*
X130000Y270000D01*
X20000Y270000D01*
X19517Y269994D01*
X19034Y269977D01*
X18551Y269947D01*
X18070Y269907D01*
X17589Y269854D01*
X17110Y269790D01*
X16633Y269715D01*
X16157Y269627D01*
X15684Y269529D01*
X15214Y269419D01*
X14746Y269298D01*
X14281Y269165D01*
X13820Y269021D01*
X13362Y268866D01*
X12908Y268700D01*
X12458Y268523D01*
X12013Y268336D01*
X11572Y268137D01*
X11136Y267929D01*
X10706Y267709D01*
X10280Y267479D01*
X9861Y267239D01*
X9447Y266989D01*
X9040Y266729D01*
X8639Y266460D01*
X8244Y266180D01*
X7857Y265892D01*
X7476Y265593D01*
X7103Y265286D01*
X6738Y264970D01*
X6380Y264645D01*
X6030Y264312D01*
X5688Y263970D01*
X5355Y263620D01*
X5030Y263262D01*
X4714Y262897D01*
X4407Y262524D01*
X4108Y262143D01*
X3820Y261756D01*
X3540Y261361D01*
X3271Y260960D01*
X3011Y260553D01*
X2761Y260139D01*
X2521Y259720D01*
X2291Y259294D01*
X2071Y258864D01*
X1863Y258428D01*
X1664Y257987D01*
X1477Y257542D01*
X1300Y257092D01*
X1134Y256638D01*
X979Y256180D01*
X835Y255719D01*
X702Y255254D01*
X581Y254786D01*
X471Y254316D01*
X373Y253843D01*
X285Y253367D01*
X210Y252890D01*
X146Y252411D01*
X93Y251930D01*
X53Y251449D01*
X23Y250966D01*
X6Y250483D01*
X0Y250000D01*
X0Y20000D01*
X6Y19517D01*
X23Y19034D01*
X53Y18551D01*
X93Y18070D01*
X146Y17589D01*
X210Y17110D01*
X285Y16633D01*
X373Y16157D01*
X471Y15684D01*
X581Y15214D01*
X702Y14746D01*
X835Y14281D01*
X979Y13820D01*
X1134Y13362D01*
X1300Y12908D01*
X1477Y12458D01*
X1664Y12013D01*
X1863Y11572D01*
X2071Y11136D01*
X2291Y10706D01*
X2521Y10280D01*
X2761Y9861D01*
X3011Y9447D01*
X3271Y9040D01*
X3540Y8639D01*
X3820Y8244D01*
X4108Y7857D01*
X4407Y7476D01*
X4714Y7103D01*
X5030Y6738D01*
X5355Y6380D01*
X5688Y6030D01*
X6030Y5688D01*
X6380Y5355D01*
X6738Y5030D01*
X7103Y4714D01*
X7476Y4407D01*
X7857Y4108D01*
X8244Y3820D01*
X8639Y3540D01*
X9040Y3271D01*
X9447Y3011D01*
X9861Y2761D01*
X10280Y2521D01*
X10706Y2291D01*
X11136Y2071D01*
X11572Y1863D01*
X12013Y1664D01*
X12458Y1477D01*
X12908Y1300D01*
X13362Y1134D01*
X13820Y979D01*
X14281Y835D01*
X14746Y702D01*
X15214Y581D01*
X15684Y471D01*
X16157Y373D01*
X16633Y285D01*
X17110Y210D01*
X17589Y146D01*
X18070Y93D01*
X18551Y53D01*
X19034Y23D01*
X19517Y6D01*
X20000Y0D01*
D11*
X28956Y251079D02*
X27376Y253055D01*
X28956Y251079D02*
X21844Y251079D01*
X21844Y253055D02*
X21844Y249103D01*
X27376Y246197D02*
X28956Y244221D01*
X21844Y244221D01*
X21844Y246197D02*
X21844Y242245D01*
X21844Y227655D02*
X21844Y225679D01*
X21846Y225592D01*
X21852Y225504D01*
X21861Y225417D01*
X21875Y225331D01*
X21892Y225245D01*
X21913Y225161D01*
X21938Y225077D01*
X21967Y224994D01*
X21999Y224913D01*
X22034Y224833D01*
X22073Y224755D01*
X22116Y224678D01*
X22162Y224604D01*
X22211Y224532D01*
X22263Y224462D01*
X22319Y224394D01*
X22377Y224329D01*
X22438Y224266D01*
X22502Y224207D01*
X22569Y224150D01*
X22637Y224096D01*
X22709Y224045D01*
X22782Y223998D01*
X22857Y223953D01*
X22935Y223912D01*
X23014Y223875D01*
X23094Y223841D01*
X23176Y223811D01*
X23259Y223784D01*
X23344Y223761D01*
X23429Y223742D01*
X23515Y223727D01*
X23602Y223715D01*
X23689Y223707D01*
X23776Y223703D01*
X23864Y223703D01*
X23951Y223707D01*
X24038Y223715D01*
X24125Y223727D01*
X24211Y223742D01*
X24296Y223761D01*
X24381Y223784D01*
X24464Y223811D01*
X24546Y223841D01*
X24626Y223875D01*
X24705Y223912D01*
X24783Y223953D01*
X24858Y223998D01*
X24931Y224045D01*
X25003Y224096D01*
X25071Y224150D01*
X25138Y224207D01*
X25202Y224266D01*
X25263Y224329D01*
X25321Y224394D01*
X25377Y224462D01*
X25429Y224532D01*
X25478Y224604D01*
X25524Y224678D01*
X25567Y224755D01*
X25606Y224833D01*
X25641Y224913D01*
X25673Y224994D01*
X25702Y225077D01*
X25727Y225161D01*
X25748Y225245D01*
X25765Y225331D01*
X25779Y225417D01*
X25788Y225504D01*
X25794Y225592D01*
X25796Y225679D01*
X28956Y225284D02*
X28956Y227655D01*
X28956Y225284D02*
X28954Y225205D01*
X28948Y225127D01*
X28938Y225049D01*
X28925Y224971D01*
X28907Y224894D01*
X28886Y224818D01*
X28861Y224744D01*
X28832Y224670D01*
X28800Y224598D01*
X28764Y224528D01*
X28724Y224460D01*
X28681Y224394D01*
X28635Y224330D01*
X28586Y224268D01*
X28534Y224209D01*
X28479Y224153D01*
X28421Y224099D01*
X28361Y224049D01*
X28298Y224001D01*
X28233Y223957D01*
X28166Y223916D01*
X28097Y223878D01*
X28026Y223844D01*
X27953Y223813D01*
X27879Y223786D01*
X27804Y223763D01*
X27728Y223744D01*
X27650Y223728D01*
X27572Y223716D01*
X27494Y223708D01*
X27415Y223704D01*
X27337Y223704D01*
X27258Y223708D01*
X27180Y223716D01*
X27102Y223728D01*
X27024Y223744D01*
X26948Y223763D01*
X26873Y223786D01*
X26799Y223813D01*
X26726Y223844D01*
X26655Y223878D01*
X26586Y223916D01*
X26519Y223957D01*
X26454Y224001D01*
X26391Y224049D01*
X26331Y224099D01*
X26273Y224153D01*
X26218Y224209D01*
X26166Y224268D01*
X26117Y224330D01*
X26071Y224394D01*
X26028Y224460D01*
X25988Y224528D01*
X25952Y224598D01*
X25920Y224670D01*
X25891Y224744D01*
X25866Y224818D01*
X25845Y224894D01*
X25827Y224971D01*
X25814Y225049D01*
X25804Y225127D01*
X25798Y225205D01*
X25796Y225284D01*
X25795Y225284D02*
X25795Y226864D01*
X21844Y220797D02*
X21844Y218821D01*
X21846Y218734D01*
X21852Y218646D01*
X21861Y218559D01*
X21875Y218473D01*
X21892Y218387D01*
X21913Y218303D01*
X21938Y218219D01*
X21967Y218136D01*
X21999Y218055D01*
X22034Y217975D01*
X22073Y217897D01*
X22116Y217820D01*
X22162Y217746D01*
X22211Y217674D01*
X22263Y217604D01*
X22319Y217536D01*
X22377Y217471D01*
X22438Y217408D01*
X22502Y217349D01*
X22569Y217292D01*
X22637Y217238D01*
X22709Y217187D01*
X22782Y217140D01*
X22857Y217095D01*
X22935Y217054D01*
X23014Y217017D01*
X23094Y216983D01*
X23176Y216953D01*
X23259Y216926D01*
X23344Y216903D01*
X23429Y216884D01*
X23515Y216869D01*
X23602Y216857D01*
X23689Y216849D01*
X23776Y216845D01*
X23864Y216845D01*
X23951Y216849D01*
X24038Y216857D01*
X24125Y216869D01*
X24211Y216884D01*
X24296Y216903D01*
X24381Y216926D01*
X24464Y216953D01*
X24546Y216983D01*
X24626Y217017D01*
X24705Y217054D01*
X24783Y217095D01*
X24858Y217140D01*
X24931Y217187D01*
X25003Y217238D01*
X25071Y217292D01*
X25138Y217349D01*
X25202Y217408D01*
X25263Y217471D01*
X25321Y217536D01*
X25377Y217604D01*
X25429Y217674D01*
X25478Y217746D01*
X25524Y217820D01*
X25567Y217897D01*
X25606Y217975D01*
X25641Y218055D01*
X25673Y218136D01*
X25702Y218219D01*
X25727Y218303D01*
X25748Y218387D01*
X25765Y218473D01*
X25779Y218559D01*
X25788Y218646D01*
X25794Y218734D01*
X25796Y218821D01*
X28956Y218426D02*
X28956Y220797D01*
X28956Y218426D02*
X28954Y218347D01*
X28948Y218269D01*
X28938Y218191D01*
X28925Y218113D01*
X28907Y218036D01*
X28886Y217960D01*
X28861Y217886D01*
X28832Y217812D01*
X28800Y217740D01*
X28764Y217670D01*
X28724Y217602D01*
X28681Y217536D01*
X28635Y217472D01*
X28586Y217410D01*
X28534Y217351D01*
X28479Y217295D01*
X28421Y217241D01*
X28361Y217191D01*
X28298Y217143D01*
X28233Y217099D01*
X28166Y217058D01*
X28097Y217020D01*
X28026Y216986D01*
X27953Y216955D01*
X27879Y216928D01*
X27804Y216905D01*
X27728Y216886D01*
X27650Y216870D01*
X27572Y216858D01*
X27494Y216850D01*
X27415Y216846D01*
X27337Y216846D01*
X27258Y216850D01*
X27180Y216858D01*
X27102Y216870D01*
X27024Y216886D01*
X26948Y216905D01*
X26873Y216928D01*
X26799Y216955D01*
X26726Y216986D01*
X26655Y217020D01*
X26586Y217058D01*
X26519Y217099D01*
X26454Y217143D01*
X26391Y217191D01*
X26331Y217241D01*
X26273Y217295D01*
X26218Y217351D01*
X26166Y217410D01*
X26117Y217472D01*
X26071Y217536D01*
X26028Y217602D01*
X25988Y217670D01*
X25952Y217740D01*
X25920Y217812D01*
X25891Y217886D01*
X25866Y217960D01*
X25845Y218036D01*
X25827Y218113D01*
X25814Y218191D01*
X25804Y218269D01*
X25798Y218347D01*
X25796Y218426D01*
X25795Y218426D02*
X25795Y220006D01*
X21844Y202255D02*
X21844Y200279D01*
X21846Y200192D01*
X21852Y200104D01*
X21861Y200017D01*
X21875Y199931D01*
X21892Y199845D01*
X21913Y199761D01*
X21938Y199677D01*
X21967Y199594D01*
X21999Y199513D01*
X22034Y199433D01*
X22073Y199355D01*
X22116Y199278D01*
X22162Y199204D01*
X22211Y199132D01*
X22263Y199062D01*
X22319Y198994D01*
X22377Y198929D01*
X22438Y198866D01*
X22502Y198807D01*
X22569Y198750D01*
X22637Y198696D01*
X22709Y198645D01*
X22782Y198598D01*
X22857Y198553D01*
X22935Y198512D01*
X23014Y198475D01*
X23094Y198441D01*
X23176Y198411D01*
X23259Y198384D01*
X23344Y198361D01*
X23429Y198342D01*
X23515Y198327D01*
X23602Y198315D01*
X23689Y198307D01*
X23776Y198303D01*
X23864Y198303D01*
X23951Y198307D01*
X24038Y198315D01*
X24125Y198327D01*
X24211Y198342D01*
X24296Y198361D01*
X24381Y198384D01*
X24464Y198411D01*
X24546Y198441D01*
X24626Y198475D01*
X24705Y198512D01*
X24783Y198553D01*
X24858Y198598D01*
X24931Y198645D01*
X25003Y198696D01*
X25071Y198750D01*
X25138Y198807D01*
X25202Y198866D01*
X25263Y198929D01*
X25321Y198994D01*
X25377Y199062D01*
X25429Y199132D01*
X25478Y199204D01*
X25524Y199278D01*
X25567Y199355D01*
X25606Y199433D01*
X25641Y199513D01*
X25673Y199594D01*
X25702Y199677D01*
X25727Y199761D01*
X25748Y199845D01*
X25765Y199931D01*
X25779Y200017D01*
X25788Y200104D01*
X25794Y200192D01*
X25796Y200279D01*
X28956Y199884D02*
X28956Y202255D01*
X28956Y199884D02*
X28954Y199805D01*
X28948Y199727D01*
X28938Y199649D01*
X28925Y199571D01*
X28907Y199494D01*
X28886Y199418D01*
X28861Y199344D01*
X28832Y199270D01*
X28800Y199198D01*
X28764Y199128D01*
X28724Y199060D01*
X28681Y198994D01*
X28635Y198930D01*
X28586Y198868D01*
X28534Y198809D01*
X28479Y198753D01*
X28421Y198699D01*
X28361Y198649D01*
X28298Y198601D01*
X28233Y198557D01*
X28166Y198516D01*
X28097Y198478D01*
X28026Y198444D01*
X27953Y198413D01*
X27879Y198386D01*
X27804Y198363D01*
X27728Y198344D01*
X27650Y198328D01*
X27572Y198316D01*
X27494Y198308D01*
X27415Y198304D01*
X27337Y198304D01*
X27258Y198308D01*
X27180Y198316D01*
X27102Y198328D01*
X27024Y198344D01*
X26948Y198363D01*
X26873Y198386D01*
X26799Y198413D01*
X26726Y198444D01*
X26655Y198478D01*
X26586Y198516D01*
X26519Y198557D01*
X26454Y198601D01*
X26391Y198649D01*
X26331Y198699D01*
X26273Y198753D01*
X26218Y198809D01*
X26166Y198868D01*
X26117Y198930D01*
X26071Y198994D01*
X26028Y199060D01*
X25988Y199128D01*
X25952Y199198D01*
X25920Y199270D01*
X25891Y199344D01*
X25866Y199418D01*
X25845Y199494D01*
X25827Y199571D01*
X25814Y199649D01*
X25804Y199727D01*
X25798Y199805D01*
X25796Y199884D01*
X25795Y199884D02*
X25795Y201464D01*
X23424Y195397D02*
X28956Y193816D01*
X23424Y195397D02*
X23424Y191445D01*
X21844Y192631D02*
X25005Y192631D01*
X21844Y179806D02*
X28956Y179806D01*
X28956Y177831D01*
X28954Y177744D01*
X28948Y177656D01*
X28939Y177569D01*
X28925Y177483D01*
X28908Y177397D01*
X28887Y177313D01*
X28862Y177229D01*
X28833Y177146D01*
X28801Y177065D01*
X28766Y176985D01*
X28727Y176907D01*
X28684Y176830D01*
X28638Y176756D01*
X28589Y176684D01*
X28537Y176614D01*
X28481Y176546D01*
X28423Y176481D01*
X28362Y176418D01*
X28298Y176359D01*
X28231Y176302D01*
X28163Y176248D01*
X28091Y176197D01*
X28018Y176150D01*
X27943Y176105D01*
X27865Y176064D01*
X27786Y176027D01*
X27706Y175993D01*
X27624Y175963D01*
X27541Y175936D01*
X27456Y175913D01*
X27371Y175894D01*
X27285Y175879D01*
X27198Y175867D01*
X27111Y175859D01*
X27024Y175855D01*
X26936Y175855D01*
X26849Y175859D01*
X26762Y175867D01*
X26675Y175879D01*
X26589Y175894D01*
X26504Y175913D01*
X26419Y175936D01*
X26336Y175963D01*
X26254Y175993D01*
X26174Y176027D01*
X26095Y176064D01*
X26017Y176105D01*
X25942Y176150D01*
X25869Y176197D01*
X25797Y176248D01*
X25729Y176302D01*
X25662Y176359D01*
X25598Y176418D01*
X25537Y176481D01*
X25479Y176546D01*
X25423Y176614D01*
X25371Y176684D01*
X25322Y176756D01*
X25276Y176830D01*
X25233Y176907D01*
X25194Y176985D01*
X25159Y177065D01*
X25127Y177146D01*
X25098Y177229D01*
X25073Y177313D01*
X25052Y177397D01*
X25035Y177483D01*
X25021Y177569D01*
X25012Y177656D01*
X25006Y177744D01*
X25004Y177831D01*
X25005Y177831D02*
X25005Y179806D01*
X25005Y177435D02*
X21844Y175855D01*
X21844Y170847D02*
X21846Y170769D01*
X21852Y170692D01*
X21861Y170615D01*
X21874Y170539D01*
X21891Y170463D01*
X21912Y170388D01*
X21936Y170315D01*
X21964Y170242D01*
X21996Y170171D01*
X22031Y170102D01*
X22069Y170035D01*
X22110Y169969D01*
X22155Y169906D01*
X22203Y169845D01*
X22253Y169786D01*
X22307Y169730D01*
X22363Y169676D01*
X22422Y169626D01*
X22483Y169578D01*
X22546Y169533D01*
X22612Y169492D01*
X22679Y169454D01*
X22748Y169419D01*
X22819Y169387D01*
X22892Y169359D01*
X22965Y169335D01*
X23040Y169314D01*
X23116Y169297D01*
X23192Y169284D01*
X23269Y169275D01*
X23346Y169269D01*
X23424Y169267D01*
X21844Y170847D02*
X21846Y170962D01*
X21852Y171076D01*
X21862Y171190D01*
X21875Y171304D01*
X21893Y171417D01*
X21915Y171530D01*
X21940Y171642D01*
X21969Y171753D01*
X22002Y171862D01*
X22039Y171971D01*
X22079Y172078D01*
X22123Y172184D01*
X22171Y172288D01*
X22222Y172391D01*
X22277Y172491D01*
X22335Y172590D01*
X22397Y172687D01*
X22461Y172781D01*
X22529Y172874D01*
X22601Y172964D01*
X22675Y173051D01*
X22752Y173136D01*
X22832Y173218D01*
X27376Y173019D02*
X27454Y173017D01*
X27531Y173011D01*
X27608Y173002D01*
X27684Y172989D01*
X27760Y172972D01*
X27835Y172951D01*
X27908Y172927D01*
X27981Y172899D01*
X28052Y172867D01*
X28121Y172832D01*
X28188Y172794D01*
X28254Y172753D01*
X28317Y172708D01*
X28378Y172660D01*
X28437Y172610D01*
X28493Y172556D01*
X28547Y172500D01*
X28597Y172441D01*
X28645Y172380D01*
X28690Y172317D01*
X28731Y172251D01*
X28769Y172184D01*
X28804Y172115D01*
X28836Y172044D01*
X28864Y171971D01*
X28888Y171898D01*
X28909Y171823D01*
X28926Y171747D01*
X28939Y171671D01*
X28948Y171594D01*
X28954Y171517D01*
X28956Y171439D01*
X28954Y171333D01*
X28948Y171227D01*
X28939Y171122D01*
X28926Y171017D01*
X28909Y170912D01*
X28888Y170808D01*
X28864Y170705D01*
X28836Y170603D01*
X28804Y170502D01*
X28769Y170402D01*
X28730Y170304D01*
X28687Y170206D01*
X28642Y170111D01*
X28593Y170017D01*
X28540Y169925D01*
X28484Y169835D01*
X28425Y169747D01*
X28363Y169661D01*
X25993Y172230D02*
X26035Y172297D01*
X26080Y172362D01*
X26129Y172425D01*
X26180Y172486D01*
X26235Y172543D01*
X26292Y172598D01*
X26352Y172651D01*
X26414Y172700D01*
X26479Y172746D01*
X26545Y172788D01*
X26614Y172828D01*
X26685Y172864D01*
X26758Y172896D01*
X26832Y172925D01*
X26907Y172950D01*
X26983Y172971D01*
X27061Y172989D01*
X27139Y173002D01*
X27218Y173012D01*
X27297Y173018D01*
X27376Y173020D01*
X24807Y170056D02*
X24765Y169989D01*
X24720Y169924D01*
X24671Y169861D01*
X24620Y169800D01*
X24565Y169743D01*
X24508Y169688D01*
X24448Y169635D01*
X24386Y169586D01*
X24321Y169540D01*
X24255Y169498D01*
X24186Y169458D01*
X24115Y169422D01*
X24042Y169390D01*
X23968Y169361D01*
X23893Y169336D01*
X23817Y169315D01*
X23739Y169297D01*
X23661Y169284D01*
X23582Y169274D01*
X23503Y169268D01*
X23424Y169266D01*
X24807Y170056D02*
X25993Y172229D01*
X28956Y165069D02*
X21844Y165069D01*
X28956Y167045D02*
X28956Y163094D01*
X25795Y152575D02*
X25795Y151390D01*
X21844Y151390D01*
X21844Y153760D01*
X21846Y153838D01*
X21852Y153915D01*
X21861Y153992D01*
X21874Y154068D01*
X21891Y154144D01*
X21912Y154219D01*
X21936Y154292D01*
X21964Y154365D01*
X21996Y154436D01*
X22031Y154505D01*
X22069Y154572D01*
X22110Y154638D01*
X22155Y154701D01*
X22203Y154762D01*
X22253Y154821D01*
X22307Y154877D01*
X22363Y154931D01*
X22422Y154981D01*
X22483Y155029D01*
X22546Y155074D01*
X22612Y155115D01*
X22679Y155153D01*
X22748Y155188D01*
X22819Y155220D01*
X22892Y155248D01*
X22965Y155272D01*
X23040Y155293D01*
X23116Y155310D01*
X23192Y155323D01*
X23269Y155332D01*
X23346Y155338D01*
X23424Y155340D01*
X23424Y155341D02*
X27376Y155341D01*
X27376Y155340D02*
X27454Y155338D01*
X27531Y155332D01*
X27608Y155323D01*
X27684Y155310D01*
X27760Y155293D01*
X27835Y155272D01*
X27908Y155248D01*
X27981Y155220D01*
X28052Y155188D01*
X28121Y155153D01*
X28188Y155115D01*
X28254Y155074D01*
X28317Y155029D01*
X28378Y154981D01*
X28437Y154931D01*
X28493Y154877D01*
X28547Y154821D01*
X28597Y154762D01*
X28645Y154701D01*
X28690Y154638D01*
X28731Y154572D01*
X28769Y154505D01*
X28804Y154436D01*
X28836Y154365D01*
X28864Y154292D01*
X28888Y154219D01*
X28909Y154144D01*
X28926Y154068D01*
X28939Y153992D01*
X28948Y153915D01*
X28954Y153838D01*
X28956Y153760D01*
X28956Y151390D01*
X28956Y148026D02*
X21844Y148026D01*
X21844Y144074D02*
X28956Y148026D01*
X28956Y144074D02*
X21844Y144074D01*
X21844Y140710D02*
X28956Y140710D01*
X28956Y138735D01*
X28954Y138649D01*
X28948Y138563D01*
X28939Y138477D01*
X28926Y138392D01*
X28909Y138307D01*
X28889Y138224D01*
X28865Y138141D01*
X28837Y138059D01*
X28806Y137979D01*
X28771Y137900D01*
X28733Y137823D01*
X28691Y137747D01*
X28647Y137673D01*
X28599Y137602D01*
X28548Y137532D01*
X28494Y137465D01*
X28437Y137400D01*
X28377Y137338D01*
X28315Y137278D01*
X28250Y137221D01*
X28183Y137167D01*
X28113Y137116D01*
X28042Y137068D01*
X27968Y137024D01*
X27892Y136982D01*
X27815Y136944D01*
X27736Y136909D01*
X27656Y136878D01*
X27574Y136850D01*
X27491Y136826D01*
X27408Y136806D01*
X27323Y136789D01*
X27238Y136776D01*
X27152Y136767D01*
X27066Y136761D01*
X26980Y136759D01*
X23820Y136759D01*
X23734Y136761D01*
X23648Y136767D01*
X23562Y136776D01*
X23477Y136789D01*
X23392Y136806D01*
X23309Y136826D01*
X23226Y136850D01*
X23144Y136878D01*
X23064Y136909D01*
X22985Y136944D01*
X22908Y136982D01*
X22832Y137024D01*
X22758Y137068D01*
X22687Y137116D01*
X22617Y137167D01*
X22550Y137221D01*
X22485Y137278D01*
X22423Y137338D01*
X22363Y137400D01*
X22306Y137465D01*
X22252Y137532D01*
X22201Y137602D01*
X22153Y137673D01*
X22109Y137747D01*
X22067Y137823D01*
X22029Y137900D01*
X21994Y137979D01*
X21963Y138059D01*
X21935Y138141D01*
X21911Y138224D01*
X21891Y138307D01*
X21874Y138392D01*
X21861Y138477D01*
X21852Y138563D01*
X21846Y138649D01*
X21844Y138735D01*
X21844Y140710D01*
X21844Y126252D02*
X21844Y123881D01*
X21846Y123803D01*
X21852Y123726D01*
X21861Y123649D01*
X21874Y123573D01*
X21891Y123497D01*
X21912Y123422D01*
X21936Y123349D01*
X21964Y123276D01*
X21996Y123205D01*
X22031Y123136D01*
X22069Y123069D01*
X22110Y123003D01*
X22155Y122940D01*
X22203Y122879D01*
X22253Y122820D01*
X22307Y122764D01*
X22363Y122710D01*
X22422Y122660D01*
X22483Y122612D01*
X22546Y122567D01*
X22612Y122526D01*
X22679Y122488D01*
X22748Y122453D01*
X22819Y122421D01*
X22892Y122393D01*
X22965Y122369D01*
X23040Y122348D01*
X23116Y122331D01*
X23192Y122318D01*
X23269Y122309D01*
X23346Y122303D01*
X23424Y122301D01*
X24215Y122301D01*
X24293Y122303D01*
X24370Y122309D01*
X24447Y122318D01*
X24523Y122331D01*
X24599Y122348D01*
X24674Y122369D01*
X24747Y122393D01*
X24820Y122421D01*
X24891Y122453D01*
X24960Y122488D01*
X25027Y122526D01*
X25093Y122567D01*
X25156Y122612D01*
X25217Y122660D01*
X25276Y122710D01*
X25332Y122764D01*
X25386Y122820D01*
X25436Y122879D01*
X25484Y122940D01*
X25529Y123003D01*
X25570Y123069D01*
X25608Y123136D01*
X25643Y123205D01*
X25675Y123276D01*
X25703Y123349D01*
X25727Y123422D01*
X25748Y123497D01*
X25765Y123573D01*
X25778Y123649D01*
X25787Y123726D01*
X25793Y123803D01*
X25795Y123881D01*
X25795Y126252D01*
X28956Y126252D01*
X28956Y122301D01*
X28956Y119789D02*
X21844Y117419D01*
X28956Y115048D01*
X84328Y116936D02*
X84328Y118799D01*
X84328Y116936D02*
X84330Y116866D01*
X84336Y116797D01*
X84346Y116728D01*
X84359Y116660D01*
X84377Y116592D01*
X84398Y116526D01*
X84423Y116461D01*
X84451Y116397D01*
X84483Y116335D01*
X84518Y116275D01*
X84557Y116217D01*
X84599Y116162D01*
X84644Y116108D01*
X84692Y116058D01*
X84742Y116010D01*
X84796Y115965D01*
X84851Y115923D01*
X84909Y115884D01*
X84969Y115849D01*
X85031Y115817D01*
X85095Y115789D01*
X85160Y115764D01*
X85226Y115743D01*
X85294Y115725D01*
X85362Y115712D01*
X85431Y115702D01*
X85500Y115696D01*
X85570Y115694D01*
X86191Y115694D01*
X86261Y115696D01*
X86330Y115702D01*
X86399Y115712D01*
X86467Y115725D01*
X86535Y115743D01*
X86601Y115764D01*
X86666Y115789D01*
X86730Y115817D01*
X86792Y115849D01*
X86852Y115884D01*
X86910Y115923D01*
X86965Y115965D01*
X87019Y116010D01*
X87069Y116058D01*
X87117Y116108D01*
X87162Y116162D01*
X87204Y116217D01*
X87243Y116275D01*
X87278Y116335D01*
X87310Y116397D01*
X87338Y116461D01*
X87363Y116526D01*
X87384Y116592D01*
X87402Y116660D01*
X87415Y116728D01*
X87425Y116797D01*
X87431Y116866D01*
X87433Y116936D01*
X87432Y116936D02*
X87432Y118799D01*
X89916Y118799D01*
X89916Y115694D01*
X89916Y113046D02*
X84328Y113046D01*
X86501Y113046D02*
X89916Y109942D01*
X87743Y111805D02*
X84328Y109942D01*
X88674Y107826D02*
X89916Y106274D01*
X84328Y106274D01*
X84328Y107826D02*
X84328Y104721D01*
X128016Y242245D02*
X128016Y244221D01*
X128014Y244308D01*
X128008Y244396D01*
X127999Y244483D01*
X127985Y244569D01*
X127968Y244655D01*
X127947Y244739D01*
X127922Y244823D01*
X127893Y244906D01*
X127861Y244987D01*
X127826Y245067D01*
X127787Y245145D01*
X127744Y245222D01*
X127698Y245296D01*
X127649Y245368D01*
X127597Y245438D01*
X127541Y245506D01*
X127483Y245571D01*
X127422Y245634D01*
X127358Y245693D01*
X127291Y245750D01*
X127223Y245804D01*
X127151Y245855D01*
X127078Y245902D01*
X127003Y245947D01*
X126925Y245988D01*
X126846Y246025D01*
X126766Y246059D01*
X126684Y246089D01*
X126601Y246116D01*
X126516Y246139D01*
X126431Y246158D01*
X126345Y246173D01*
X126258Y246185D01*
X126171Y246193D01*
X126084Y246197D01*
X125996Y246197D01*
X125909Y246193D01*
X125822Y246185D01*
X125735Y246173D01*
X125649Y246158D01*
X125564Y246139D01*
X125479Y246116D01*
X125396Y246089D01*
X125314Y246059D01*
X125234Y246025D01*
X125155Y245988D01*
X125077Y245947D01*
X125002Y245902D01*
X124929Y245855D01*
X124857Y245804D01*
X124789Y245750D01*
X124722Y245693D01*
X124658Y245634D01*
X124597Y245571D01*
X124539Y245506D01*
X124483Y245438D01*
X124431Y245368D01*
X124382Y245296D01*
X124336Y245222D01*
X124293Y245145D01*
X124254Y245067D01*
X124219Y244987D01*
X124187Y244906D01*
X124158Y244823D01*
X124133Y244739D01*
X124112Y244655D01*
X124095Y244569D01*
X124081Y244483D01*
X124072Y244396D01*
X124066Y244308D01*
X124064Y244221D01*
X120904Y244616D02*
X120904Y242245D01*
X120904Y244616D02*
X120906Y244695D01*
X120912Y244773D01*
X120922Y244851D01*
X120935Y244929D01*
X120953Y245006D01*
X120974Y245082D01*
X120999Y245156D01*
X121028Y245230D01*
X121060Y245302D01*
X121096Y245372D01*
X121136Y245440D01*
X121179Y245506D01*
X121225Y245570D01*
X121274Y245632D01*
X121326Y245691D01*
X121381Y245747D01*
X121439Y245801D01*
X121499Y245851D01*
X121562Y245899D01*
X121627Y245943D01*
X121694Y245984D01*
X121763Y246022D01*
X121834Y246056D01*
X121907Y246087D01*
X121981Y246114D01*
X122056Y246137D01*
X122132Y246156D01*
X122210Y246172D01*
X122288Y246184D01*
X122366Y246192D01*
X122445Y246196D01*
X122523Y246196D01*
X122602Y246192D01*
X122680Y246184D01*
X122758Y246172D01*
X122836Y246156D01*
X122912Y246137D01*
X122987Y246114D01*
X123061Y246087D01*
X123134Y246056D01*
X123205Y246022D01*
X123274Y245984D01*
X123341Y245943D01*
X123406Y245899D01*
X123469Y245851D01*
X123529Y245801D01*
X123587Y245747D01*
X123642Y245691D01*
X123694Y245632D01*
X123743Y245570D01*
X123789Y245506D01*
X123832Y245440D01*
X123872Y245372D01*
X123908Y245302D01*
X123940Y245230D01*
X123969Y245156D01*
X123994Y245082D01*
X124015Y245006D01*
X124033Y244929D01*
X124046Y244851D01*
X124056Y244773D01*
X124062Y244695D01*
X124064Y244616D01*
X124065Y244616D02*
X124065Y243036D01*
X124460Y249103D02*
X124312Y249105D01*
X124165Y249110D01*
X124017Y249120D01*
X123870Y249133D01*
X123723Y249149D01*
X123577Y249170D01*
X123432Y249194D01*
X123286Y249222D01*
X123142Y249253D01*
X122999Y249288D01*
X122856Y249327D01*
X122715Y249369D01*
X122574Y249415D01*
X122435Y249464D01*
X122297Y249517D01*
X122160Y249573D01*
X122025Y249633D01*
X121892Y249696D01*
X121821Y249722D01*
X121752Y249752D01*
X121684Y249786D01*
X121618Y249823D01*
X121554Y249863D01*
X121492Y249907D01*
X121433Y249953D01*
X121376Y250003D01*
X121322Y250056D01*
X121270Y250111D01*
X121222Y250169D01*
X121176Y250229D01*
X121134Y250292D01*
X121095Y250357D01*
X121059Y250423D01*
X121027Y250492D01*
X120999Y250561D01*
X120974Y250633D01*
X120953Y250705D01*
X120935Y250779D01*
X120922Y250853D01*
X120912Y250928D01*
X120906Y251003D01*
X120904Y251079D01*
X120906Y251155D01*
X120912Y251230D01*
X120922Y251305D01*
X120935Y251379D01*
X120953Y251453D01*
X120974Y251525D01*
X120999Y251597D01*
X121027Y251666D01*
X121059Y251735D01*
X121095Y251801D01*
X121134Y251866D01*
X121176Y251929D01*
X121222Y251989D01*
X121270Y252047D01*
X121322Y252102D01*
X121376Y252155D01*
X121433Y252205D01*
X121492Y252251D01*
X121554Y252295D01*
X121618Y252335D01*
X121684Y252372D01*
X121752Y252406D01*
X121821Y252436D01*
X121892Y252462D01*
X122025Y252525D01*
X122160Y252585D01*
X122297Y252641D01*
X122435Y252694D01*
X122574Y252743D01*
X122715Y252789D01*
X122856Y252831D01*
X122999Y252870D01*
X123142Y252905D01*
X123286Y252936D01*
X123432Y252964D01*
X123577Y252988D01*
X123723Y253009D01*
X123870Y253025D01*
X124017Y253038D01*
X124165Y253048D01*
X124312Y253053D01*
X124460Y253055D01*
X124460Y249103D02*
X124608Y249105D01*
X124755Y249110D01*
X124903Y249120D01*
X125050Y249133D01*
X125197Y249149D01*
X125343Y249170D01*
X125488Y249194D01*
X125634Y249222D01*
X125778Y249253D01*
X125921Y249288D01*
X126064Y249327D01*
X126205Y249369D01*
X126346Y249415D01*
X126485Y249464D01*
X126623Y249517D01*
X126760Y249573D01*
X126895Y249633D01*
X127028Y249696D01*
X127099Y249722D01*
X127168Y249752D01*
X127236Y249786D01*
X127302Y249823D01*
X127366Y249863D01*
X127428Y249907D01*
X127487Y249953D01*
X127544Y250003D01*
X127598Y250056D01*
X127650Y250111D01*
X127698Y250169D01*
X127744Y250229D01*
X127786Y250292D01*
X127825Y250357D01*
X127861Y250423D01*
X127893Y250492D01*
X127921Y250562D01*
X127946Y250633D01*
X127967Y250705D01*
X127985Y250779D01*
X127998Y250853D01*
X128008Y250928D01*
X128014Y251003D01*
X128016Y251079D01*
X127028Y252462D02*
X126895Y252525D01*
X126760Y252585D01*
X126623Y252641D01*
X126485Y252694D01*
X126346Y252743D01*
X126205Y252789D01*
X126064Y252831D01*
X125921Y252870D01*
X125778Y252905D01*
X125634Y252936D01*
X125488Y252964D01*
X125343Y252988D01*
X125197Y253009D01*
X125050Y253025D01*
X124903Y253038D01*
X124755Y253048D01*
X124608Y253053D01*
X124460Y253055D01*
X127028Y252462D02*
X127099Y252436D01*
X127168Y252406D01*
X127236Y252372D01*
X127302Y252335D01*
X127366Y252295D01*
X127428Y252251D01*
X127487Y252205D01*
X127544Y252155D01*
X127598Y252102D01*
X127650Y252047D01*
X127698Y251989D01*
X127744Y251929D01*
X127786Y251866D01*
X127825Y251801D01*
X127861Y251735D01*
X127893Y251666D01*
X127921Y251596D01*
X127946Y251525D01*
X127967Y251453D01*
X127985Y251379D01*
X127998Y251305D01*
X128008Y251230D01*
X128014Y251155D01*
X128016Y251079D01*
X126436Y249499D02*
X122484Y252659D01*
X128016Y218821D02*
X128016Y216845D01*
X128016Y218821D02*
X128014Y218908D01*
X128008Y218996D01*
X127999Y219083D01*
X127985Y219169D01*
X127968Y219255D01*
X127947Y219339D01*
X127922Y219423D01*
X127893Y219506D01*
X127861Y219587D01*
X127826Y219667D01*
X127787Y219745D01*
X127744Y219822D01*
X127698Y219896D01*
X127649Y219968D01*
X127597Y220038D01*
X127541Y220106D01*
X127483Y220171D01*
X127422Y220234D01*
X127358Y220293D01*
X127291Y220350D01*
X127223Y220404D01*
X127151Y220455D01*
X127078Y220502D01*
X127003Y220547D01*
X126925Y220588D01*
X126846Y220625D01*
X126766Y220659D01*
X126684Y220689D01*
X126601Y220716D01*
X126516Y220739D01*
X126431Y220758D01*
X126345Y220773D01*
X126258Y220785D01*
X126171Y220793D01*
X126084Y220797D01*
X125996Y220797D01*
X125909Y220793D01*
X125822Y220785D01*
X125735Y220773D01*
X125649Y220758D01*
X125564Y220739D01*
X125479Y220716D01*
X125396Y220689D01*
X125314Y220659D01*
X125234Y220625D01*
X125155Y220588D01*
X125077Y220547D01*
X125002Y220502D01*
X124929Y220455D01*
X124857Y220404D01*
X124789Y220350D01*
X124722Y220293D01*
X124658Y220234D01*
X124597Y220171D01*
X124539Y220106D01*
X124483Y220038D01*
X124431Y219968D01*
X124382Y219896D01*
X124336Y219822D01*
X124293Y219745D01*
X124254Y219667D01*
X124219Y219587D01*
X124187Y219506D01*
X124158Y219423D01*
X124133Y219339D01*
X124112Y219255D01*
X124095Y219169D01*
X124081Y219083D01*
X124072Y218996D01*
X124066Y218908D01*
X124064Y218821D01*
X120904Y219216D02*
X120904Y216845D01*
X120904Y219216D02*
X120906Y219295D01*
X120912Y219373D01*
X120922Y219451D01*
X120935Y219529D01*
X120953Y219606D01*
X120974Y219682D01*
X120999Y219756D01*
X121028Y219830D01*
X121060Y219902D01*
X121096Y219972D01*
X121136Y220040D01*
X121179Y220106D01*
X121225Y220170D01*
X121274Y220232D01*
X121326Y220291D01*
X121381Y220347D01*
X121439Y220401D01*
X121499Y220451D01*
X121562Y220499D01*
X121627Y220543D01*
X121694Y220584D01*
X121763Y220622D01*
X121834Y220656D01*
X121907Y220687D01*
X121981Y220714D01*
X122056Y220737D01*
X122132Y220756D01*
X122210Y220772D01*
X122288Y220784D01*
X122366Y220792D01*
X122445Y220796D01*
X122523Y220796D01*
X122602Y220792D01*
X122680Y220784D01*
X122758Y220772D01*
X122836Y220756D01*
X122912Y220737D01*
X122987Y220714D01*
X123061Y220687D01*
X123134Y220656D01*
X123205Y220622D01*
X123274Y220584D01*
X123341Y220543D01*
X123406Y220499D01*
X123469Y220451D01*
X123529Y220401D01*
X123587Y220347D01*
X123642Y220291D01*
X123694Y220232D01*
X123743Y220170D01*
X123789Y220106D01*
X123832Y220040D01*
X123872Y219972D01*
X123908Y219902D01*
X123940Y219830D01*
X123969Y219756D01*
X123994Y219682D01*
X124015Y219606D01*
X124033Y219529D01*
X124046Y219451D01*
X124056Y219373D01*
X124062Y219295D01*
X124064Y219216D01*
X124065Y219216D02*
X124065Y217636D01*
X122484Y223703D02*
X120904Y225679D01*
X128016Y225679D01*
X128016Y223703D02*
X128016Y227655D01*
X120904Y193421D02*
X122484Y191445D01*
X120904Y193421D02*
X128016Y193421D01*
X128016Y191445D02*
X128016Y195397D01*
X121694Y198303D02*
X120904Y198303D01*
X120904Y202255D01*
X128016Y200279D01*
X120904Y168021D02*
X122484Y166045D01*
X120904Y168021D02*
X128016Y168021D01*
X128016Y166045D02*
X128016Y169997D01*
X124065Y172903D02*
X124065Y175274D01*
X124067Y175352D01*
X124073Y175429D01*
X124082Y175506D01*
X124095Y175582D01*
X124112Y175658D01*
X124133Y175733D01*
X124157Y175806D01*
X124185Y175879D01*
X124217Y175950D01*
X124252Y176019D01*
X124290Y176086D01*
X124331Y176152D01*
X124376Y176215D01*
X124424Y176276D01*
X124474Y176335D01*
X124528Y176391D01*
X124584Y176445D01*
X124643Y176495D01*
X124704Y176543D01*
X124767Y176588D01*
X124833Y176629D01*
X124900Y176667D01*
X124969Y176702D01*
X125040Y176734D01*
X125113Y176762D01*
X125186Y176786D01*
X125261Y176807D01*
X125337Y176824D01*
X125413Y176837D01*
X125490Y176846D01*
X125567Y176852D01*
X125645Y176854D01*
X125645Y176855D02*
X126040Y176855D01*
X126127Y176853D01*
X126215Y176847D01*
X126302Y176838D01*
X126388Y176824D01*
X126474Y176807D01*
X126558Y176786D01*
X126642Y176761D01*
X126725Y176732D01*
X126806Y176700D01*
X126886Y176665D01*
X126964Y176626D01*
X127041Y176583D01*
X127115Y176537D01*
X127187Y176488D01*
X127257Y176436D01*
X127325Y176380D01*
X127390Y176322D01*
X127453Y176261D01*
X127512Y176197D01*
X127569Y176130D01*
X127623Y176062D01*
X127674Y175990D01*
X127721Y175917D01*
X127766Y175842D01*
X127807Y175764D01*
X127844Y175685D01*
X127878Y175605D01*
X127908Y175523D01*
X127935Y175440D01*
X127958Y175355D01*
X127977Y175270D01*
X127992Y175184D01*
X128004Y175097D01*
X128012Y175010D01*
X128016Y174923D01*
X128016Y174835D01*
X128012Y174748D01*
X128004Y174661D01*
X127992Y174574D01*
X127977Y174488D01*
X127958Y174403D01*
X127935Y174318D01*
X127908Y174235D01*
X127878Y174153D01*
X127844Y174073D01*
X127807Y173994D01*
X127766Y173916D01*
X127721Y173841D01*
X127674Y173768D01*
X127623Y173696D01*
X127569Y173628D01*
X127512Y173561D01*
X127453Y173497D01*
X127390Y173436D01*
X127325Y173378D01*
X127257Y173322D01*
X127187Y173270D01*
X127115Y173221D01*
X127041Y173175D01*
X126964Y173132D01*
X126886Y173093D01*
X126806Y173058D01*
X126725Y173026D01*
X126642Y172997D01*
X126558Y172972D01*
X126474Y172951D01*
X126388Y172934D01*
X126302Y172920D01*
X126215Y172911D01*
X126127Y172905D01*
X126040Y172903D01*
X124065Y172903D01*
X123955Y172905D01*
X123845Y172911D01*
X123735Y172920D01*
X123625Y172934D01*
X123516Y172951D01*
X123408Y172972D01*
X123300Y172997D01*
X123194Y173025D01*
X123088Y173058D01*
X122984Y173094D01*
X122881Y173133D01*
X122779Y173176D01*
X122679Y173223D01*
X122581Y173273D01*
X122485Y173326D01*
X122390Y173383D01*
X122297Y173443D01*
X122207Y173507D01*
X122119Y173573D01*
X122033Y173643D01*
X121950Y173715D01*
X121869Y173790D01*
X121791Y173868D01*
X121716Y173949D01*
X121644Y174032D01*
X121574Y174118D01*
X121508Y174206D01*
X121444Y174296D01*
X121384Y174389D01*
X121328Y174483D01*
X121274Y174580D01*
X121224Y174678D01*
X121177Y174778D01*
X121134Y174880D01*
X121095Y174983D01*
X121059Y175087D01*
X121026Y175193D01*
X120998Y175299D01*
X120973Y175407D01*
X120952Y175515D01*
X120935Y175624D01*
X120921Y175734D01*
X120912Y175843D01*
X120906Y175954D01*
X120904Y176064D01*
X120904Y142621D02*
X122484Y140645D01*
X120904Y142621D02*
X128016Y142621D01*
X128016Y140645D02*
X128016Y144597D01*
X128016Y147503D02*
X128016Y149874D01*
X128014Y149952D01*
X128008Y150029D01*
X127999Y150106D01*
X127986Y150182D01*
X127969Y150258D01*
X127948Y150333D01*
X127924Y150406D01*
X127896Y150479D01*
X127864Y150550D01*
X127829Y150619D01*
X127791Y150686D01*
X127750Y150752D01*
X127705Y150815D01*
X127657Y150876D01*
X127607Y150935D01*
X127553Y150991D01*
X127497Y151045D01*
X127438Y151095D01*
X127377Y151143D01*
X127314Y151188D01*
X127248Y151229D01*
X127181Y151267D01*
X127112Y151302D01*
X127041Y151334D01*
X126968Y151362D01*
X126895Y151386D01*
X126820Y151407D01*
X126744Y151424D01*
X126668Y151437D01*
X126591Y151446D01*
X126514Y151452D01*
X126436Y151454D01*
X126436Y151455D02*
X125645Y151455D01*
X125645Y151454D02*
X125567Y151452D01*
X125490Y151446D01*
X125413Y151437D01*
X125337Y151424D01*
X125261Y151407D01*
X125186Y151386D01*
X125113Y151362D01*
X125040Y151334D01*
X124969Y151302D01*
X124900Y151267D01*
X124833Y151229D01*
X124767Y151188D01*
X124704Y151143D01*
X124643Y151095D01*
X124584Y151045D01*
X124528Y150991D01*
X124474Y150935D01*
X124424Y150876D01*
X124376Y150815D01*
X124331Y150752D01*
X124290Y150686D01*
X124252Y150619D01*
X124217Y150550D01*
X124185Y150479D01*
X124157Y150406D01*
X124133Y150333D01*
X124112Y150258D01*
X124095Y150182D01*
X124082Y150106D01*
X124073Y150029D01*
X124067Y149952D01*
X124065Y149874D01*
X124065Y147503D01*
X120904Y147503D01*
X120904Y151455D01*
X120904Y117221D02*
X122484Y115245D01*
X120904Y117221D02*
X128016Y117221D01*
X128016Y115245D02*
X128016Y119197D01*
X126436Y122103D02*
X120904Y123684D01*
X126436Y122103D02*
X126436Y126055D01*
X128016Y124869D02*
X124855Y124869D01*
X128016Y91821D02*
X128016Y89845D01*
X128016Y91821D02*
X128014Y91908D01*
X128008Y91996D01*
X127999Y92083D01*
X127985Y92169D01*
X127968Y92255D01*
X127947Y92339D01*
X127922Y92423D01*
X127893Y92506D01*
X127861Y92587D01*
X127826Y92667D01*
X127787Y92745D01*
X127744Y92822D01*
X127698Y92896D01*
X127649Y92968D01*
X127597Y93038D01*
X127541Y93106D01*
X127483Y93171D01*
X127422Y93234D01*
X127358Y93293D01*
X127291Y93350D01*
X127223Y93404D01*
X127151Y93455D01*
X127078Y93502D01*
X127003Y93547D01*
X126925Y93588D01*
X126846Y93625D01*
X126766Y93659D01*
X126684Y93689D01*
X126601Y93716D01*
X126516Y93739D01*
X126431Y93758D01*
X126345Y93773D01*
X126258Y93785D01*
X126171Y93793D01*
X126084Y93797D01*
X125996Y93797D01*
X125909Y93793D01*
X125822Y93785D01*
X125735Y93773D01*
X125649Y93758D01*
X125564Y93739D01*
X125479Y93716D01*
X125396Y93689D01*
X125314Y93659D01*
X125234Y93625D01*
X125155Y93588D01*
X125077Y93547D01*
X125002Y93502D01*
X124929Y93455D01*
X124857Y93404D01*
X124789Y93350D01*
X124722Y93293D01*
X124658Y93234D01*
X124597Y93171D01*
X124539Y93106D01*
X124483Y93038D01*
X124431Y92968D01*
X124382Y92896D01*
X124336Y92822D01*
X124293Y92745D01*
X124254Y92667D01*
X124219Y92587D01*
X124187Y92506D01*
X124158Y92423D01*
X124133Y92339D01*
X124112Y92255D01*
X124095Y92169D01*
X124081Y92083D01*
X124072Y91996D01*
X124066Y91908D01*
X124064Y91821D01*
X120904Y92216D02*
X120904Y89845D01*
X120904Y92216D02*
X120906Y92295D01*
X120912Y92373D01*
X120922Y92451D01*
X120935Y92529D01*
X120953Y92606D01*
X120974Y92682D01*
X120999Y92756D01*
X121028Y92830D01*
X121060Y92902D01*
X121096Y92972D01*
X121136Y93040D01*
X121179Y93106D01*
X121225Y93170D01*
X121274Y93232D01*
X121326Y93291D01*
X121381Y93347D01*
X121439Y93401D01*
X121499Y93451D01*
X121562Y93499D01*
X121627Y93543D01*
X121694Y93584D01*
X121763Y93622D01*
X121834Y93656D01*
X121907Y93687D01*
X121981Y93714D01*
X122056Y93737D01*
X122132Y93756D01*
X122210Y93772D01*
X122288Y93784D01*
X122366Y93792D01*
X122445Y93796D01*
X122523Y93796D01*
X122602Y93792D01*
X122680Y93784D01*
X122758Y93772D01*
X122836Y93756D01*
X122912Y93737D01*
X122987Y93714D01*
X123061Y93687D01*
X123134Y93656D01*
X123205Y93622D01*
X123274Y93584D01*
X123341Y93543D01*
X123406Y93499D01*
X123469Y93451D01*
X123529Y93401D01*
X123587Y93347D01*
X123642Y93291D01*
X123694Y93232D01*
X123743Y93170D01*
X123789Y93106D01*
X123832Y93040D01*
X123872Y92972D01*
X123908Y92902D01*
X123940Y92830D01*
X123969Y92756D01*
X123994Y92682D01*
X124015Y92606D01*
X124033Y92529D01*
X124046Y92451D01*
X124056Y92373D01*
X124062Y92295D01*
X124064Y92216D01*
X124065Y92216D02*
X124065Y90636D01*
X120904Y98877D02*
X120906Y98959D01*
X120912Y99041D01*
X120921Y99123D01*
X120934Y99204D01*
X120951Y99284D01*
X120972Y99364D01*
X120996Y99442D01*
X121024Y99519D01*
X121055Y99595D01*
X121090Y99670D01*
X121129Y99742D01*
X121170Y99813D01*
X121215Y99882D01*
X121263Y99948D01*
X121314Y100013D01*
X121368Y100075D01*
X121425Y100134D01*
X121484Y100191D01*
X121546Y100245D01*
X121611Y100296D01*
X121677Y100344D01*
X121746Y100389D01*
X121817Y100430D01*
X121889Y100469D01*
X121964Y100504D01*
X122040Y100535D01*
X122117Y100563D01*
X122195Y100587D01*
X122275Y100608D01*
X122355Y100625D01*
X122436Y100638D01*
X122518Y100647D01*
X122600Y100653D01*
X122682Y100655D01*
X120904Y98877D02*
X120906Y98784D01*
X120912Y98692D01*
X120921Y98600D01*
X120934Y98508D01*
X120951Y98417D01*
X120971Y98327D01*
X120995Y98237D01*
X121023Y98149D01*
X121055Y98061D01*
X121089Y97976D01*
X121128Y97891D01*
X121169Y97809D01*
X121214Y97728D01*
X121263Y97648D01*
X121314Y97571D01*
X121368Y97496D01*
X121426Y97424D01*
X121486Y97353D01*
X121550Y97286D01*
X121615Y97221D01*
X121684Y97158D01*
X121755Y97099D01*
X121828Y97042D01*
X121904Y96988D01*
X121981Y96938D01*
X122061Y96890D01*
X122143Y96846D01*
X122226Y96806D01*
X122311Y96768D01*
X122397Y96734D01*
X122484Y96704D01*
X124065Y100062D02*
X124004Y100123D01*
X123941Y100181D01*
X123875Y100236D01*
X123807Y100289D01*
X123736Y100338D01*
X123664Y100383D01*
X123589Y100426D01*
X123513Y100465D01*
X123434Y100501D01*
X123355Y100533D01*
X123274Y100561D01*
X123191Y100586D01*
X123108Y100607D01*
X123024Y100624D01*
X122939Y100638D01*
X122854Y100647D01*
X122768Y100653D01*
X122682Y100655D01*
X124065Y100062D02*
X128016Y96703D01*
X128016Y100655D01*
X21844Y108458D02*
X21844Y110434D01*
X21844Y108458D02*
X21846Y108371D01*
X21852Y108283D01*
X21861Y108196D01*
X21875Y108110D01*
X21892Y108024D01*
X21913Y107940D01*
X21938Y107856D01*
X21967Y107773D01*
X21999Y107692D01*
X22034Y107612D01*
X22073Y107534D01*
X22116Y107457D01*
X22162Y107383D01*
X22211Y107311D01*
X22263Y107241D01*
X22319Y107173D01*
X22377Y107108D01*
X22438Y107045D01*
X22502Y106986D01*
X22569Y106929D01*
X22637Y106875D01*
X22709Y106824D01*
X22782Y106777D01*
X22857Y106732D01*
X22935Y106691D01*
X23014Y106654D01*
X23094Y106620D01*
X23176Y106590D01*
X23259Y106563D01*
X23344Y106540D01*
X23429Y106521D01*
X23515Y106506D01*
X23602Y106494D01*
X23689Y106486D01*
X23776Y106482D01*
X23864Y106482D01*
X23951Y106486D01*
X24038Y106494D01*
X24125Y106506D01*
X24211Y106521D01*
X24296Y106540D01*
X24381Y106563D01*
X24464Y106590D01*
X24546Y106620D01*
X24626Y106654D01*
X24705Y106691D01*
X24783Y106732D01*
X24858Y106777D01*
X24931Y106824D01*
X25003Y106875D01*
X25071Y106929D01*
X25138Y106986D01*
X25202Y107045D01*
X25263Y107108D01*
X25321Y107173D01*
X25377Y107241D01*
X25429Y107311D01*
X25478Y107383D01*
X25524Y107457D01*
X25567Y107534D01*
X25606Y107612D01*
X25641Y107692D01*
X25673Y107773D01*
X25702Y107856D01*
X25727Y107940D01*
X25748Y108024D01*
X25765Y108110D01*
X25779Y108196D01*
X25788Y108283D01*
X25794Y108371D01*
X25796Y108458D01*
X28956Y108063D02*
X28956Y110434D01*
X28956Y108063D02*
X28954Y107984D01*
X28948Y107906D01*
X28938Y107828D01*
X28925Y107750D01*
X28907Y107673D01*
X28886Y107597D01*
X28861Y107523D01*
X28832Y107449D01*
X28800Y107377D01*
X28764Y107307D01*
X28724Y107239D01*
X28681Y107173D01*
X28635Y107109D01*
X28586Y107047D01*
X28534Y106988D01*
X28479Y106932D01*
X28421Y106878D01*
X28361Y106828D01*
X28298Y106780D01*
X28233Y106736D01*
X28166Y106695D01*
X28097Y106657D01*
X28026Y106623D01*
X27953Y106592D01*
X27879Y106565D01*
X27804Y106542D01*
X27728Y106523D01*
X27650Y106507D01*
X27572Y106495D01*
X27494Y106487D01*
X27415Y106483D01*
X27337Y106483D01*
X27258Y106487D01*
X27180Y106495D01*
X27102Y106507D01*
X27024Y106523D01*
X26948Y106542D01*
X26873Y106565D01*
X26799Y106592D01*
X26726Y106623D01*
X26655Y106657D01*
X26586Y106695D01*
X26519Y106736D01*
X26454Y106780D01*
X26391Y106828D01*
X26331Y106878D01*
X26273Y106932D01*
X26218Y106988D01*
X26166Y107047D01*
X26117Y107109D01*
X26071Y107173D01*
X26028Y107239D01*
X25988Y107307D01*
X25952Y107377D01*
X25920Y107449D01*
X25891Y107523D01*
X25866Y107597D01*
X25845Y107673D01*
X25827Y107750D01*
X25814Y107828D01*
X25804Y107906D01*
X25798Y107984D01*
X25796Y108063D01*
X25795Y108063D02*
X25795Y109643D01*
X28956Y103971D02*
X21844Y101600D01*
X28956Y99229D01*
X21844Y96718D02*
X21844Y94742D01*
X21846Y94655D01*
X21852Y94567D01*
X21861Y94480D01*
X21875Y94394D01*
X21892Y94308D01*
X21913Y94224D01*
X21938Y94140D01*
X21967Y94057D01*
X21999Y93976D01*
X22034Y93896D01*
X22073Y93818D01*
X22116Y93741D01*
X22162Y93667D01*
X22211Y93595D01*
X22263Y93525D01*
X22319Y93457D01*
X22377Y93392D01*
X22438Y93329D01*
X22502Y93270D01*
X22569Y93213D01*
X22637Y93159D01*
X22709Y93108D01*
X22782Y93061D01*
X22857Y93016D01*
X22935Y92975D01*
X23014Y92938D01*
X23094Y92904D01*
X23176Y92874D01*
X23259Y92847D01*
X23344Y92824D01*
X23429Y92805D01*
X23515Y92790D01*
X23602Y92778D01*
X23689Y92770D01*
X23776Y92766D01*
X23864Y92766D01*
X23951Y92770D01*
X24038Y92778D01*
X24125Y92790D01*
X24211Y92805D01*
X24296Y92824D01*
X24381Y92847D01*
X24464Y92874D01*
X24546Y92904D01*
X24626Y92938D01*
X24705Y92975D01*
X24783Y93016D01*
X24858Y93061D01*
X24931Y93108D01*
X25003Y93159D01*
X25071Y93213D01*
X25138Y93270D01*
X25202Y93329D01*
X25263Y93392D01*
X25321Y93457D01*
X25377Y93525D01*
X25429Y93595D01*
X25478Y93667D01*
X25524Y93741D01*
X25567Y93818D01*
X25606Y93896D01*
X25641Y93976D01*
X25673Y94057D01*
X25702Y94140D01*
X25727Y94224D01*
X25748Y94308D01*
X25765Y94394D01*
X25779Y94480D01*
X25788Y94567D01*
X25794Y94655D01*
X25796Y94742D01*
X28956Y94347D02*
X28956Y96718D01*
X28956Y94347D02*
X28954Y94268D01*
X28948Y94190D01*
X28938Y94112D01*
X28925Y94034D01*
X28907Y93957D01*
X28886Y93881D01*
X28861Y93807D01*
X28832Y93733D01*
X28800Y93661D01*
X28764Y93591D01*
X28724Y93523D01*
X28681Y93457D01*
X28635Y93393D01*
X28586Y93331D01*
X28534Y93272D01*
X28479Y93216D01*
X28421Y93162D01*
X28361Y93112D01*
X28298Y93064D01*
X28233Y93020D01*
X28166Y92979D01*
X28097Y92941D01*
X28026Y92907D01*
X27953Y92876D01*
X27879Y92849D01*
X27804Y92826D01*
X27728Y92807D01*
X27650Y92791D01*
X27572Y92779D01*
X27494Y92771D01*
X27415Y92767D01*
X27337Y92767D01*
X27258Y92771D01*
X27180Y92779D01*
X27102Y92791D01*
X27024Y92807D01*
X26948Y92826D01*
X26873Y92849D01*
X26799Y92876D01*
X26726Y92907D01*
X26655Y92941D01*
X26586Y92979D01*
X26519Y93020D01*
X26454Y93064D01*
X26391Y93112D01*
X26331Y93162D01*
X26273Y93216D01*
X26218Y93272D01*
X26166Y93331D01*
X26117Y93393D01*
X26071Y93457D01*
X26028Y93523D01*
X25988Y93591D01*
X25952Y93661D01*
X25920Y93733D01*
X25891Y93807D01*
X25866Y93881D01*
X25845Y93957D01*
X25827Y94034D01*
X25814Y94112D01*
X25804Y94190D01*
X25798Y94268D01*
X25796Y94347D01*
X25795Y94347D02*
X25795Y95927D01*
X63231Y115570D02*
X63233Y115701D01*
X63238Y115831D01*
X63248Y115961D01*
X63261Y116091D01*
X63277Y116221D01*
X63297Y116350D01*
X63321Y116478D01*
X63349Y116605D01*
X63380Y116732D01*
X63415Y116858D01*
X63453Y116983D01*
X63495Y117107D01*
X63540Y117229D01*
X63589Y117350D01*
X63641Y117470D01*
X63697Y117588D01*
X63696Y117588D02*
X63719Y117648D01*
X63745Y117708D01*
X63774Y117765D01*
X63807Y117821D01*
X63843Y117875D01*
X63881Y117927D01*
X63923Y117977D01*
X63967Y118024D01*
X64014Y118069D01*
X64064Y118111D01*
X64115Y118150D01*
X64169Y118186D01*
X64225Y118219D01*
X64282Y118249D01*
X64341Y118276D01*
X64402Y118299D01*
X64463Y118319D01*
X64526Y118335D01*
X64590Y118348D01*
X64654Y118357D01*
X64718Y118362D01*
X64783Y118364D01*
X64848Y118362D01*
X64912Y118357D01*
X64976Y118348D01*
X65040Y118335D01*
X65103Y118319D01*
X65164Y118299D01*
X65225Y118276D01*
X65284Y118249D01*
X65341Y118219D01*
X65397Y118186D01*
X65451Y118150D01*
X65502Y118111D01*
X65552Y118069D01*
X65599Y118024D01*
X65643Y117977D01*
X65685Y117927D01*
X65723Y117875D01*
X65759Y117821D01*
X65792Y117765D01*
X65821Y117708D01*
X65847Y117648D01*
X65870Y117588D01*
X65926Y117470D01*
X65978Y117350D01*
X66027Y117229D01*
X66072Y117107D01*
X66114Y116983D01*
X66152Y116858D01*
X66187Y116732D01*
X66218Y116606D01*
X66246Y116478D01*
X66270Y116350D01*
X66290Y116221D01*
X66306Y116091D01*
X66319Y115961D01*
X66329Y115831D01*
X66334Y115701D01*
X66336Y115570D01*
X63231Y115570D02*
X63233Y115439D01*
X63238Y115309D01*
X63248Y115179D01*
X63261Y115049D01*
X63277Y114919D01*
X63297Y114790D01*
X63321Y114662D01*
X63349Y114535D01*
X63380Y114408D01*
X63415Y114282D01*
X63453Y114157D01*
X63495Y114033D01*
X63540Y113911D01*
X63589Y113790D01*
X63641Y113670D01*
X63697Y113552D01*
X63696Y113552D02*
X63719Y113492D01*
X63745Y113432D01*
X63774Y113375D01*
X63807Y113319D01*
X63843Y113265D01*
X63881Y113213D01*
X63923Y113163D01*
X63967Y113116D01*
X64014Y113071D01*
X64064Y113029D01*
X64115Y112990D01*
X64169Y112954D01*
X64225Y112921D01*
X64282Y112891D01*
X64341Y112864D01*
X64402Y112841D01*
X64463Y112821D01*
X64526Y112805D01*
X64590Y112792D01*
X64654Y112783D01*
X64718Y112778D01*
X64783Y112776D01*
X65869Y113552D02*
X65925Y113670D01*
X65977Y113790D01*
X66026Y113911D01*
X66071Y114033D01*
X66113Y114157D01*
X66151Y114282D01*
X66186Y114408D01*
X66217Y114534D01*
X66245Y114662D01*
X66269Y114790D01*
X66289Y114919D01*
X66305Y115049D01*
X66318Y115179D01*
X66328Y115309D01*
X66333Y115439D01*
X66335Y115570D01*
X65870Y113552D02*
X65847Y113492D01*
X65821Y113432D01*
X65792Y113375D01*
X65759Y113319D01*
X65723Y113265D01*
X65685Y113213D01*
X65643Y113163D01*
X65599Y113116D01*
X65552Y113071D01*
X65502Y113029D01*
X65451Y112990D01*
X65397Y112954D01*
X65341Y112921D01*
X65284Y112891D01*
X65225Y112864D01*
X65164Y112841D01*
X65103Y112821D01*
X65040Y112805D01*
X64976Y112792D01*
X64912Y112783D01*
X64848Y112778D01*
X64783Y112776D01*
X63541Y114018D02*
X66025Y117122D01*
X68468Y113086D02*
X68468Y112776D01*
X68468Y113086D02*
X68779Y113086D01*
X68779Y112776D01*
X68468Y112776D01*
X70912Y117122D02*
X72464Y118364D01*
X72464Y112776D01*
X70912Y112776D02*
X74016Y112776D01*
X76526Y113707D02*
X76526Y116501D01*
X76526Y113707D02*
X76528Y113649D01*
X76533Y113590D01*
X76542Y113533D01*
X76555Y113475D01*
X76572Y113419D01*
X76591Y113364D01*
X76615Y113311D01*
X76641Y113258D01*
X76671Y113208D01*
X76704Y113160D01*
X76740Y113114D01*
X76778Y113070D01*
X76820Y113028D01*
X76864Y112990D01*
X76910Y112954D01*
X76958Y112921D01*
X77008Y112891D01*
X77061Y112865D01*
X77114Y112841D01*
X77169Y112822D01*
X77225Y112805D01*
X77283Y112792D01*
X77340Y112783D01*
X77399Y112778D01*
X77457Y112776D01*
X79009Y112776D01*
X79009Y116501D01*
X40001Y95631D02*
X39999Y95704D01*
X39993Y95777D01*
X39984Y95850D01*
X39970Y95921D01*
X39953Y95993D01*
X39933Y96063D01*
X39908Y96132D01*
X39880Y96199D01*
X39849Y96265D01*
X39814Y96330D01*
X39776Y96392D01*
X39734Y96452D01*
X39690Y96510D01*
X39642Y96566D01*
X39592Y96619D01*
X39539Y96669D01*
X39483Y96717D01*
X39425Y96761D01*
X39365Y96803D01*
X39303Y96841D01*
X39238Y96876D01*
X39172Y96907D01*
X39105Y96935D01*
X39036Y96960D01*
X38966Y96980D01*
X38894Y96997D01*
X38823Y97011D01*
X38750Y97020D01*
X38677Y97026D01*
X38604Y97028D01*
X38520Y97026D01*
X38437Y97020D01*
X38354Y97011D01*
X38272Y96997D01*
X38190Y96980D01*
X38109Y96958D01*
X38029Y96933D01*
X37951Y96905D01*
X37873Y96873D01*
X37798Y96837D01*
X37724Y96798D01*
X37652Y96755D01*
X37582Y96709D01*
X37515Y96660D01*
X37449Y96607D01*
X37387Y96552D01*
X37327Y96494D01*
X37269Y96433D01*
X37215Y96370D01*
X37163Y96304D01*
X37115Y96236D01*
X37070Y96165D01*
X37028Y96093D01*
X36990Y96018D01*
X36955Y95942D01*
X36924Y95865D01*
X36896Y95786D01*
X39534Y94545D02*
X39588Y94598D01*
X39639Y94655D01*
X39687Y94714D01*
X39732Y94775D01*
X39773Y94838D01*
X39812Y94904D01*
X39847Y94971D01*
X39879Y95040D01*
X39907Y95111D01*
X39931Y95182D01*
X39952Y95255D01*
X39969Y95329D01*
X39983Y95404D01*
X39992Y95479D01*
X39998Y95555D01*
X40000Y95631D01*
X39535Y94544D02*
X36896Y91440D01*
X40001Y91440D01*
X45487Y95631D02*
X45485Y95704D01*
X45479Y95777D01*
X45470Y95850D01*
X45456Y95921D01*
X45439Y95993D01*
X45419Y96063D01*
X45394Y96132D01*
X45366Y96199D01*
X45335Y96265D01*
X45300Y96330D01*
X45262Y96392D01*
X45220Y96452D01*
X45176Y96510D01*
X45128Y96566D01*
X45078Y96619D01*
X45025Y96669D01*
X44969Y96717D01*
X44911Y96761D01*
X44851Y96803D01*
X44789Y96841D01*
X44724Y96876D01*
X44658Y96907D01*
X44591Y96935D01*
X44522Y96960D01*
X44452Y96980D01*
X44380Y96997D01*
X44309Y97011D01*
X44236Y97020D01*
X44163Y97026D01*
X44090Y97028D01*
X44006Y97026D01*
X43923Y97020D01*
X43840Y97011D01*
X43758Y96997D01*
X43676Y96980D01*
X43595Y96958D01*
X43515Y96933D01*
X43437Y96905D01*
X43359Y96873D01*
X43284Y96837D01*
X43210Y96798D01*
X43138Y96755D01*
X43068Y96709D01*
X43001Y96660D01*
X42935Y96607D01*
X42873Y96552D01*
X42813Y96494D01*
X42755Y96433D01*
X42701Y96370D01*
X42649Y96304D01*
X42601Y96236D01*
X42556Y96165D01*
X42514Y96093D01*
X42476Y96018D01*
X42441Y95942D01*
X42410Y95865D01*
X42382Y95786D01*
X45020Y94545D02*
X45074Y94598D01*
X45125Y94655D01*
X45173Y94714D01*
X45218Y94775D01*
X45259Y94838D01*
X45298Y94904D01*
X45333Y94971D01*
X45365Y95040D01*
X45393Y95111D01*
X45417Y95182D01*
X45438Y95255D01*
X45455Y95329D01*
X45469Y95404D01*
X45478Y95479D01*
X45484Y95555D01*
X45486Y95631D01*
X45021Y94544D02*
X42382Y91440D01*
X45487Y91440D01*
X47996Y92371D02*
X47996Y95165D01*
X47997Y92371D02*
X47999Y92313D01*
X48004Y92254D01*
X48013Y92197D01*
X48026Y92139D01*
X48043Y92083D01*
X48062Y92028D01*
X48086Y91975D01*
X48112Y91922D01*
X48142Y91872D01*
X48175Y91824D01*
X48211Y91778D01*
X48249Y91734D01*
X48291Y91692D01*
X48335Y91654D01*
X48381Y91618D01*
X48429Y91585D01*
X48479Y91555D01*
X48532Y91529D01*
X48585Y91505D01*
X48640Y91486D01*
X48696Y91469D01*
X48754Y91456D01*
X48811Y91447D01*
X48870Y91442D01*
X48928Y91440D01*
X50480Y91440D01*
X50480Y95165D01*
X111506Y112110D02*
X111506Y113973D01*
X111506Y112110D02*
X111508Y112040D01*
X111514Y111971D01*
X111524Y111902D01*
X111537Y111834D01*
X111555Y111766D01*
X111576Y111700D01*
X111601Y111635D01*
X111629Y111571D01*
X111661Y111509D01*
X111696Y111449D01*
X111735Y111391D01*
X111777Y111336D01*
X111822Y111282D01*
X111870Y111232D01*
X111920Y111184D01*
X111974Y111139D01*
X112029Y111097D01*
X112087Y111058D01*
X112147Y111023D01*
X112209Y110991D01*
X112273Y110963D01*
X112338Y110938D01*
X112404Y110917D01*
X112472Y110899D01*
X112540Y110886D01*
X112609Y110876D01*
X112678Y110870D01*
X112748Y110868D01*
X113369Y110868D01*
X113439Y110870D01*
X113508Y110876D01*
X113577Y110886D01*
X113645Y110899D01*
X113713Y110917D01*
X113779Y110938D01*
X113844Y110963D01*
X113908Y110991D01*
X113970Y111023D01*
X114030Y111058D01*
X114088Y111097D01*
X114143Y111139D01*
X114197Y111184D01*
X114247Y111232D01*
X114295Y111282D01*
X114340Y111336D01*
X114382Y111391D01*
X114421Y111449D01*
X114456Y111509D01*
X114488Y111571D01*
X114516Y111635D01*
X114541Y111700D01*
X114562Y111766D01*
X114580Y111834D01*
X114593Y111902D01*
X114603Y111971D01*
X114609Y112040D01*
X114611Y112110D01*
X114610Y112110D02*
X114610Y113973D01*
X117094Y113973D01*
X117094Y110868D01*
X117094Y108220D02*
X111506Y108220D01*
X113679Y108220D02*
X117094Y105116D01*
X114921Y106979D02*
X111506Y105116D01*
X115852Y103000D02*
X117094Y101448D01*
X111506Y101448D01*
X111506Y103000D02*
X111506Y99895D01*
X66745Y104634D02*
X66689Y104516D01*
X66637Y104396D01*
X66588Y104275D01*
X66543Y104153D01*
X66501Y104029D01*
X66463Y103904D01*
X66428Y103778D01*
X66397Y103651D01*
X66369Y103524D01*
X66345Y103396D01*
X66325Y103267D01*
X66309Y103137D01*
X66296Y103007D01*
X66286Y102877D01*
X66281Y102747D01*
X66279Y102616D01*
X66744Y104634D02*
X66767Y104694D01*
X66793Y104754D01*
X66822Y104811D01*
X66855Y104867D01*
X66891Y104921D01*
X66929Y104973D01*
X66971Y105023D01*
X67015Y105070D01*
X67062Y105115D01*
X67112Y105157D01*
X67163Y105196D01*
X67217Y105232D01*
X67273Y105265D01*
X67330Y105295D01*
X67389Y105322D01*
X67450Y105345D01*
X67511Y105365D01*
X67574Y105381D01*
X67638Y105394D01*
X67702Y105403D01*
X67766Y105408D01*
X67831Y105410D01*
X67896Y105408D01*
X67960Y105403D01*
X68024Y105394D01*
X68088Y105381D01*
X68151Y105365D01*
X68212Y105345D01*
X68273Y105322D01*
X68332Y105295D01*
X68389Y105265D01*
X68445Y105232D01*
X68499Y105196D01*
X68550Y105157D01*
X68600Y105115D01*
X68647Y105070D01*
X68691Y105023D01*
X68733Y104973D01*
X68771Y104921D01*
X68807Y104867D01*
X68840Y104811D01*
X68869Y104754D01*
X68895Y104694D01*
X68918Y104634D01*
X68974Y104516D01*
X69026Y104396D01*
X69075Y104275D01*
X69120Y104153D01*
X69162Y104029D01*
X69200Y103904D01*
X69235Y103778D01*
X69266Y103652D01*
X69294Y103524D01*
X69318Y103396D01*
X69338Y103267D01*
X69354Y103137D01*
X69367Y103007D01*
X69377Y102877D01*
X69382Y102747D01*
X69384Y102616D01*
X66279Y102616D02*
X66281Y102485D01*
X66286Y102355D01*
X66296Y102225D01*
X66309Y102095D01*
X66325Y101965D01*
X66345Y101836D01*
X66369Y101708D01*
X66397Y101581D01*
X66428Y101454D01*
X66463Y101328D01*
X66501Y101203D01*
X66543Y101079D01*
X66588Y100957D01*
X66637Y100836D01*
X66689Y100716D01*
X66745Y100598D01*
X66744Y100598D02*
X66767Y100538D01*
X66793Y100478D01*
X66822Y100421D01*
X66855Y100365D01*
X66891Y100311D01*
X66929Y100259D01*
X66971Y100209D01*
X67015Y100162D01*
X67062Y100117D01*
X67112Y100075D01*
X67163Y100036D01*
X67217Y100000D01*
X67273Y99967D01*
X67330Y99937D01*
X67389Y99910D01*
X67450Y99887D01*
X67511Y99867D01*
X67574Y99851D01*
X67638Y99838D01*
X67702Y99829D01*
X67766Y99824D01*
X67831Y99822D01*
X68917Y100598D02*
X68973Y100716D01*
X69025Y100836D01*
X69074Y100957D01*
X69119Y101079D01*
X69161Y101203D01*
X69199Y101328D01*
X69234Y101454D01*
X69265Y101580D01*
X69293Y101708D01*
X69317Y101836D01*
X69337Y101965D01*
X69353Y102095D01*
X69366Y102225D01*
X69376Y102355D01*
X69381Y102485D01*
X69383Y102616D01*
X68918Y100598D02*
X68895Y100538D01*
X68869Y100478D01*
X68840Y100421D01*
X68807Y100365D01*
X68771Y100311D01*
X68733Y100259D01*
X68691Y100209D01*
X68647Y100162D01*
X68600Y100117D01*
X68550Y100075D01*
X68499Y100036D01*
X68445Y100000D01*
X68389Y99967D01*
X68332Y99937D01*
X68273Y99910D01*
X68212Y99887D01*
X68151Y99867D01*
X68088Y99851D01*
X68024Y99838D01*
X67960Y99829D01*
X67896Y99824D01*
X67831Y99822D01*
X66589Y101064D02*
X69073Y104168D01*
X71516Y100132D02*
X71516Y99822D01*
X71516Y100132D02*
X71827Y100132D01*
X71827Y99822D01*
X71516Y99822D01*
X73960Y104168D02*
X75512Y105410D01*
X75512Y99822D01*
X73960Y99822D02*
X77064Y99822D01*
X79574Y100753D02*
X79574Y103547D01*
X79574Y100753D02*
X79576Y100695D01*
X79581Y100636D01*
X79590Y100579D01*
X79603Y100521D01*
X79620Y100465D01*
X79639Y100410D01*
X79663Y100357D01*
X79689Y100304D01*
X79719Y100254D01*
X79752Y100206D01*
X79788Y100160D01*
X79826Y100116D01*
X79868Y100074D01*
X79912Y100036D01*
X79958Y100000D01*
X80006Y99967D01*
X80056Y99937D01*
X80109Y99911D01*
X80162Y99887D01*
X80217Y99868D01*
X80273Y99851D01*
X80331Y99838D01*
X80388Y99829D01*
X80447Y99824D01*
X80505Y99822D01*
X82057Y99822D01*
X82057Y103547D01*
X110490Y93776D02*
X116078Y93776D01*
X116078Y91293D01*
X113594Y91293D02*
X113594Y93776D01*
X114215Y89088D02*
X111421Y89088D01*
X111363Y89086D01*
X111304Y89081D01*
X111247Y89072D01*
X111189Y89059D01*
X111133Y89042D01*
X111078Y89023D01*
X111025Y88999D01*
X110972Y88973D01*
X110922Y88943D01*
X110874Y88910D01*
X110828Y88874D01*
X110784Y88836D01*
X110742Y88794D01*
X110704Y88750D01*
X110668Y88704D01*
X110635Y88656D01*
X110605Y88606D01*
X110579Y88553D01*
X110555Y88500D01*
X110536Y88445D01*
X110519Y88389D01*
X110506Y88331D01*
X110497Y88274D01*
X110492Y88215D01*
X110490Y88157D01*
X110490Y86604D01*
X114215Y86604D01*
X112663Y83684D02*
X112042Y82132D01*
X112663Y83685D02*
X112685Y83736D01*
X112711Y83785D01*
X112740Y83833D01*
X112773Y83878D01*
X112809Y83921D01*
X112847Y83962D01*
X112889Y83999D01*
X112932Y84034D01*
X112978Y84066D01*
X113027Y84094D01*
X113077Y84119D01*
X113128Y84140D01*
X113181Y84158D01*
X113235Y84172D01*
X113290Y84182D01*
X113346Y84188D01*
X113401Y84191D01*
X113457Y84190D01*
X113513Y84184D01*
X113568Y84175D01*
X113622Y84163D01*
X113676Y84146D01*
X113728Y84126D01*
X113778Y84102D01*
X113827Y84075D01*
X113874Y84044D01*
X113918Y84010D01*
X113960Y83974D01*
X114000Y83934D01*
X114036Y83892D01*
X114070Y83847D01*
X114100Y83800D01*
X114127Y83752D01*
X114151Y83701D01*
X114171Y83649D01*
X114187Y83595D01*
X114200Y83541D01*
X114209Y83486D01*
X114214Y83430D01*
X114215Y83374D01*
X114216Y83374D02*
X114212Y83263D01*
X114206Y83152D01*
X114195Y83042D01*
X114181Y82932D01*
X114164Y82822D01*
X114144Y82713D01*
X114120Y82605D01*
X114092Y82498D01*
X114061Y82391D01*
X114027Y82286D01*
X113990Y82181D01*
X113949Y82078D01*
X113905Y81976D01*
X112042Y82132D02*
X112020Y82081D01*
X111994Y82032D01*
X111965Y81984D01*
X111932Y81939D01*
X111896Y81896D01*
X111858Y81855D01*
X111816Y81818D01*
X111773Y81783D01*
X111727Y81751D01*
X111678Y81723D01*
X111628Y81698D01*
X111577Y81677D01*
X111524Y81659D01*
X111470Y81645D01*
X111415Y81635D01*
X111359Y81629D01*
X111304Y81626D01*
X111248Y81627D01*
X111192Y81633D01*
X111137Y81642D01*
X111083Y81654D01*
X111029Y81671D01*
X110977Y81691D01*
X110927Y81715D01*
X110878Y81742D01*
X110831Y81773D01*
X110787Y81807D01*
X110745Y81843D01*
X110705Y81883D01*
X110669Y81925D01*
X110635Y81970D01*
X110605Y82017D01*
X110578Y82065D01*
X110554Y82116D01*
X110534Y82168D01*
X110518Y82222D01*
X110505Y82276D01*
X110496Y82331D01*
X110491Y82387D01*
X110490Y82443D01*
X110490Y82442D02*
X110493Y82576D01*
X110500Y82710D01*
X110511Y82844D01*
X110524Y82977D01*
X110542Y83110D01*
X110562Y83243D01*
X110586Y83375D01*
X110614Y83506D01*
X110644Y83637D01*
X110678Y83766D01*
X110716Y83895D01*
X110756Y84023D01*
X110800Y84150D01*
X110490Y78464D02*
X110490Y76912D01*
X110490Y78464D02*
X110492Y78522D01*
X110497Y78581D01*
X110506Y78638D01*
X110519Y78696D01*
X110536Y78752D01*
X110555Y78807D01*
X110579Y78860D01*
X110605Y78913D01*
X110635Y78963D01*
X110668Y79011D01*
X110704Y79057D01*
X110742Y79101D01*
X110784Y79143D01*
X110828Y79181D01*
X110874Y79217D01*
X110922Y79250D01*
X110972Y79280D01*
X111025Y79306D01*
X111078Y79330D01*
X111133Y79349D01*
X111189Y79366D01*
X111247Y79379D01*
X111304Y79388D01*
X111363Y79393D01*
X111421Y79395D01*
X112974Y79395D01*
X113044Y79393D01*
X113113Y79387D01*
X113182Y79377D01*
X113250Y79364D01*
X113318Y79346D01*
X113384Y79325D01*
X113449Y79300D01*
X113513Y79272D01*
X113575Y79240D01*
X113635Y79205D01*
X113693Y79166D01*
X113748Y79124D01*
X113802Y79079D01*
X113852Y79031D01*
X113900Y78981D01*
X113945Y78927D01*
X113987Y78872D01*
X114026Y78814D01*
X114061Y78754D01*
X114093Y78692D01*
X114121Y78628D01*
X114146Y78563D01*
X114167Y78497D01*
X114185Y78429D01*
X114198Y78361D01*
X114208Y78292D01*
X114214Y78223D01*
X114216Y78153D01*
X114214Y78083D01*
X114208Y78014D01*
X114198Y77945D01*
X114185Y77877D01*
X114167Y77809D01*
X114146Y77743D01*
X114121Y77678D01*
X114093Y77614D01*
X114061Y77552D01*
X114026Y77492D01*
X113987Y77434D01*
X113945Y77379D01*
X113900Y77325D01*
X113852Y77275D01*
X113802Y77227D01*
X113748Y77182D01*
X113693Y77140D01*
X113635Y77101D01*
X113575Y77066D01*
X113513Y77034D01*
X113449Y77006D01*
X113384Y76981D01*
X113318Y76960D01*
X113250Y76942D01*
X113182Y76929D01*
X113113Y76919D01*
X113044Y76913D01*
X112974Y76911D01*
X112974Y76912D02*
X112353Y76912D01*
X112353Y79395D01*
X111365Y241365D02*
X111365Y243341D01*
X111364Y243341D02*
X111366Y243428D01*
X111372Y243516D01*
X111381Y243603D01*
X111395Y243689D01*
X111412Y243775D01*
X111433Y243859D01*
X111458Y243943D01*
X111487Y244026D01*
X111519Y244107D01*
X111554Y244187D01*
X111593Y244265D01*
X111636Y244342D01*
X111682Y244416D01*
X111731Y244488D01*
X111783Y244558D01*
X111839Y244626D01*
X111897Y244691D01*
X111958Y244754D01*
X112022Y244813D01*
X112089Y244870D01*
X112157Y244924D01*
X112229Y244975D01*
X112302Y245022D01*
X112377Y245067D01*
X112455Y245108D01*
X112534Y245145D01*
X112614Y245179D01*
X112696Y245209D01*
X112779Y245236D01*
X112864Y245259D01*
X112949Y245278D01*
X113035Y245293D01*
X113122Y245305D01*
X113209Y245313D01*
X113296Y245317D01*
X113384Y245317D01*
X113471Y245313D01*
X113558Y245305D01*
X113645Y245293D01*
X113731Y245278D01*
X113816Y245259D01*
X113901Y245236D01*
X113984Y245209D01*
X114066Y245179D01*
X114146Y245145D01*
X114225Y245108D01*
X114303Y245067D01*
X114378Y245022D01*
X114451Y244975D01*
X114523Y244924D01*
X114591Y244870D01*
X114658Y244813D01*
X114722Y244754D01*
X114783Y244691D01*
X114841Y244626D01*
X114897Y244558D01*
X114949Y244488D01*
X114998Y244416D01*
X115044Y244342D01*
X115087Y244265D01*
X115126Y244187D01*
X115161Y244107D01*
X115193Y244026D01*
X115222Y243943D01*
X115247Y243859D01*
X115268Y243775D01*
X115285Y243689D01*
X115299Y243603D01*
X115308Y243516D01*
X115314Y243428D01*
X115316Y243341D01*
X115316Y241365D01*
X108204Y241365D01*
X108204Y243341D01*
X108206Y243420D01*
X108212Y243498D01*
X108222Y243576D01*
X108235Y243654D01*
X108253Y243731D01*
X108274Y243807D01*
X108299Y243881D01*
X108328Y243955D01*
X108360Y244027D01*
X108396Y244097D01*
X108436Y244165D01*
X108479Y244231D01*
X108525Y244295D01*
X108574Y244357D01*
X108626Y244416D01*
X108681Y244472D01*
X108739Y244526D01*
X108799Y244576D01*
X108862Y244624D01*
X108927Y244668D01*
X108994Y244709D01*
X109063Y244747D01*
X109134Y244781D01*
X109207Y244812D01*
X109281Y244839D01*
X109356Y244862D01*
X109432Y244881D01*
X109510Y244897D01*
X109588Y244909D01*
X109666Y244917D01*
X109745Y244921D01*
X109823Y244921D01*
X109902Y244917D01*
X109980Y244909D01*
X110058Y244897D01*
X110136Y244881D01*
X110212Y244862D01*
X110287Y244839D01*
X110361Y244812D01*
X110434Y244781D01*
X110505Y244747D01*
X110574Y244709D01*
X110641Y244668D01*
X110706Y244624D01*
X110769Y244576D01*
X110829Y244526D01*
X110887Y244472D01*
X110942Y244416D01*
X110994Y244357D01*
X111043Y244295D01*
X111089Y244231D01*
X111132Y244165D01*
X111172Y244097D01*
X111208Y244027D01*
X111240Y243955D01*
X111269Y243881D01*
X111294Y243807D01*
X111315Y243731D01*
X111333Y243654D01*
X111346Y243576D01*
X111356Y243498D01*
X111362Y243420D01*
X111364Y243341D01*
X110180Y247901D02*
X113340Y247901D01*
X110180Y247901D02*
X110093Y247903D01*
X110005Y247909D01*
X109918Y247918D01*
X109832Y247932D01*
X109746Y247949D01*
X109662Y247970D01*
X109578Y247995D01*
X109495Y248024D01*
X109414Y248056D01*
X109334Y248091D01*
X109256Y248130D01*
X109179Y248173D01*
X109105Y248219D01*
X109033Y248268D01*
X108963Y248320D01*
X108895Y248376D01*
X108830Y248434D01*
X108767Y248495D01*
X108708Y248559D01*
X108651Y248626D01*
X108597Y248694D01*
X108546Y248766D01*
X108499Y248839D01*
X108454Y248914D01*
X108413Y248992D01*
X108376Y249071D01*
X108342Y249151D01*
X108312Y249233D01*
X108285Y249316D01*
X108262Y249401D01*
X108243Y249486D01*
X108228Y249572D01*
X108216Y249659D01*
X108208Y249746D01*
X108204Y249833D01*
X108204Y249921D01*
X108208Y250008D01*
X108216Y250095D01*
X108228Y250182D01*
X108243Y250268D01*
X108262Y250353D01*
X108285Y250438D01*
X108312Y250521D01*
X108342Y250603D01*
X108376Y250683D01*
X108413Y250762D01*
X108454Y250840D01*
X108499Y250915D01*
X108546Y250988D01*
X108597Y251060D01*
X108651Y251128D01*
X108708Y251195D01*
X108767Y251259D01*
X108830Y251320D01*
X108895Y251378D01*
X108963Y251434D01*
X109033Y251486D01*
X109105Y251535D01*
X109179Y251581D01*
X109256Y251624D01*
X109334Y251663D01*
X109414Y251698D01*
X109495Y251730D01*
X109578Y251759D01*
X109662Y251784D01*
X109746Y251805D01*
X109832Y251822D01*
X109918Y251836D01*
X110005Y251845D01*
X110093Y251851D01*
X110180Y251853D01*
X110180Y251852D02*
X113340Y251852D01*
X113340Y251853D02*
X113427Y251851D01*
X113515Y251845D01*
X113602Y251836D01*
X113688Y251822D01*
X113774Y251805D01*
X113858Y251784D01*
X113942Y251759D01*
X114025Y251730D01*
X114106Y251698D01*
X114186Y251663D01*
X114264Y251624D01*
X114341Y251581D01*
X114415Y251535D01*
X114487Y251486D01*
X114557Y251434D01*
X114625Y251378D01*
X114690Y251320D01*
X114753Y251259D01*
X114812Y251195D01*
X114869Y251128D01*
X114923Y251060D01*
X114974Y250988D01*
X115021Y250915D01*
X115066Y250840D01*
X115107Y250762D01*
X115144Y250683D01*
X115178Y250603D01*
X115208Y250521D01*
X115235Y250438D01*
X115258Y250353D01*
X115277Y250268D01*
X115292Y250182D01*
X115304Y250095D01*
X115312Y250008D01*
X115316Y249921D01*
X115316Y249833D01*
X115312Y249746D01*
X115304Y249659D01*
X115292Y249572D01*
X115277Y249486D01*
X115258Y249401D01*
X115235Y249316D01*
X115208Y249233D01*
X115178Y249151D01*
X115144Y249071D01*
X115107Y248992D01*
X115066Y248914D01*
X115021Y248839D01*
X114974Y248766D01*
X114923Y248694D01*
X114869Y248626D01*
X114812Y248559D01*
X114753Y248495D01*
X114690Y248434D01*
X114625Y248376D01*
X114557Y248320D01*
X114487Y248268D01*
X114415Y248219D01*
X114341Y248173D01*
X114264Y248130D01*
X114186Y248091D01*
X114106Y248056D01*
X114025Y248024D01*
X113942Y247995D01*
X113858Y247970D01*
X113774Y247949D01*
X113688Y247932D01*
X113602Y247918D01*
X113515Y247909D01*
X113427Y247903D01*
X113340Y247901D01*
X113340Y254759D02*
X110180Y254759D01*
X110093Y254761D01*
X110005Y254767D01*
X109918Y254776D01*
X109832Y254790D01*
X109746Y254807D01*
X109662Y254828D01*
X109578Y254853D01*
X109495Y254882D01*
X109414Y254914D01*
X109334Y254949D01*
X109256Y254988D01*
X109179Y255031D01*
X109105Y255077D01*
X109033Y255126D01*
X108963Y255178D01*
X108895Y255234D01*
X108830Y255292D01*
X108767Y255353D01*
X108708Y255417D01*
X108651Y255484D01*
X108597Y255552D01*
X108546Y255624D01*
X108499Y255697D01*
X108454Y255772D01*
X108413Y255850D01*
X108376Y255929D01*
X108342Y256009D01*
X108312Y256091D01*
X108285Y256174D01*
X108262Y256259D01*
X108243Y256344D01*
X108228Y256430D01*
X108216Y256517D01*
X108208Y256604D01*
X108204Y256691D01*
X108204Y256779D01*
X108208Y256866D01*
X108216Y256953D01*
X108228Y257040D01*
X108243Y257126D01*
X108262Y257211D01*
X108285Y257296D01*
X108312Y257379D01*
X108342Y257461D01*
X108376Y257541D01*
X108413Y257620D01*
X108454Y257698D01*
X108499Y257773D01*
X108546Y257846D01*
X108597Y257918D01*
X108651Y257986D01*
X108708Y258053D01*
X108767Y258117D01*
X108830Y258178D01*
X108895Y258236D01*
X108963Y258292D01*
X109033Y258344D01*
X109105Y258393D01*
X109179Y258439D01*
X109256Y258482D01*
X109334Y258521D01*
X109414Y258556D01*
X109495Y258588D01*
X109578Y258617D01*
X109662Y258642D01*
X109746Y258663D01*
X109832Y258680D01*
X109918Y258694D01*
X110005Y258703D01*
X110093Y258709D01*
X110180Y258711D01*
X110180Y258710D02*
X113340Y258710D01*
X113340Y258711D02*
X113427Y258709D01*
X113515Y258703D01*
X113602Y258694D01*
X113688Y258680D01*
X113774Y258663D01*
X113858Y258642D01*
X113942Y258617D01*
X114025Y258588D01*
X114106Y258556D01*
X114186Y258521D01*
X114264Y258482D01*
X114341Y258439D01*
X114415Y258393D01*
X114487Y258344D01*
X114557Y258292D01*
X114625Y258236D01*
X114690Y258178D01*
X114753Y258117D01*
X114812Y258053D01*
X114869Y257986D01*
X114923Y257918D01*
X114974Y257846D01*
X115021Y257773D01*
X115066Y257698D01*
X115107Y257620D01*
X115144Y257541D01*
X115178Y257461D01*
X115208Y257379D01*
X115235Y257296D01*
X115258Y257211D01*
X115277Y257126D01*
X115292Y257040D01*
X115304Y256953D01*
X115312Y256866D01*
X115316Y256779D01*
X115316Y256691D01*
X115312Y256604D01*
X115304Y256517D01*
X115292Y256430D01*
X115277Y256344D01*
X115258Y256259D01*
X115235Y256174D01*
X115208Y256091D01*
X115178Y256009D01*
X115144Y255929D01*
X115107Y255850D01*
X115066Y255772D01*
X115021Y255697D01*
X114974Y255624D01*
X114923Y255552D01*
X114869Y255484D01*
X114812Y255417D01*
X114753Y255353D01*
X114690Y255292D01*
X114625Y255234D01*
X114557Y255178D01*
X114487Y255126D01*
X114415Y255077D01*
X114341Y255031D01*
X114264Y254988D01*
X114186Y254949D01*
X114106Y254914D01*
X114025Y254882D01*
X113942Y254853D01*
X113858Y254828D01*
X113774Y254807D01*
X113688Y254790D01*
X113602Y254776D01*
X113515Y254767D01*
X113427Y254761D01*
X113340Y254759D01*
X115316Y263135D02*
X108204Y263135D01*
X108204Y261160D02*
X108204Y265111D01*
X146050Y23927D02*
X146050Y22375D01*
X146050Y23927D02*
X146048Y24004D01*
X146042Y24082D01*
X146033Y24158D01*
X146019Y24235D01*
X146002Y24310D01*
X145981Y24384D01*
X145956Y24458D01*
X145928Y24530D01*
X145896Y24600D01*
X145861Y24669D01*
X145822Y24736D01*
X145780Y24801D01*
X145735Y24864D01*
X145687Y24925D01*
X145636Y24983D01*
X145582Y25038D01*
X145525Y25091D01*
X145466Y25140D01*
X145404Y25187D01*
X145340Y25231D01*
X145274Y25271D01*
X145206Y25308D01*
X145136Y25342D01*
X145065Y25372D01*
X144992Y25398D01*
X144918Y25421D01*
X144843Y25440D01*
X144768Y25455D01*
X144691Y25467D01*
X144614Y25475D01*
X144537Y25479D01*
X144459Y25479D01*
X144382Y25475D01*
X144305Y25467D01*
X144228Y25455D01*
X144153Y25440D01*
X144078Y25421D01*
X144004Y25398D01*
X143931Y25372D01*
X143860Y25342D01*
X143790Y25308D01*
X143722Y25271D01*
X143656Y25231D01*
X143592Y25187D01*
X143530Y25140D01*
X143471Y25091D01*
X143414Y25038D01*
X143360Y24983D01*
X143309Y24925D01*
X143261Y24864D01*
X143216Y24801D01*
X143174Y24736D01*
X143135Y24669D01*
X143100Y24600D01*
X143068Y24530D01*
X143040Y24458D01*
X143015Y24384D01*
X142994Y24310D01*
X142977Y24235D01*
X142963Y24158D01*
X142954Y24082D01*
X142948Y24004D01*
X142946Y23927D01*
X140462Y24237D02*
X140462Y22375D01*
X140462Y24237D02*
X140464Y24307D01*
X140470Y24376D01*
X140480Y24445D01*
X140493Y24513D01*
X140511Y24581D01*
X140532Y24647D01*
X140557Y24712D01*
X140585Y24776D01*
X140617Y24838D01*
X140652Y24898D01*
X140691Y24956D01*
X140733Y25011D01*
X140778Y25065D01*
X140826Y25115D01*
X140876Y25163D01*
X140930Y25208D01*
X140985Y25250D01*
X141043Y25289D01*
X141103Y25324D01*
X141165Y25356D01*
X141229Y25384D01*
X141294Y25409D01*
X141360Y25430D01*
X141428Y25448D01*
X141496Y25461D01*
X141565Y25471D01*
X141634Y25477D01*
X141704Y25479D01*
X141774Y25477D01*
X141843Y25471D01*
X141912Y25461D01*
X141980Y25448D01*
X142048Y25430D01*
X142114Y25409D01*
X142179Y25384D01*
X142243Y25356D01*
X142305Y25324D01*
X142365Y25289D01*
X142423Y25250D01*
X142478Y25208D01*
X142532Y25163D01*
X142582Y25115D01*
X142630Y25065D01*
X142675Y25011D01*
X142717Y24956D01*
X142756Y24898D01*
X142791Y24838D01*
X142823Y24776D01*
X142851Y24712D01*
X142876Y24647D01*
X142897Y24581D01*
X142915Y24513D01*
X142928Y24445D01*
X142938Y24376D01*
X142944Y24307D01*
X142946Y24237D01*
X142946Y22995D01*
X143256Y27861D02*
X143125Y27863D01*
X142995Y27868D01*
X142865Y27878D01*
X142735Y27891D01*
X142605Y27907D01*
X142476Y27927D01*
X142348Y27951D01*
X142221Y27979D01*
X142094Y28010D01*
X141968Y28045D01*
X141843Y28083D01*
X141719Y28125D01*
X141597Y28170D01*
X141476Y28219D01*
X141356Y28271D01*
X141238Y28327D01*
X141238Y28326D02*
X141178Y28349D01*
X141118Y28375D01*
X141061Y28404D01*
X141005Y28437D01*
X140951Y28473D01*
X140899Y28511D01*
X140849Y28553D01*
X140802Y28597D01*
X140757Y28644D01*
X140715Y28694D01*
X140676Y28745D01*
X140640Y28799D01*
X140607Y28855D01*
X140577Y28912D01*
X140550Y28971D01*
X140527Y29032D01*
X140507Y29093D01*
X140491Y29156D01*
X140478Y29220D01*
X140469Y29284D01*
X140464Y29348D01*
X140462Y29413D01*
X140464Y29478D01*
X140469Y29542D01*
X140478Y29606D01*
X140491Y29670D01*
X140507Y29733D01*
X140527Y29794D01*
X140550Y29855D01*
X140577Y29914D01*
X140607Y29971D01*
X140640Y30027D01*
X140676Y30081D01*
X140715Y30132D01*
X140757Y30182D01*
X140802Y30229D01*
X140849Y30273D01*
X140899Y30315D01*
X140951Y30353D01*
X141005Y30389D01*
X141061Y30422D01*
X141118Y30451D01*
X141178Y30477D01*
X141238Y30500D01*
X141356Y30556D01*
X141476Y30608D01*
X141597Y30657D01*
X141719Y30702D01*
X141843Y30744D01*
X141968Y30782D01*
X142094Y30817D01*
X142220Y30848D01*
X142348Y30876D01*
X142476Y30900D01*
X142605Y30920D01*
X142735Y30936D01*
X142865Y30949D01*
X142995Y30959D01*
X143125Y30964D01*
X143256Y30966D01*
X143256Y27861D02*
X143387Y27863D01*
X143517Y27868D01*
X143647Y27878D01*
X143777Y27891D01*
X143907Y27907D01*
X144036Y27927D01*
X144164Y27951D01*
X144291Y27979D01*
X144418Y28010D01*
X144544Y28045D01*
X144669Y28083D01*
X144793Y28125D01*
X144915Y28170D01*
X145036Y28219D01*
X145156Y28271D01*
X145274Y28327D01*
X145274Y28326D02*
X145334Y28349D01*
X145394Y28375D01*
X145451Y28404D01*
X145507Y28437D01*
X145561Y28473D01*
X145613Y28511D01*
X145663Y28553D01*
X145710Y28597D01*
X145755Y28644D01*
X145797Y28694D01*
X145836Y28745D01*
X145872Y28799D01*
X145905Y28855D01*
X145935Y28912D01*
X145962Y28971D01*
X145985Y29032D01*
X146005Y29093D01*
X146021Y29156D01*
X146034Y29220D01*
X146043Y29284D01*
X146048Y29348D01*
X146050Y29413D01*
X145274Y30500D02*
X145156Y30556D01*
X145036Y30608D01*
X144915Y30657D01*
X144793Y30702D01*
X144669Y30744D01*
X144544Y30782D01*
X144418Y30817D01*
X144292Y30848D01*
X144164Y30876D01*
X144036Y30900D01*
X143907Y30920D01*
X143777Y30936D01*
X143647Y30949D01*
X143517Y30959D01*
X143387Y30964D01*
X143256Y30966D01*
X145274Y30500D02*
X145334Y30477D01*
X145394Y30451D01*
X145451Y30422D01*
X145507Y30389D01*
X145561Y30353D01*
X145613Y30315D01*
X145663Y30273D01*
X145710Y30229D01*
X145755Y30182D01*
X145797Y30132D01*
X145836Y30081D01*
X145872Y30027D01*
X145905Y29971D01*
X145935Y29914D01*
X145962Y29855D01*
X145985Y29794D01*
X146005Y29733D01*
X146021Y29670D01*
X146034Y29606D01*
X146043Y29542D01*
X146048Y29478D01*
X146050Y29413D01*
X144808Y28171D02*
X141704Y30655D01*
X141704Y55516D02*
X140462Y57068D01*
X146050Y57068D01*
X146050Y55516D02*
X146050Y58620D01*
X146050Y61268D02*
X140462Y61268D01*
X140462Y64372D02*
X143877Y61268D01*
X142635Y62510D02*
X146050Y64372D01*
X9398Y66915D02*
X8156Y68467D01*
X9398Y66915D02*
X3810Y66915D01*
X3810Y68467D02*
X3810Y65362D01*
X3810Y63229D02*
X4120Y63229D01*
X4120Y62919D01*
X3810Y62919D01*
X3810Y63229D01*
X3810Y60786D02*
X3810Y58923D01*
X3812Y58853D01*
X3818Y58784D01*
X3828Y58715D01*
X3841Y58647D01*
X3859Y58579D01*
X3880Y58513D01*
X3905Y58448D01*
X3933Y58384D01*
X3965Y58322D01*
X4000Y58262D01*
X4039Y58204D01*
X4081Y58149D01*
X4126Y58095D01*
X4174Y58045D01*
X4224Y57997D01*
X4278Y57952D01*
X4333Y57910D01*
X4391Y57871D01*
X4451Y57836D01*
X4513Y57804D01*
X4577Y57776D01*
X4642Y57751D01*
X4708Y57730D01*
X4776Y57712D01*
X4844Y57699D01*
X4913Y57689D01*
X4982Y57683D01*
X5052Y57681D01*
X5673Y57681D01*
X5743Y57683D01*
X5812Y57689D01*
X5881Y57699D01*
X5949Y57712D01*
X6017Y57730D01*
X6083Y57751D01*
X6148Y57776D01*
X6212Y57804D01*
X6274Y57836D01*
X6334Y57871D01*
X6392Y57910D01*
X6447Y57952D01*
X6501Y57997D01*
X6551Y58045D01*
X6599Y58095D01*
X6644Y58149D01*
X6686Y58204D01*
X6725Y58262D01*
X6760Y58322D01*
X6792Y58384D01*
X6820Y58448D01*
X6845Y58513D01*
X6866Y58579D01*
X6884Y58647D01*
X6897Y58715D01*
X6907Y58784D01*
X6913Y58853D01*
X6915Y58923D01*
X6914Y58923D02*
X6914Y60786D01*
X9398Y60786D01*
X9398Y57681D01*
X9398Y55034D02*
X3810Y55034D01*
X5983Y55034D02*
X9398Y51929D01*
X7225Y53792D02*
X3810Y51929D01*
X3556Y34407D02*
X9144Y34407D01*
X9144Y32855D01*
X9142Y32778D01*
X9136Y32700D01*
X9127Y32624D01*
X9113Y32547D01*
X9096Y32472D01*
X9075Y32398D01*
X9050Y32324D01*
X9022Y32252D01*
X8990Y32182D01*
X8955Y32113D01*
X8916Y32046D01*
X8874Y31981D01*
X8829Y31918D01*
X8781Y31857D01*
X8730Y31799D01*
X8676Y31744D01*
X8619Y31691D01*
X8560Y31642D01*
X8498Y31595D01*
X8434Y31551D01*
X8368Y31511D01*
X8300Y31474D01*
X8230Y31440D01*
X8159Y31410D01*
X8086Y31384D01*
X8012Y31361D01*
X7937Y31342D01*
X7862Y31327D01*
X7785Y31315D01*
X7708Y31307D01*
X7631Y31303D01*
X7553Y31303D01*
X7476Y31307D01*
X7399Y31315D01*
X7322Y31327D01*
X7247Y31342D01*
X7172Y31361D01*
X7098Y31384D01*
X7025Y31410D01*
X6954Y31440D01*
X6884Y31474D01*
X6816Y31511D01*
X6750Y31551D01*
X6686Y31595D01*
X6624Y31642D01*
X6565Y31691D01*
X6508Y31744D01*
X6454Y31799D01*
X6403Y31857D01*
X6355Y31918D01*
X6310Y31981D01*
X6268Y32046D01*
X6229Y32113D01*
X6194Y32182D01*
X6162Y32252D01*
X6134Y32324D01*
X6109Y32398D01*
X6088Y32472D01*
X6071Y32547D01*
X6057Y32624D01*
X6048Y32700D01*
X6042Y32778D01*
X6040Y32855D01*
X6040Y34407D01*
X5108Y29187D02*
X7592Y29187D01*
X7592Y29186D02*
X7669Y29184D01*
X7747Y29178D01*
X7823Y29169D01*
X7900Y29155D01*
X7975Y29138D01*
X8049Y29117D01*
X8123Y29092D01*
X8195Y29064D01*
X8265Y29032D01*
X8334Y28997D01*
X8401Y28958D01*
X8466Y28916D01*
X8529Y28871D01*
X8590Y28823D01*
X8648Y28772D01*
X8703Y28718D01*
X8756Y28661D01*
X8805Y28602D01*
X8852Y28540D01*
X8896Y28476D01*
X8936Y28410D01*
X8973Y28342D01*
X9007Y28272D01*
X9037Y28201D01*
X9063Y28128D01*
X9086Y28054D01*
X9105Y27979D01*
X9120Y27904D01*
X9132Y27827D01*
X9140Y27750D01*
X9144Y27673D01*
X9144Y27595D01*
X9140Y27518D01*
X9132Y27441D01*
X9120Y27364D01*
X9105Y27289D01*
X9086Y27214D01*
X9063Y27140D01*
X9037Y27067D01*
X9007Y26996D01*
X8973Y26926D01*
X8936Y26858D01*
X8896Y26792D01*
X8852Y26728D01*
X8805Y26666D01*
X8756Y26607D01*
X8703Y26550D01*
X8648Y26496D01*
X8590Y26445D01*
X8529Y26397D01*
X8466Y26352D01*
X8401Y26310D01*
X8334Y26271D01*
X8265Y26236D01*
X8195Y26204D01*
X8123Y26176D01*
X8049Y26151D01*
X7975Y26130D01*
X7900Y26113D01*
X7823Y26099D01*
X7747Y26090D01*
X7669Y26084D01*
X7592Y26082D01*
X5108Y26082D01*
X5031Y26084D01*
X4953Y26090D01*
X4877Y26099D01*
X4800Y26113D01*
X4725Y26130D01*
X4651Y26151D01*
X4577Y26176D01*
X4505Y26204D01*
X4435Y26236D01*
X4366Y26271D01*
X4299Y26310D01*
X4234Y26352D01*
X4171Y26397D01*
X4110Y26445D01*
X4052Y26496D01*
X3997Y26550D01*
X3944Y26607D01*
X3895Y26666D01*
X3848Y26728D01*
X3804Y26792D01*
X3764Y26858D01*
X3727Y26926D01*
X3693Y26996D01*
X3663Y27067D01*
X3637Y27140D01*
X3614Y27214D01*
X3595Y27289D01*
X3580Y27364D01*
X3568Y27441D01*
X3560Y27518D01*
X3556Y27595D01*
X3556Y27673D01*
X3560Y27750D01*
X3568Y27827D01*
X3580Y27904D01*
X3595Y27979D01*
X3614Y28054D01*
X3637Y28128D01*
X3663Y28201D01*
X3693Y28272D01*
X3727Y28342D01*
X3764Y28410D01*
X3804Y28476D01*
X3848Y28540D01*
X3895Y28602D01*
X3944Y28661D01*
X3997Y28718D01*
X4052Y28772D01*
X4110Y28823D01*
X4171Y28871D01*
X4234Y28916D01*
X4299Y28958D01*
X4366Y28997D01*
X4435Y29032D01*
X4505Y29064D01*
X4577Y29092D01*
X4651Y29117D01*
X4725Y29138D01*
X4800Y29155D01*
X4877Y29169D01*
X4953Y29178D01*
X5031Y29184D01*
X5108Y29186D01*
X9144Y23900D02*
X3556Y22658D01*
X7281Y21416D01*
X3556Y20175D01*
X9144Y18933D01*
X40581Y241836D02*
X42133Y243078D01*
X42133Y237490D01*
X40581Y237490D02*
X43685Y237490D01*
X46067Y240284D02*
X46069Y240415D01*
X46074Y240545D01*
X46084Y240675D01*
X46097Y240805D01*
X46113Y240935D01*
X46133Y241064D01*
X46157Y241192D01*
X46185Y241319D01*
X46216Y241446D01*
X46251Y241572D01*
X46289Y241697D01*
X46331Y241821D01*
X46376Y241943D01*
X46425Y242064D01*
X46477Y242184D01*
X46533Y242302D01*
X46532Y242302D02*
X46555Y242362D01*
X46581Y242422D01*
X46610Y242479D01*
X46643Y242535D01*
X46679Y242589D01*
X46717Y242641D01*
X46759Y242691D01*
X46803Y242738D01*
X46850Y242783D01*
X46900Y242825D01*
X46951Y242864D01*
X47005Y242900D01*
X47061Y242933D01*
X47118Y242963D01*
X47177Y242990D01*
X47238Y243013D01*
X47299Y243033D01*
X47362Y243049D01*
X47426Y243062D01*
X47490Y243071D01*
X47554Y243076D01*
X47619Y243078D01*
X47684Y243076D01*
X47748Y243071D01*
X47812Y243062D01*
X47876Y243049D01*
X47939Y243033D01*
X48000Y243013D01*
X48061Y242990D01*
X48120Y242963D01*
X48177Y242933D01*
X48233Y242900D01*
X48287Y242864D01*
X48338Y242825D01*
X48388Y242783D01*
X48435Y242738D01*
X48479Y242691D01*
X48521Y242641D01*
X48559Y242589D01*
X48595Y242535D01*
X48628Y242479D01*
X48657Y242422D01*
X48683Y242362D01*
X48706Y242302D01*
X48762Y242184D01*
X48814Y242064D01*
X48863Y241943D01*
X48908Y241821D01*
X48950Y241697D01*
X48988Y241572D01*
X49023Y241446D01*
X49054Y241320D01*
X49082Y241192D01*
X49106Y241064D01*
X49126Y240935D01*
X49142Y240805D01*
X49155Y240675D01*
X49165Y240545D01*
X49170Y240415D01*
X49172Y240284D01*
X46067Y240284D02*
X46069Y240153D01*
X46074Y240023D01*
X46084Y239893D01*
X46097Y239763D01*
X46113Y239633D01*
X46133Y239504D01*
X46157Y239376D01*
X46185Y239249D01*
X46216Y239122D01*
X46251Y238996D01*
X46289Y238871D01*
X46331Y238747D01*
X46376Y238625D01*
X46425Y238504D01*
X46477Y238384D01*
X46533Y238266D01*
X46532Y238266D02*
X46555Y238206D01*
X46581Y238146D01*
X46610Y238089D01*
X46643Y238033D01*
X46679Y237979D01*
X46717Y237927D01*
X46759Y237877D01*
X46803Y237830D01*
X46850Y237785D01*
X46900Y237743D01*
X46951Y237704D01*
X47005Y237668D01*
X47061Y237635D01*
X47118Y237605D01*
X47177Y237578D01*
X47238Y237555D01*
X47299Y237535D01*
X47362Y237519D01*
X47426Y237506D01*
X47490Y237497D01*
X47554Y237492D01*
X47619Y237490D01*
X48705Y238266D02*
X48761Y238384D01*
X48813Y238504D01*
X48862Y238625D01*
X48907Y238747D01*
X48949Y238871D01*
X48987Y238996D01*
X49022Y239122D01*
X49053Y239248D01*
X49081Y239376D01*
X49105Y239504D01*
X49125Y239633D01*
X49141Y239763D01*
X49154Y239893D01*
X49164Y240023D01*
X49169Y240153D01*
X49171Y240284D01*
X48706Y238266D02*
X48683Y238206D01*
X48657Y238146D01*
X48628Y238089D01*
X48595Y238033D01*
X48559Y237979D01*
X48521Y237927D01*
X48479Y237877D01*
X48435Y237830D01*
X48388Y237785D01*
X48338Y237743D01*
X48287Y237704D01*
X48233Y237668D01*
X48177Y237635D01*
X48120Y237605D01*
X48061Y237578D01*
X48000Y237555D01*
X47939Y237535D01*
X47876Y237519D01*
X47812Y237506D01*
X47748Y237497D01*
X47684Y237492D01*
X47619Y237490D01*
X46377Y238732D02*
X48861Y241836D01*
X51819Y243078D02*
X51819Y237490D01*
X51819Y239663D02*
X54924Y243078D01*
X53061Y240905D02*
X54924Y237490D01*
X70995Y249682D02*
X71065Y249684D01*
X71134Y249690D01*
X71203Y249700D01*
X71271Y249713D01*
X71339Y249731D01*
X71405Y249752D01*
X71470Y249777D01*
X71534Y249805D01*
X71596Y249837D01*
X71656Y249872D01*
X71714Y249911D01*
X71769Y249953D01*
X71823Y249998D01*
X71873Y250046D01*
X71921Y250096D01*
X71966Y250150D01*
X72008Y250205D01*
X72047Y250263D01*
X72082Y250323D01*
X72114Y250385D01*
X72142Y250449D01*
X72167Y250514D01*
X72188Y250580D01*
X72206Y250648D01*
X72219Y250716D01*
X72229Y250785D01*
X72235Y250854D01*
X72237Y250924D01*
X70995Y249682D02*
X70896Y249684D01*
X70798Y249689D01*
X70700Y249699D01*
X70602Y249712D01*
X70505Y249728D01*
X70408Y249748D01*
X70313Y249772D01*
X70218Y249800D01*
X70124Y249831D01*
X70032Y249865D01*
X69941Y249903D01*
X69851Y249944D01*
X69763Y249989D01*
X69677Y250037D01*
X69593Y250088D01*
X69511Y250142D01*
X69430Y250200D01*
X69352Y250260D01*
X69277Y250323D01*
X69203Y250389D01*
X69133Y250458D01*
X69288Y254028D02*
X69290Y254098D01*
X69296Y254167D01*
X69306Y254236D01*
X69319Y254304D01*
X69337Y254372D01*
X69358Y254438D01*
X69383Y254503D01*
X69411Y254567D01*
X69443Y254629D01*
X69478Y254689D01*
X69517Y254747D01*
X69559Y254802D01*
X69604Y254856D01*
X69652Y254906D01*
X69702Y254954D01*
X69756Y254999D01*
X69811Y255041D01*
X69869Y255080D01*
X69929Y255115D01*
X69991Y255147D01*
X70055Y255175D01*
X70120Y255200D01*
X70186Y255221D01*
X70254Y255239D01*
X70322Y255252D01*
X70391Y255262D01*
X70460Y255268D01*
X70530Y255270D01*
X70624Y255268D01*
X70717Y255262D01*
X70810Y255253D01*
X70903Y255240D01*
X70995Y255223D01*
X71086Y255203D01*
X71177Y255178D01*
X71266Y255151D01*
X71354Y255119D01*
X71441Y255084D01*
X71527Y255046D01*
X71610Y255004D01*
X71692Y254959D01*
X71773Y254911D01*
X71851Y254859D01*
X71927Y254804D01*
X69909Y252942D02*
X69850Y252978D01*
X69794Y253018D01*
X69740Y253061D01*
X69688Y253106D01*
X69639Y253155D01*
X69593Y253206D01*
X69550Y253259D01*
X69509Y253315D01*
X69472Y253373D01*
X69437Y253433D01*
X69407Y253494D01*
X69379Y253557D01*
X69355Y253622D01*
X69335Y253688D01*
X69318Y253755D01*
X69305Y253822D01*
X69296Y253890D01*
X69290Y253959D01*
X69288Y254028D01*
X71616Y252010D02*
X71675Y251974D01*
X71731Y251934D01*
X71785Y251891D01*
X71837Y251846D01*
X71886Y251797D01*
X71932Y251746D01*
X71975Y251693D01*
X72016Y251637D01*
X72053Y251579D01*
X72088Y251519D01*
X72118Y251458D01*
X72146Y251395D01*
X72170Y251330D01*
X72190Y251264D01*
X72207Y251197D01*
X72220Y251130D01*
X72229Y251062D01*
X72235Y250993D01*
X72237Y250924D01*
X71616Y252010D02*
X69909Y252942D01*
X74236Y255270D02*
X75478Y249682D01*
X76720Y253407D01*
X77962Y249682D01*
X79203Y255270D01*
X62066Y211836D02*
X60824Y211836D01*
X60754Y211838D01*
X60685Y211844D01*
X60616Y211854D01*
X60548Y211867D01*
X60480Y211885D01*
X60414Y211906D01*
X60349Y211931D01*
X60285Y211959D01*
X60223Y211991D01*
X60163Y212026D01*
X60105Y212065D01*
X60050Y212107D01*
X59996Y212152D01*
X59946Y212200D01*
X59898Y212250D01*
X59853Y212304D01*
X59811Y212359D01*
X59772Y212417D01*
X59737Y212477D01*
X59705Y212539D01*
X59677Y212603D01*
X59652Y212668D01*
X59631Y212734D01*
X59613Y212802D01*
X59600Y212870D01*
X59590Y212939D01*
X59584Y213008D01*
X59582Y213078D01*
X59583Y213078D02*
X59583Y216182D01*
X59582Y216182D02*
X59584Y216252D01*
X59590Y216321D01*
X59600Y216390D01*
X59613Y216458D01*
X59631Y216526D01*
X59652Y216592D01*
X59677Y216657D01*
X59705Y216721D01*
X59737Y216783D01*
X59772Y216843D01*
X59811Y216901D01*
X59853Y216956D01*
X59898Y217010D01*
X59946Y217060D01*
X59996Y217108D01*
X60050Y217153D01*
X60105Y217195D01*
X60163Y217234D01*
X60223Y217269D01*
X60285Y217301D01*
X60349Y217329D01*
X60414Y217354D01*
X60480Y217375D01*
X60548Y217393D01*
X60616Y217406D01*
X60685Y217416D01*
X60754Y217422D01*
X60824Y217424D01*
X62066Y217424D01*
X64354Y217424D02*
X64354Y211836D01*
X64354Y214940D02*
X67458Y214940D01*
X67458Y217424D02*
X67458Y211836D01*
X70023Y211836D02*
X71886Y211836D01*
X71956Y211838D01*
X72025Y211844D01*
X72094Y211854D01*
X72162Y211867D01*
X72230Y211885D01*
X72296Y211906D01*
X72361Y211931D01*
X72425Y211959D01*
X72487Y211991D01*
X72547Y212026D01*
X72605Y212065D01*
X72660Y212107D01*
X72714Y212152D01*
X72764Y212200D01*
X72812Y212250D01*
X72857Y212304D01*
X72899Y212359D01*
X72938Y212417D01*
X72973Y212477D01*
X73005Y212539D01*
X73033Y212603D01*
X73058Y212668D01*
X73079Y212734D01*
X73097Y212802D01*
X73110Y212870D01*
X73120Y212939D01*
X73126Y213008D01*
X73128Y213078D01*
X73127Y213078D02*
X73127Y213699D01*
X73128Y213699D02*
X73126Y213769D01*
X73120Y213838D01*
X73110Y213907D01*
X73097Y213975D01*
X73079Y214043D01*
X73058Y214109D01*
X73033Y214174D01*
X73005Y214238D01*
X72973Y214300D01*
X72938Y214360D01*
X72899Y214418D01*
X72857Y214473D01*
X72812Y214527D01*
X72764Y214577D01*
X72714Y214625D01*
X72660Y214670D01*
X72605Y214712D01*
X72547Y214751D01*
X72487Y214786D01*
X72425Y214818D01*
X72361Y214846D01*
X72296Y214871D01*
X72230Y214892D01*
X72162Y214910D01*
X72094Y214923D01*
X72025Y214933D01*
X71956Y214939D01*
X71886Y214941D01*
X71886Y214940D02*
X70023Y214940D01*
X70023Y217424D01*
X73127Y217424D01*
X75509Y211836D02*
X77372Y211836D01*
X77442Y211838D01*
X77511Y211844D01*
X77580Y211854D01*
X77648Y211867D01*
X77716Y211885D01*
X77782Y211906D01*
X77847Y211931D01*
X77911Y211959D01*
X77973Y211991D01*
X78033Y212026D01*
X78091Y212065D01*
X78146Y212107D01*
X78200Y212152D01*
X78250Y212200D01*
X78298Y212250D01*
X78343Y212304D01*
X78385Y212359D01*
X78424Y212417D01*
X78459Y212477D01*
X78491Y212539D01*
X78519Y212603D01*
X78544Y212668D01*
X78565Y212734D01*
X78583Y212802D01*
X78596Y212870D01*
X78606Y212939D01*
X78612Y213008D01*
X78614Y213078D01*
X78614Y213699D01*
X78612Y213769D01*
X78606Y213838D01*
X78596Y213907D01*
X78583Y213975D01*
X78565Y214043D01*
X78544Y214109D01*
X78519Y214174D01*
X78491Y214238D01*
X78459Y214300D01*
X78424Y214360D01*
X78385Y214418D01*
X78343Y214473D01*
X78298Y214527D01*
X78250Y214577D01*
X78200Y214625D01*
X78146Y214670D01*
X78091Y214712D01*
X78033Y214751D01*
X77973Y214786D01*
X77911Y214818D01*
X77847Y214846D01*
X77782Y214871D01*
X77716Y214892D01*
X77648Y214910D01*
X77580Y214923D01*
X77511Y214933D01*
X77442Y214939D01*
X77372Y214941D01*
X77372Y214940D02*
X75509Y214940D01*
X75509Y217424D01*
X78614Y217424D01*
X82703Y217424D02*
X82776Y217422D01*
X82849Y217416D01*
X82922Y217407D01*
X82993Y217393D01*
X83065Y217376D01*
X83135Y217356D01*
X83204Y217331D01*
X83271Y217303D01*
X83337Y217272D01*
X83402Y217237D01*
X83464Y217199D01*
X83524Y217157D01*
X83582Y217113D01*
X83638Y217065D01*
X83691Y217015D01*
X83741Y216962D01*
X83789Y216906D01*
X83833Y216848D01*
X83875Y216788D01*
X83913Y216726D01*
X83948Y216661D01*
X83979Y216595D01*
X84007Y216528D01*
X84032Y216459D01*
X84052Y216389D01*
X84069Y216317D01*
X84083Y216246D01*
X84092Y216173D01*
X84098Y216100D01*
X84100Y216027D01*
X82703Y217424D02*
X82619Y217422D01*
X82536Y217416D01*
X82453Y217407D01*
X82371Y217393D01*
X82289Y217376D01*
X82208Y217354D01*
X82128Y217329D01*
X82050Y217301D01*
X81972Y217269D01*
X81897Y217233D01*
X81823Y217194D01*
X81751Y217151D01*
X81681Y217105D01*
X81614Y217056D01*
X81548Y217003D01*
X81486Y216948D01*
X81426Y216890D01*
X81368Y216829D01*
X81314Y216766D01*
X81262Y216700D01*
X81214Y216632D01*
X81169Y216561D01*
X81127Y216489D01*
X81089Y216414D01*
X81054Y216338D01*
X81023Y216261D01*
X80995Y216182D01*
X83634Y214941D02*
X83688Y214994D01*
X83739Y215051D01*
X83787Y215110D01*
X83832Y215171D01*
X83873Y215234D01*
X83912Y215300D01*
X83947Y215367D01*
X83979Y215436D01*
X84007Y215507D01*
X84031Y215578D01*
X84052Y215651D01*
X84069Y215725D01*
X84083Y215800D01*
X84092Y215875D01*
X84098Y215951D01*
X84100Y216027D01*
X83634Y214940D02*
X80996Y211836D01*
X84100Y211836D01*
X88838Y214940D02*
X89769Y214940D01*
X89769Y211836D01*
X87907Y211836D01*
X87837Y211838D01*
X87768Y211844D01*
X87699Y211854D01*
X87631Y211867D01*
X87563Y211885D01*
X87497Y211906D01*
X87432Y211931D01*
X87368Y211959D01*
X87306Y211991D01*
X87246Y212026D01*
X87188Y212065D01*
X87133Y212107D01*
X87079Y212152D01*
X87029Y212200D01*
X86981Y212250D01*
X86936Y212304D01*
X86894Y212359D01*
X86855Y212417D01*
X86820Y212477D01*
X86788Y212539D01*
X86760Y212603D01*
X86735Y212668D01*
X86714Y212734D01*
X86696Y212802D01*
X86683Y212870D01*
X86673Y212939D01*
X86667Y213008D01*
X86665Y213078D01*
X86665Y216182D01*
X86667Y216252D01*
X86673Y216321D01*
X86683Y216390D01*
X86696Y216458D01*
X86714Y216526D01*
X86735Y216592D01*
X86760Y216657D01*
X86788Y216721D01*
X86820Y216783D01*
X86855Y216843D01*
X86894Y216901D01*
X86936Y216956D01*
X86981Y217010D01*
X87029Y217060D01*
X87079Y217108D01*
X87133Y217153D01*
X87188Y217195D01*
X87246Y217234D01*
X87306Y217269D01*
X87368Y217301D01*
X87432Y217329D01*
X87497Y217354D01*
X87563Y217375D01*
X87631Y217393D01*
X87699Y217406D01*
X87768Y217416D01*
X87837Y217422D01*
X87907Y217424D01*
X89769Y217424D01*
D12*
X88392Y139248D02*
X88392Y135354D01*
X90664Y132433D01*
X88392Y135354D02*
X86120Y132433D01*
X88392Y135354D02*
X91962Y136652D01*
X88392Y135354D02*
X84822Y136652D01*
D13*
X55537Y133232D02*
X55537Y230768D01*
X90653Y234578D02*
X90766Y234594D01*
X90880Y234605D01*
X90994Y234612D01*
X91108Y234616D01*
X91223Y234615D01*
X91337Y234611D01*
X91451Y234603D01*
X91565Y234591D01*
X91678Y234575D01*
X91790Y234555D01*
X91902Y234531D01*
X92013Y234504D01*
X92123Y234472D01*
X92232Y234437D01*
X92340Y234399D01*
X92446Y234356D01*
X92550Y234310D01*
X92654Y234261D01*
X92755Y234208D01*
X92854Y234152D01*
X92952Y234092D01*
X93047Y234029D01*
X93140Y233962D01*
X93231Y233893D01*
X93319Y233821D01*
X93405Y233745D01*
X93489Y233667D01*
X93569Y233586D01*
X93647Y233502D01*
X93722Y233415D01*
X93793Y233326D01*
X93862Y233235D01*
X93928Y233141D01*
X93990Y233046D01*
X94049Y232948D01*
X94105Y232848D01*
X94157Y232746D01*
X94206Y232643D01*
X94251Y232538D01*
X94292Y232431D01*
X94330Y232323D01*
X94365Y232214D01*
X94395Y232104D01*
X94422Y231993D01*
X94444Y231881D01*
X94463Y231768D01*
X55537Y133232D02*
X55554Y133102D01*
X55575Y132973D01*
X55600Y132844D01*
X55628Y132716D01*
X55661Y132589D01*
X55697Y132463D01*
X55738Y132338D01*
X55782Y132215D01*
X55829Y132093D01*
X55881Y131972D01*
X55935Y131853D01*
X55994Y131736D01*
X56056Y131621D01*
X56121Y131507D01*
X56190Y131395D01*
X56263Y131286D01*
X56338Y131179D01*
X56417Y131074D01*
X56499Y130972D01*
X56584Y130872D01*
X56671Y130775D01*
X56762Y130680D01*
X56856Y130588D01*
X56952Y130499D01*
X57051Y130413D01*
X57152Y130331D01*
X57256Y130251D01*
X57363Y130174D01*
X57471Y130101D01*
X57582Y130031D01*
X57695Y129964D01*
X57810Y129901D01*
X57926Y129841D01*
X58045Y129785D01*
X58165Y129732D01*
X58286Y129683D01*
X58409Y129638D01*
X58534Y129596D01*
X58659Y129558D01*
X58786Y129525D01*
X58913Y129494D01*
X59042Y129468D01*
X59171Y129446D01*
X59301Y129427D01*
X59431Y129413D01*
X59562Y129402D01*
X59693Y129396D01*
X59824Y129393D01*
X59955Y129394D01*
X60086Y129400D01*
X60216Y129409D01*
X60347Y129422D01*
X55537Y230768D02*
X55539Y230890D01*
X55545Y231012D01*
X55555Y231134D01*
X55568Y231255D01*
X55586Y231376D01*
X55607Y231496D01*
X55632Y231616D01*
X55661Y231735D01*
X55694Y231852D01*
X55731Y231969D01*
X55771Y232084D01*
X55815Y232198D01*
X55863Y232310D01*
X55914Y232421D01*
X55969Y232530D01*
X56027Y232638D01*
X56089Y232743D01*
X56154Y232847D01*
X56222Y232948D01*
X56293Y233047D01*
X56368Y233144D01*
X56446Y233238D01*
X56526Y233330D01*
X56610Y233419D01*
X56696Y233505D01*
X56785Y233589D01*
X56877Y233669D01*
X56971Y233747D01*
X57068Y233822D01*
X57167Y233893D01*
X57268Y233961D01*
X57372Y234026D01*
X57477Y234088D01*
X57585Y234146D01*
X57694Y234201D01*
X57805Y234252D01*
X57917Y234300D01*
X58031Y234344D01*
X58146Y234384D01*
X58263Y234421D01*
X58380Y234454D01*
X58499Y234483D01*
X58619Y234508D01*
X58739Y234529D01*
X58860Y234547D01*
X58981Y234560D01*
X59103Y234570D01*
X59225Y234576D01*
X59347Y234578D01*
X94463Y133233D02*
X94478Y133119D01*
X94490Y133005D01*
X94497Y132891D01*
X94501Y132777D01*
X94500Y132663D01*
X94496Y132548D01*
X94488Y132434D01*
X94476Y132321D01*
X94460Y132208D01*
X94440Y132095D01*
X94416Y131983D01*
X94389Y131872D01*
X94358Y131762D01*
X94323Y131653D01*
X94284Y131546D01*
X94242Y131439D01*
X94196Y131335D01*
X94146Y131232D01*
X94093Y131130D01*
X94037Y131031D01*
X93977Y130933D01*
X93914Y130838D01*
X93848Y130745D01*
X93778Y130654D01*
X93706Y130566D01*
X93630Y130480D01*
X93552Y130397D01*
X93471Y130316D01*
X93387Y130238D01*
X93301Y130164D01*
X93212Y130092D01*
X93120Y130023D01*
X93027Y129957D01*
X92931Y129895D01*
X92833Y129836D01*
X92733Y129780D01*
X92631Y129728D01*
X92528Y129680D01*
X92423Y129634D01*
X92316Y129593D01*
X92208Y129555D01*
X92099Y129521D01*
X91989Y129491D01*
X91878Y129464D01*
X91766Y129441D01*
X91653Y129422D01*
X94463Y133232D02*
X94463Y231768D01*
X90653Y234578D02*
X59347Y234578D01*
X68904Y129930D02*
X68906Y130088D01*
X68912Y130247D01*
X68922Y130405D01*
X68936Y130562D01*
X68953Y130720D01*
X68975Y130876D01*
X69000Y131033D01*
X69030Y131188D01*
X69063Y131343D01*
X69100Y131497D01*
X69141Y131650D01*
X69186Y131802D01*
X69235Y131952D01*
X69287Y132102D01*
X69343Y132250D01*
X69403Y132397D01*
X69466Y132542D01*
X69533Y132685D01*
X69603Y132827D01*
X69677Y132967D01*
X69755Y133105D01*
X69836Y133241D01*
X69920Y133375D01*
X70007Y133507D01*
X70098Y133637D01*
X70192Y133764D01*
X70289Y133889D01*
X70390Y134012D01*
X70493Y134132D01*
X70599Y134249D01*
X70708Y134364D01*
X70820Y134476D01*
X70935Y134585D01*
X71052Y134691D01*
X71172Y134794D01*
X71295Y134895D01*
X71420Y134992D01*
X71547Y135086D01*
X71677Y135177D01*
X71809Y135264D01*
X71943Y135348D01*
X72079Y135429D01*
X72217Y135507D01*
X72357Y135581D01*
X72499Y135651D01*
X72642Y135718D01*
X72787Y135781D01*
X72934Y135841D01*
X73082Y135897D01*
X73232Y135949D01*
X73382Y135998D01*
X73534Y136043D01*
X73687Y136084D01*
X73841Y136121D01*
X73996Y136154D01*
X74151Y136184D01*
X74308Y136209D01*
X74464Y136231D01*
X74622Y136248D01*
X74779Y136262D01*
X74937Y136272D01*
X75096Y136278D01*
X75254Y136280D01*
X75412Y136278D01*
X75571Y136272D01*
X75729Y136262D01*
X75886Y136248D01*
X76044Y136231D01*
X76200Y136209D01*
X76357Y136184D01*
X76512Y136154D01*
X76667Y136121D01*
X76821Y136084D01*
X76974Y136043D01*
X77126Y135998D01*
X77276Y135949D01*
X77426Y135897D01*
X77574Y135841D01*
X77721Y135781D01*
X77866Y135718D01*
X78009Y135651D01*
X78151Y135581D01*
X78291Y135507D01*
X78429Y135429D01*
X78565Y135348D01*
X78699Y135264D01*
X78831Y135177D01*
X78961Y135086D01*
X79088Y134992D01*
X79213Y134895D01*
X79336Y134794D01*
X79456Y134691D01*
X79573Y134585D01*
X79688Y134476D01*
X79800Y134364D01*
X79909Y134249D01*
X80015Y134132D01*
X80118Y134012D01*
X80219Y133889D01*
X80316Y133764D01*
X80410Y133637D01*
X80501Y133507D01*
X80588Y133375D01*
X80672Y133241D01*
X80753Y133105D01*
X80831Y132967D01*
X80905Y132827D01*
X80975Y132685D01*
X81042Y132542D01*
X81105Y132397D01*
X81165Y132250D01*
X81221Y132102D01*
X81273Y131952D01*
X81322Y131802D01*
X81367Y131650D01*
X81408Y131497D01*
X81445Y131343D01*
X81478Y131188D01*
X81508Y131033D01*
X81533Y130876D01*
X81555Y130720D01*
X81572Y130562D01*
X81586Y130405D01*
X81596Y130247D01*
X81602Y130088D01*
X81604Y129930D01*
X68904Y129422D02*
X60474Y129422D01*
X81604Y129422D02*
X91653Y129422D01*
D10*
X42850Y50000D02*
X42852Y50113D01*
X42858Y50227D01*
X42868Y50340D01*
X42882Y50452D01*
X42899Y50564D01*
X42921Y50676D01*
X42947Y50786D01*
X42976Y50896D01*
X43009Y51004D01*
X43046Y51112D01*
X43087Y51217D01*
X43131Y51322D01*
X43179Y51425D01*
X43230Y51526D01*
X43285Y51625D01*
X43344Y51722D01*
X43406Y51817D01*
X43471Y51910D01*
X43539Y52001D01*
X43610Y52089D01*
X43685Y52175D01*
X43762Y52258D01*
X43842Y52338D01*
X43925Y52415D01*
X44011Y52490D01*
X44099Y52561D01*
X44190Y52629D01*
X44283Y52694D01*
X44378Y52756D01*
X44475Y52815D01*
X44574Y52870D01*
X44675Y52921D01*
X44778Y52969D01*
X44883Y53013D01*
X44988Y53054D01*
X45096Y53091D01*
X45204Y53124D01*
X45314Y53153D01*
X45424Y53179D01*
X45536Y53201D01*
X45648Y53218D01*
X45760Y53232D01*
X45873Y53242D01*
X45987Y53248D01*
X46100Y53250D01*
X46213Y53248D01*
X46327Y53242D01*
X46440Y53232D01*
X46552Y53218D01*
X46664Y53201D01*
X46776Y53179D01*
X46886Y53153D01*
X46996Y53124D01*
X47104Y53091D01*
X47212Y53054D01*
X47317Y53013D01*
X47422Y52969D01*
X47525Y52921D01*
X47626Y52870D01*
X47725Y52815D01*
X47822Y52756D01*
X47917Y52694D01*
X48010Y52629D01*
X48101Y52561D01*
X48189Y52490D01*
X48275Y52415D01*
X48358Y52338D01*
X48438Y52258D01*
X48515Y52175D01*
X48590Y52089D01*
X48661Y52001D01*
X48729Y51910D01*
X48794Y51817D01*
X48856Y51722D01*
X48915Y51625D01*
X48970Y51526D01*
X49021Y51425D01*
X49069Y51322D01*
X49113Y51217D01*
X49154Y51112D01*
X49191Y51004D01*
X49224Y50896D01*
X49253Y50786D01*
X49279Y50676D01*
X49301Y50564D01*
X49318Y50452D01*
X49332Y50340D01*
X49342Y50227D01*
X49348Y50113D01*
X49350Y50000D01*
X49348Y49887D01*
X49342Y49773D01*
X49332Y49660D01*
X49318Y49548D01*
X49301Y49436D01*
X49279Y49324D01*
X49253Y49214D01*
X49224Y49104D01*
X49191Y48996D01*
X49154Y48888D01*
X49113Y48783D01*
X49069Y48678D01*
X49021Y48575D01*
X48970Y48474D01*
X48915Y48375D01*
X48856Y48278D01*
X48794Y48183D01*
X48729Y48090D01*
X48661Y47999D01*
X48590Y47911D01*
X48515Y47825D01*
X48438Y47742D01*
X48358Y47662D01*
X48275Y47585D01*
X48189Y47510D01*
X48101Y47439D01*
X48010Y47371D01*
X47917Y47306D01*
X47822Y47244D01*
X47725Y47185D01*
X47626Y47130D01*
X47525Y47079D01*
X47422Y47031D01*
X47317Y46987D01*
X47212Y46946D01*
X47104Y46909D01*
X46996Y46876D01*
X46886Y46847D01*
X46776Y46821D01*
X46664Y46799D01*
X46552Y46782D01*
X46440Y46768D01*
X46327Y46758D01*
X46213Y46752D01*
X46100Y46750D01*
X45987Y46752D01*
X45873Y46758D01*
X45760Y46768D01*
X45648Y46782D01*
X45536Y46799D01*
X45424Y46821D01*
X45314Y46847D01*
X45204Y46876D01*
X45096Y46909D01*
X44988Y46946D01*
X44883Y46987D01*
X44778Y47031D01*
X44675Y47079D01*
X44574Y47130D01*
X44475Y47185D01*
X44378Y47244D01*
X44283Y47306D01*
X44190Y47371D01*
X44099Y47439D01*
X44011Y47510D01*
X43925Y47585D01*
X43842Y47662D01*
X43762Y47742D01*
X43685Y47825D01*
X43610Y47911D01*
X43539Y47999D01*
X43471Y48090D01*
X43406Y48183D01*
X43344Y48278D01*
X43285Y48375D01*
X43230Y48474D01*
X43179Y48575D01*
X43131Y48678D01*
X43087Y48783D01*
X43046Y48888D01*
X43009Y48996D01*
X42976Y49104D01*
X42947Y49214D01*
X42921Y49324D01*
X42899Y49436D01*
X42882Y49548D01*
X42868Y49660D01*
X42858Y49773D01*
X42852Y49887D01*
X42850Y50000D01*
X100650Y50000D02*
X100652Y50113D01*
X100658Y50227D01*
X100668Y50340D01*
X100682Y50452D01*
X100699Y50564D01*
X100721Y50676D01*
X100747Y50786D01*
X100776Y50896D01*
X100809Y51004D01*
X100846Y51112D01*
X100887Y51217D01*
X100931Y51322D01*
X100979Y51425D01*
X101030Y51526D01*
X101085Y51625D01*
X101144Y51722D01*
X101206Y51817D01*
X101271Y51910D01*
X101339Y52001D01*
X101410Y52089D01*
X101485Y52175D01*
X101562Y52258D01*
X101642Y52338D01*
X101725Y52415D01*
X101811Y52490D01*
X101899Y52561D01*
X101990Y52629D01*
X102083Y52694D01*
X102178Y52756D01*
X102275Y52815D01*
X102374Y52870D01*
X102475Y52921D01*
X102578Y52969D01*
X102683Y53013D01*
X102788Y53054D01*
X102896Y53091D01*
X103004Y53124D01*
X103114Y53153D01*
X103224Y53179D01*
X103336Y53201D01*
X103448Y53218D01*
X103560Y53232D01*
X103673Y53242D01*
X103787Y53248D01*
X103900Y53250D01*
X104013Y53248D01*
X104127Y53242D01*
X104240Y53232D01*
X104352Y53218D01*
X104464Y53201D01*
X104576Y53179D01*
X104686Y53153D01*
X104796Y53124D01*
X104904Y53091D01*
X105012Y53054D01*
X105117Y53013D01*
X105222Y52969D01*
X105325Y52921D01*
X105426Y52870D01*
X105525Y52815D01*
X105622Y52756D01*
X105717Y52694D01*
X105810Y52629D01*
X105901Y52561D01*
X105989Y52490D01*
X106075Y52415D01*
X106158Y52338D01*
X106238Y52258D01*
X106315Y52175D01*
X106390Y52089D01*
X106461Y52001D01*
X106529Y51910D01*
X106594Y51817D01*
X106656Y51722D01*
X106715Y51625D01*
X106770Y51526D01*
X106821Y51425D01*
X106869Y51322D01*
X106913Y51217D01*
X106954Y51112D01*
X106991Y51004D01*
X107024Y50896D01*
X107053Y50786D01*
X107079Y50676D01*
X107101Y50564D01*
X107118Y50452D01*
X107132Y50340D01*
X107142Y50227D01*
X107148Y50113D01*
X107150Y50000D01*
X107148Y49887D01*
X107142Y49773D01*
X107132Y49660D01*
X107118Y49548D01*
X107101Y49436D01*
X107079Y49324D01*
X107053Y49214D01*
X107024Y49104D01*
X106991Y48996D01*
X106954Y48888D01*
X106913Y48783D01*
X106869Y48678D01*
X106821Y48575D01*
X106770Y48474D01*
X106715Y48375D01*
X106656Y48278D01*
X106594Y48183D01*
X106529Y48090D01*
X106461Y47999D01*
X106390Y47911D01*
X106315Y47825D01*
X106238Y47742D01*
X106158Y47662D01*
X106075Y47585D01*
X105989Y47510D01*
X105901Y47439D01*
X105810Y47371D01*
X105717Y47306D01*
X105622Y47244D01*
X105525Y47185D01*
X105426Y47130D01*
X105325Y47079D01*
X105222Y47031D01*
X105117Y46987D01*
X105012Y46946D01*
X104904Y46909D01*
X104796Y46876D01*
X104686Y46847D01*
X104576Y46821D01*
X104464Y46799D01*
X104352Y46782D01*
X104240Y46768D01*
X104127Y46758D01*
X104013Y46752D01*
X103900Y46750D01*
X103787Y46752D01*
X103673Y46758D01*
X103560Y46768D01*
X103448Y46782D01*
X103336Y46799D01*
X103224Y46821D01*
X103114Y46847D01*
X103004Y46876D01*
X102896Y46909D01*
X102788Y46946D01*
X102683Y46987D01*
X102578Y47031D01*
X102475Y47079D01*
X102374Y47130D01*
X102275Y47185D01*
X102178Y47244D01*
X102083Y47306D01*
X101990Y47371D01*
X101899Y47439D01*
X101811Y47510D01*
X101725Y47585D01*
X101642Y47662D01*
X101562Y47742D01*
X101485Y47825D01*
X101410Y47911D01*
X101339Y47999D01*
X101271Y48090D01*
X101206Y48183D01*
X101144Y48278D01*
X101085Y48375D01*
X101030Y48474D01*
X100979Y48575D01*
X100931Y48678D01*
X100887Y48783D01*
X100846Y48888D01*
X100809Y48996D01*
X100776Y49104D01*
X100747Y49214D01*
X100721Y49324D01*
X100699Y49436D01*
X100682Y49548D01*
X100668Y49660D01*
X100658Y49773D01*
X100652Y49887D01*
X100650Y50000D01*
X34800Y49500D02*
X34800Y60500D01*
X34800Y49500D02*
X34798Y49393D01*
X34792Y49286D01*
X34783Y49179D01*
X34769Y49073D01*
X34752Y48967D01*
X34731Y48862D01*
X34707Y48758D01*
X34678Y48655D01*
X34646Y48553D01*
X34611Y48452D01*
X34572Y48352D01*
X34529Y48254D01*
X34483Y48157D01*
X34433Y48062D01*
X34380Y47969D01*
X34324Y47878D01*
X34264Y47789D01*
X34202Y47702D01*
X34136Y47618D01*
X34067Y47535D01*
X33996Y47456D01*
X33921Y47379D01*
X33844Y47304D01*
X33765Y47233D01*
X33682Y47164D01*
X33598Y47098D01*
X33511Y47036D01*
X33422Y46976D01*
X33331Y46920D01*
X33238Y46867D01*
X33143Y46817D01*
X33046Y46771D01*
X32948Y46728D01*
X32848Y46689D01*
X32747Y46654D01*
X32645Y46622D01*
X32542Y46593D01*
X32438Y46569D01*
X32333Y46548D01*
X32227Y46531D01*
X32121Y46517D01*
X32014Y46508D01*
X31907Y46502D01*
X31800Y46500D01*
X31693Y46502D01*
X31586Y46508D01*
X31479Y46517D01*
X31373Y46531D01*
X31267Y46548D01*
X31162Y46569D01*
X31058Y46593D01*
X30955Y46622D01*
X30853Y46654D01*
X30752Y46689D01*
X30652Y46728D01*
X30554Y46771D01*
X30457Y46817D01*
X30362Y46867D01*
X30269Y46920D01*
X30178Y46976D01*
X30089Y47036D01*
X30002Y47098D01*
X29918Y47164D01*
X29835Y47233D01*
X29756Y47304D01*
X29679Y47379D01*
X29604Y47456D01*
X29533Y47535D01*
X29464Y47618D01*
X29398Y47702D01*
X29336Y47789D01*
X29276Y47878D01*
X29220Y47969D01*
X29167Y48062D01*
X29117Y48157D01*
X29071Y48254D01*
X29028Y48352D01*
X28989Y48452D01*
X28954Y48553D01*
X28922Y48655D01*
X28893Y48758D01*
X28869Y48862D01*
X28848Y48967D01*
X28831Y49073D01*
X28817Y49179D01*
X28808Y49286D01*
X28802Y49393D01*
X28800Y49500D01*
X28800Y60500D01*
X28802Y60607D01*
X28808Y60714D01*
X28817Y60821D01*
X28831Y60927D01*
X28848Y61033D01*
X28869Y61138D01*
X28893Y61242D01*
X28922Y61345D01*
X28954Y61447D01*
X28989Y61548D01*
X29028Y61648D01*
X29071Y61746D01*
X29117Y61843D01*
X29167Y61938D01*
X29220Y62031D01*
X29276Y62122D01*
X29336Y62211D01*
X29398Y62298D01*
X29464Y62382D01*
X29533Y62465D01*
X29604Y62544D01*
X29679Y62621D01*
X29756Y62696D01*
X29835Y62767D01*
X29918Y62836D01*
X30002Y62902D01*
X30089Y62964D01*
X30178Y63024D01*
X30269Y63080D01*
X30362Y63133D01*
X30457Y63183D01*
X30554Y63229D01*
X30652Y63272D01*
X30752Y63311D01*
X30853Y63346D01*
X30955Y63378D01*
X31058Y63407D01*
X31162Y63431D01*
X31267Y63452D01*
X31373Y63469D01*
X31479Y63483D01*
X31586Y63492D01*
X31693Y63498D01*
X31800Y63500D01*
X31907Y63498D01*
X32014Y63492D01*
X32121Y63483D01*
X32227Y63469D01*
X32333Y63452D01*
X32438Y63431D01*
X32542Y63407D01*
X32645Y63378D01*
X32747Y63346D01*
X32848Y63311D01*
X32948Y63272D01*
X33046Y63229D01*
X33143Y63183D01*
X33238Y63133D01*
X33331Y63080D01*
X33422Y63024D01*
X33511Y62964D01*
X33598Y62902D01*
X33682Y62836D01*
X33765Y62767D01*
X33844Y62696D01*
X33921Y62621D01*
X33996Y62544D01*
X34067Y62465D01*
X34136Y62382D01*
X34202Y62298D01*
X34264Y62211D01*
X34324Y62122D01*
X34380Y62031D01*
X34433Y61938D01*
X34483Y61843D01*
X34529Y61746D01*
X34572Y61648D01*
X34611Y61548D01*
X34646Y61447D01*
X34678Y61345D01*
X34707Y61242D01*
X34731Y61138D01*
X34752Y61033D01*
X34769Y60927D01*
X34783Y60821D01*
X34792Y60714D01*
X34798Y60607D01*
X34800Y60500D01*
X31800Y63500D02*
X31693Y63498D01*
X31586Y63492D01*
X31479Y63483D01*
X31373Y63469D01*
X31267Y63452D01*
X31162Y63431D01*
X31058Y63407D01*
X30955Y63378D01*
X30853Y63346D01*
X30752Y63311D01*
X30652Y63272D01*
X30554Y63229D01*
X30457Y63183D01*
X30362Y63133D01*
X30269Y63080D01*
X30178Y63024D01*
X30089Y62964D01*
X30002Y62902D01*
X29918Y62836D01*
X29835Y62767D01*
X29756Y62696D01*
X29679Y62621D01*
X29604Y62544D01*
X29533Y62465D01*
X29464Y62382D01*
X29398Y62298D01*
X29336Y62211D01*
X29276Y62122D01*
X29220Y62031D01*
X29167Y61938D01*
X29117Y61843D01*
X29071Y61746D01*
X29028Y61648D01*
X28989Y61548D01*
X28954Y61447D01*
X28922Y61345D01*
X28893Y61242D01*
X28869Y61138D01*
X28848Y61033D01*
X28831Y60927D01*
X28817Y60821D01*
X28808Y60714D01*
X28802Y60607D01*
X28800Y60500D01*
X121200Y60500D02*
X121200Y49500D01*
X121198Y49393D01*
X121192Y49286D01*
X121183Y49179D01*
X121169Y49073D01*
X121152Y48967D01*
X121131Y48862D01*
X121107Y48758D01*
X121078Y48655D01*
X121046Y48553D01*
X121011Y48452D01*
X120972Y48352D01*
X120929Y48254D01*
X120883Y48157D01*
X120833Y48062D01*
X120780Y47969D01*
X120724Y47878D01*
X120664Y47789D01*
X120602Y47702D01*
X120536Y47618D01*
X120467Y47535D01*
X120396Y47456D01*
X120321Y47379D01*
X120244Y47304D01*
X120165Y47233D01*
X120082Y47164D01*
X119998Y47098D01*
X119911Y47036D01*
X119822Y46976D01*
X119731Y46920D01*
X119638Y46867D01*
X119543Y46817D01*
X119446Y46771D01*
X119348Y46728D01*
X119248Y46689D01*
X119147Y46654D01*
X119045Y46622D01*
X118942Y46593D01*
X118838Y46569D01*
X118733Y46548D01*
X118627Y46531D01*
X118521Y46517D01*
X118414Y46508D01*
X118307Y46502D01*
X118200Y46500D01*
X118093Y46502D01*
X117986Y46508D01*
X117879Y46517D01*
X117773Y46531D01*
X117667Y46548D01*
X117562Y46569D01*
X117458Y46593D01*
X117355Y46622D01*
X117253Y46654D01*
X117152Y46689D01*
X117052Y46728D01*
X116954Y46771D01*
X116857Y46817D01*
X116762Y46867D01*
X116669Y46920D01*
X116578Y46976D01*
X116489Y47036D01*
X116402Y47098D01*
X116318Y47164D01*
X116235Y47233D01*
X116156Y47304D01*
X116079Y47379D01*
X116004Y47456D01*
X115933Y47535D01*
X115864Y47618D01*
X115798Y47702D01*
X115736Y47789D01*
X115676Y47878D01*
X115620Y47969D01*
X115567Y48062D01*
X115517Y48157D01*
X115471Y48254D01*
X115428Y48352D01*
X115389Y48452D01*
X115354Y48553D01*
X115322Y48655D01*
X115293Y48758D01*
X115269Y48862D01*
X115248Y48967D01*
X115231Y49073D01*
X115217Y49179D01*
X115208Y49286D01*
X115202Y49393D01*
X115200Y49500D01*
X115200Y60500D01*
X115202Y60607D01*
X115208Y60714D01*
X115217Y60821D01*
X115231Y60927D01*
X115248Y61033D01*
X115269Y61138D01*
X115293Y61242D01*
X115322Y61345D01*
X115354Y61447D01*
X115389Y61548D01*
X115428Y61648D01*
X115471Y61746D01*
X115517Y61843D01*
X115567Y61938D01*
X115620Y62031D01*
X115676Y62122D01*
X115736Y62211D01*
X115798Y62298D01*
X115864Y62382D01*
X115933Y62465D01*
X116004Y62544D01*
X116079Y62621D01*
X116156Y62696D01*
X116235Y62767D01*
X116318Y62836D01*
X116402Y62902D01*
X116489Y62964D01*
X116578Y63024D01*
X116669Y63080D01*
X116762Y63133D01*
X116857Y63183D01*
X116954Y63229D01*
X117052Y63272D01*
X117152Y63311D01*
X117253Y63346D01*
X117355Y63378D01*
X117458Y63407D01*
X117562Y63431D01*
X117667Y63452D01*
X117773Y63469D01*
X117879Y63483D01*
X117986Y63492D01*
X118093Y63498D01*
X118200Y63500D01*
X118307Y63498D01*
X118414Y63492D01*
X118521Y63483D01*
X118627Y63469D01*
X118733Y63452D01*
X118838Y63431D01*
X118942Y63407D01*
X119045Y63378D01*
X119147Y63346D01*
X119248Y63311D01*
X119348Y63272D01*
X119446Y63229D01*
X119543Y63183D01*
X119638Y63133D01*
X119731Y63080D01*
X119822Y63024D01*
X119911Y62964D01*
X119998Y62902D01*
X120082Y62836D01*
X120165Y62767D01*
X120244Y62696D01*
X120321Y62621D01*
X120396Y62544D01*
X120467Y62465D01*
X120536Y62382D01*
X120602Y62298D01*
X120664Y62211D01*
X120724Y62122D01*
X120780Y62031D01*
X120833Y61938D01*
X120883Y61843D01*
X120929Y61746D01*
X120972Y61648D01*
X121011Y61548D01*
X121046Y61447D01*
X121078Y61345D01*
X121107Y61242D01*
X121131Y61138D01*
X121152Y61033D01*
X121169Y60927D01*
X121183Y60821D01*
X121192Y60714D01*
X121198Y60607D01*
X121200Y60500D01*
X118200Y63500D02*
X118093Y63498D01*
X117986Y63492D01*
X117879Y63483D01*
X117773Y63469D01*
X117667Y63452D01*
X117562Y63431D01*
X117458Y63407D01*
X117355Y63378D01*
X117253Y63346D01*
X117152Y63311D01*
X117052Y63272D01*
X116954Y63229D01*
X116857Y63183D01*
X116762Y63133D01*
X116669Y63080D01*
X116578Y63024D01*
X116489Y62964D01*
X116402Y62902D01*
X116318Y62836D01*
X116235Y62767D01*
X116156Y62696D01*
X116079Y62621D01*
X116004Y62544D01*
X115933Y62465D01*
X115864Y62382D01*
X115798Y62298D01*
X115736Y62211D01*
X115676Y62122D01*
X115620Y62031D01*
X115567Y61938D01*
X115517Y61843D01*
X115471Y61746D01*
X115428Y61648D01*
X115389Y61548D01*
X115354Y61447D01*
X115322Y61345D01*
X115293Y61242D01*
X115269Y61138D01*
X115248Y61033D01*
X115231Y60927D01*
X115217Y60821D01*
X115208Y60714D01*
X115202Y60607D01*
X115200Y60500D01*
X34800Y17300D02*
X34800Y9300D01*
X34798Y9193D01*
X34792Y9086D01*
X34783Y8979D01*
X34769Y8873D01*
X34752Y8767D01*
X34731Y8662D01*
X34707Y8558D01*
X34678Y8455D01*
X34646Y8353D01*
X34611Y8252D01*
X34572Y8152D01*
X34529Y8054D01*
X34483Y7957D01*
X34433Y7862D01*
X34380Y7769D01*
X34324Y7678D01*
X34264Y7589D01*
X34202Y7502D01*
X34136Y7418D01*
X34067Y7335D01*
X33996Y7256D01*
X33921Y7179D01*
X33844Y7104D01*
X33765Y7033D01*
X33682Y6964D01*
X33598Y6898D01*
X33511Y6836D01*
X33422Y6776D01*
X33331Y6720D01*
X33238Y6667D01*
X33143Y6617D01*
X33046Y6571D01*
X32948Y6528D01*
X32848Y6489D01*
X32747Y6454D01*
X32645Y6422D01*
X32542Y6393D01*
X32438Y6369D01*
X32333Y6348D01*
X32227Y6331D01*
X32121Y6317D01*
X32014Y6308D01*
X31907Y6302D01*
X31800Y6300D01*
X31693Y6302D01*
X31586Y6308D01*
X31479Y6317D01*
X31373Y6331D01*
X31267Y6348D01*
X31162Y6369D01*
X31058Y6393D01*
X30955Y6422D01*
X30853Y6454D01*
X30752Y6489D01*
X30652Y6528D01*
X30554Y6571D01*
X30457Y6617D01*
X30362Y6667D01*
X30269Y6720D01*
X30178Y6776D01*
X30089Y6836D01*
X30002Y6898D01*
X29918Y6964D01*
X29835Y7033D01*
X29756Y7104D01*
X29679Y7179D01*
X29604Y7256D01*
X29533Y7335D01*
X29464Y7418D01*
X29398Y7502D01*
X29336Y7589D01*
X29276Y7678D01*
X29220Y7769D01*
X29167Y7862D01*
X29117Y7957D01*
X29071Y8054D01*
X29028Y8152D01*
X28989Y8252D01*
X28954Y8353D01*
X28922Y8455D01*
X28893Y8558D01*
X28869Y8662D01*
X28848Y8767D01*
X28831Y8873D01*
X28817Y8979D01*
X28808Y9086D01*
X28802Y9193D01*
X28800Y9300D01*
X28800Y17300D01*
X28802Y17407D01*
X28808Y17514D01*
X28817Y17621D01*
X28831Y17727D01*
X28848Y17833D01*
X28869Y17938D01*
X28893Y18042D01*
X28922Y18145D01*
X28954Y18247D01*
X28989Y18348D01*
X29028Y18448D01*
X29071Y18546D01*
X29117Y18643D01*
X29167Y18738D01*
X29220Y18831D01*
X29276Y18922D01*
X29336Y19011D01*
X29398Y19098D01*
X29464Y19182D01*
X29533Y19265D01*
X29604Y19344D01*
X29679Y19421D01*
X29756Y19496D01*
X29835Y19567D01*
X29918Y19636D01*
X30002Y19702D01*
X30089Y19764D01*
X30178Y19824D01*
X30269Y19880D01*
X30362Y19933D01*
X30457Y19983D01*
X30554Y20029D01*
X30652Y20072D01*
X30752Y20111D01*
X30853Y20146D01*
X30955Y20178D01*
X31058Y20207D01*
X31162Y20231D01*
X31267Y20252D01*
X31373Y20269D01*
X31479Y20283D01*
X31586Y20292D01*
X31693Y20298D01*
X31800Y20300D01*
X31907Y20298D01*
X32014Y20292D01*
X32121Y20283D01*
X32227Y20269D01*
X32333Y20252D01*
X32438Y20231D01*
X32542Y20207D01*
X32645Y20178D01*
X32747Y20146D01*
X32848Y20111D01*
X32948Y20072D01*
X33046Y20029D01*
X33143Y19983D01*
X33238Y19933D01*
X33331Y19880D01*
X33422Y19824D01*
X33511Y19764D01*
X33598Y19702D01*
X33682Y19636D01*
X33765Y19567D01*
X33844Y19496D01*
X33921Y19421D01*
X33996Y19344D01*
X34067Y19265D01*
X34136Y19182D01*
X34202Y19098D01*
X34264Y19011D01*
X34324Y18922D01*
X34380Y18831D01*
X34433Y18738D01*
X34483Y18643D01*
X34529Y18546D01*
X34572Y18448D01*
X34611Y18348D01*
X34646Y18247D01*
X34678Y18145D01*
X34707Y18042D01*
X34731Y17938D01*
X34752Y17833D01*
X34769Y17727D01*
X34783Y17621D01*
X34792Y17514D01*
X34798Y17407D01*
X34800Y17300D01*
X31800Y20300D02*
X31693Y20298D01*
X31586Y20292D01*
X31479Y20283D01*
X31373Y20269D01*
X31267Y20252D01*
X31162Y20231D01*
X31058Y20207D01*
X30955Y20178D01*
X30853Y20146D01*
X30752Y20111D01*
X30652Y20072D01*
X30554Y20029D01*
X30457Y19983D01*
X30362Y19933D01*
X30269Y19880D01*
X30178Y19824D01*
X30089Y19764D01*
X30002Y19702D01*
X29918Y19636D01*
X29835Y19567D01*
X29756Y19496D01*
X29679Y19421D01*
X29604Y19344D01*
X29533Y19265D01*
X29464Y19182D01*
X29398Y19098D01*
X29336Y19011D01*
X29276Y18922D01*
X29220Y18831D01*
X29167Y18738D01*
X29117Y18643D01*
X29071Y18546D01*
X29028Y18448D01*
X28989Y18348D01*
X28954Y18247D01*
X28922Y18145D01*
X28893Y18042D01*
X28869Y17938D01*
X28848Y17833D01*
X28831Y17727D01*
X28817Y17621D01*
X28808Y17514D01*
X28802Y17407D01*
X28800Y17300D01*
X121200Y17300D02*
X121200Y9300D01*
X121198Y9193D01*
X121192Y9086D01*
X121183Y8979D01*
X121169Y8873D01*
X121152Y8767D01*
X121131Y8662D01*
X121107Y8558D01*
X121078Y8455D01*
X121046Y8353D01*
X121011Y8252D01*
X120972Y8152D01*
X120929Y8054D01*
X120883Y7957D01*
X120833Y7862D01*
X120780Y7769D01*
X120724Y7678D01*
X120664Y7589D01*
X120602Y7502D01*
X120536Y7418D01*
X120467Y7335D01*
X120396Y7256D01*
X120321Y7179D01*
X120244Y7104D01*
X120165Y7033D01*
X120082Y6964D01*
X119998Y6898D01*
X119911Y6836D01*
X119822Y6776D01*
X119731Y6720D01*
X119638Y6667D01*
X119543Y6617D01*
X119446Y6571D01*
X119348Y6528D01*
X119248Y6489D01*
X119147Y6454D01*
X119045Y6422D01*
X118942Y6393D01*
X118838Y6369D01*
X118733Y6348D01*
X118627Y6331D01*
X118521Y6317D01*
X118414Y6308D01*
X118307Y6302D01*
X118200Y6300D01*
X118093Y6302D01*
X117986Y6308D01*
X117879Y6317D01*
X117773Y6331D01*
X117667Y6348D01*
X117562Y6369D01*
X117458Y6393D01*
X117355Y6422D01*
X117253Y6454D01*
X117152Y6489D01*
X117052Y6528D01*
X116954Y6571D01*
X116857Y6617D01*
X116762Y6667D01*
X116669Y6720D01*
X116578Y6776D01*
X116489Y6836D01*
X116402Y6898D01*
X116318Y6964D01*
X116235Y7033D01*
X116156Y7104D01*
X116079Y7179D01*
X116004Y7256D01*
X115933Y7335D01*
X115864Y7418D01*
X115798Y7502D01*
X115736Y7589D01*
X115676Y7678D01*
X115620Y7769D01*
X115567Y7862D01*
X115517Y7957D01*
X115471Y8054D01*
X115428Y8152D01*
X115389Y8252D01*
X115354Y8353D01*
X115322Y8455D01*
X115293Y8558D01*
X115269Y8662D01*
X115248Y8767D01*
X115231Y8873D01*
X115217Y8979D01*
X115208Y9086D01*
X115202Y9193D01*
X115200Y9300D01*
X115200Y17300D01*
X115202Y17407D01*
X115208Y17514D01*
X115217Y17621D01*
X115231Y17727D01*
X115248Y17833D01*
X115269Y17938D01*
X115293Y18042D01*
X115322Y18145D01*
X115354Y18247D01*
X115389Y18348D01*
X115428Y18448D01*
X115471Y18546D01*
X115517Y18643D01*
X115567Y18738D01*
X115620Y18831D01*
X115676Y18922D01*
X115736Y19011D01*
X115798Y19098D01*
X115864Y19182D01*
X115933Y19265D01*
X116004Y19344D01*
X116079Y19421D01*
X116156Y19496D01*
X116235Y19567D01*
X116318Y19636D01*
X116402Y19702D01*
X116489Y19764D01*
X116578Y19824D01*
X116669Y19880D01*
X116762Y19933D01*
X116857Y19983D01*
X116954Y20029D01*
X117052Y20072D01*
X117152Y20111D01*
X117253Y20146D01*
X117355Y20178D01*
X117458Y20207D01*
X117562Y20231D01*
X117667Y20252D01*
X117773Y20269D01*
X117879Y20283D01*
X117986Y20292D01*
X118093Y20298D01*
X118200Y20300D01*
X118307Y20298D01*
X118414Y20292D01*
X118521Y20283D01*
X118627Y20269D01*
X118733Y20252D01*
X118838Y20231D01*
X118942Y20207D01*
X119045Y20178D01*
X119147Y20146D01*
X119248Y20111D01*
X119348Y20072D01*
X119446Y20029D01*
X119543Y19983D01*
X119638Y19933D01*
X119731Y19880D01*
X119822Y19824D01*
X119911Y19764D01*
X119998Y19702D01*
X120082Y19636D01*
X120165Y19567D01*
X120244Y19496D01*
X120321Y19421D01*
X120396Y19344D01*
X120467Y19265D01*
X120536Y19182D01*
X120602Y19098D01*
X120664Y19011D01*
X120724Y18922D01*
X120780Y18831D01*
X120833Y18738D01*
X120883Y18643D01*
X120929Y18546D01*
X120972Y18448D01*
X121011Y18348D01*
X121046Y18247D01*
X121078Y18145D01*
X121107Y18042D01*
X121131Y17938D01*
X121152Y17833D01*
X121169Y17727D01*
X121183Y17621D01*
X121192Y17514D01*
X121198Y17407D01*
X121200Y17300D01*
X118200Y20300D02*
X118093Y20298D01*
X117986Y20292D01*
X117879Y20283D01*
X117773Y20269D01*
X117667Y20252D01*
X117562Y20231D01*
X117458Y20207D01*
X117355Y20178D01*
X117253Y20146D01*
X117152Y20111D01*
X117052Y20072D01*
X116954Y20029D01*
X116857Y19983D01*
X116762Y19933D01*
X116669Y19880D01*
X116578Y19824D01*
X116489Y19764D01*
X116402Y19702D01*
X116318Y19636D01*
X116235Y19567D01*
X116156Y19496D01*
X116079Y19421D01*
X116004Y19344D01*
X115933Y19265D01*
X115864Y19182D01*
X115798Y19098D01*
X115736Y19011D01*
X115676Y18922D01*
X115620Y18831D01*
X115567Y18738D01*
X115517Y18643D01*
X115471Y18546D01*
X115428Y18448D01*
X115389Y18348D01*
X115354Y18247D01*
X115322Y18145D01*
X115293Y18042D01*
X115269Y17938D01*
X115248Y17833D01*
X115231Y17727D01*
X115217Y17621D01*
X115208Y17514D01*
X115202Y17407D01*
X115200Y17300D01*
D12*
X29000Y-13000D02*
X29000Y64000D01*
X121000Y64000D01*
X121000Y-13000D01*
X29000Y-13000D01*
D11*
X49992Y28758D02*
X49992Y32794D01*
X49992Y28758D02*
X49994Y28681D01*
X50000Y28603D01*
X50009Y28527D01*
X50023Y28450D01*
X50040Y28375D01*
X50061Y28301D01*
X50086Y28227D01*
X50114Y28155D01*
X50146Y28085D01*
X50181Y28016D01*
X50220Y27949D01*
X50262Y27884D01*
X50307Y27821D01*
X50355Y27760D01*
X50406Y27702D01*
X50460Y27647D01*
X50517Y27594D01*
X50576Y27545D01*
X50638Y27498D01*
X50702Y27454D01*
X50768Y27414D01*
X50836Y27377D01*
X50906Y27343D01*
X50977Y27313D01*
X51050Y27287D01*
X51124Y27264D01*
X51199Y27245D01*
X51274Y27230D01*
X51351Y27218D01*
X51428Y27210D01*
X51505Y27206D01*
X51583Y27206D01*
X51660Y27210D01*
X51737Y27218D01*
X51814Y27230D01*
X51889Y27245D01*
X51964Y27264D01*
X52038Y27287D01*
X52111Y27313D01*
X52182Y27343D01*
X52252Y27377D01*
X52320Y27414D01*
X52386Y27454D01*
X52450Y27498D01*
X52512Y27545D01*
X52571Y27594D01*
X52628Y27647D01*
X52682Y27702D01*
X52733Y27760D01*
X52781Y27821D01*
X52826Y27884D01*
X52868Y27949D01*
X52907Y28016D01*
X52942Y28085D01*
X52974Y28155D01*
X53002Y28227D01*
X53027Y28301D01*
X53048Y28375D01*
X53065Y28450D01*
X53079Y28527D01*
X53088Y28603D01*
X53094Y28681D01*
X53096Y28758D01*
X53097Y28758D02*
X53097Y32794D01*
X58583Y28448D02*
X58581Y28378D01*
X58575Y28309D01*
X58565Y28240D01*
X58552Y28172D01*
X58534Y28104D01*
X58513Y28038D01*
X58488Y27973D01*
X58460Y27909D01*
X58428Y27847D01*
X58393Y27787D01*
X58354Y27729D01*
X58312Y27674D01*
X58267Y27620D01*
X58219Y27570D01*
X58169Y27522D01*
X58115Y27477D01*
X58060Y27435D01*
X58002Y27396D01*
X57942Y27361D01*
X57880Y27329D01*
X57816Y27301D01*
X57751Y27276D01*
X57685Y27255D01*
X57617Y27237D01*
X57549Y27224D01*
X57480Y27214D01*
X57411Y27208D01*
X57341Y27206D01*
X57242Y27208D01*
X57144Y27213D01*
X57046Y27223D01*
X56948Y27236D01*
X56851Y27252D01*
X56754Y27272D01*
X56659Y27296D01*
X56564Y27324D01*
X56470Y27355D01*
X56378Y27389D01*
X56287Y27427D01*
X56197Y27468D01*
X56109Y27513D01*
X56023Y27561D01*
X55939Y27612D01*
X55857Y27666D01*
X55776Y27724D01*
X55698Y27784D01*
X55623Y27847D01*
X55549Y27913D01*
X55479Y27982D01*
X55633Y31552D02*
X55635Y31622D01*
X55641Y31691D01*
X55651Y31760D01*
X55664Y31828D01*
X55682Y31896D01*
X55703Y31962D01*
X55728Y32027D01*
X55756Y32091D01*
X55788Y32153D01*
X55823Y32213D01*
X55862Y32271D01*
X55904Y32326D01*
X55949Y32380D01*
X55997Y32430D01*
X56047Y32478D01*
X56101Y32523D01*
X56156Y32565D01*
X56214Y32604D01*
X56274Y32639D01*
X56336Y32671D01*
X56400Y32699D01*
X56465Y32724D01*
X56531Y32745D01*
X56599Y32763D01*
X56667Y32776D01*
X56736Y32786D01*
X56805Y32792D01*
X56875Y32794D01*
X56969Y32792D01*
X57062Y32786D01*
X57155Y32777D01*
X57248Y32764D01*
X57340Y32747D01*
X57431Y32727D01*
X57522Y32702D01*
X57611Y32675D01*
X57699Y32643D01*
X57786Y32608D01*
X57872Y32570D01*
X57955Y32528D01*
X58037Y32483D01*
X58118Y32435D01*
X58196Y32383D01*
X58272Y32328D01*
X56255Y30466D02*
X56196Y30502D01*
X56140Y30542D01*
X56086Y30585D01*
X56034Y30630D01*
X55985Y30679D01*
X55939Y30730D01*
X55896Y30783D01*
X55855Y30839D01*
X55818Y30897D01*
X55783Y30957D01*
X55753Y31018D01*
X55725Y31081D01*
X55701Y31146D01*
X55681Y31212D01*
X55664Y31279D01*
X55651Y31346D01*
X55642Y31414D01*
X55636Y31483D01*
X55634Y31552D01*
X57962Y29534D02*
X58021Y29498D01*
X58077Y29458D01*
X58131Y29415D01*
X58183Y29370D01*
X58232Y29321D01*
X58278Y29270D01*
X58321Y29217D01*
X58362Y29161D01*
X58399Y29103D01*
X58434Y29043D01*
X58464Y28982D01*
X58492Y28919D01*
X58516Y28854D01*
X58536Y28788D01*
X58553Y28721D01*
X58566Y28654D01*
X58575Y28586D01*
X58581Y28517D01*
X58583Y28448D01*
X57962Y29534D02*
X56255Y30466D01*
X61048Y30310D02*
X62600Y30310D01*
X62677Y30308D01*
X62755Y30302D01*
X62831Y30293D01*
X62908Y30279D01*
X62983Y30262D01*
X63057Y30241D01*
X63131Y30216D01*
X63203Y30188D01*
X63273Y30156D01*
X63342Y30121D01*
X63409Y30082D01*
X63474Y30040D01*
X63537Y29995D01*
X63598Y29947D01*
X63656Y29896D01*
X63711Y29842D01*
X63764Y29785D01*
X63813Y29726D01*
X63860Y29664D01*
X63904Y29600D01*
X63944Y29534D01*
X63981Y29466D01*
X64015Y29396D01*
X64045Y29325D01*
X64071Y29252D01*
X64094Y29178D01*
X64113Y29103D01*
X64128Y29028D01*
X64140Y28951D01*
X64148Y28874D01*
X64152Y28797D01*
X64152Y28719D01*
X64148Y28642D01*
X64140Y28565D01*
X64128Y28488D01*
X64113Y28413D01*
X64094Y28338D01*
X64071Y28264D01*
X64045Y28191D01*
X64015Y28120D01*
X63981Y28050D01*
X63944Y27982D01*
X63904Y27916D01*
X63860Y27852D01*
X63813Y27790D01*
X63764Y27731D01*
X63711Y27674D01*
X63656Y27620D01*
X63598Y27569D01*
X63537Y27521D01*
X63474Y27476D01*
X63409Y27434D01*
X63342Y27395D01*
X63273Y27360D01*
X63203Y27328D01*
X63131Y27300D01*
X63057Y27275D01*
X62983Y27254D01*
X62908Y27237D01*
X62831Y27223D01*
X62755Y27214D01*
X62677Y27208D01*
X62600Y27206D01*
X61048Y27206D01*
X61048Y32794D01*
X62600Y32794D01*
X62670Y32792D01*
X62739Y32786D01*
X62808Y32776D01*
X62876Y32763D01*
X62944Y32745D01*
X63010Y32724D01*
X63075Y32699D01*
X63139Y32671D01*
X63201Y32639D01*
X63261Y32604D01*
X63319Y32565D01*
X63374Y32523D01*
X63428Y32478D01*
X63478Y32430D01*
X63526Y32380D01*
X63571Y32326D01*
X63613Y32271D01*
X63652Y32213D01*
X63687Y32153D01*
X63719Y32091D01*
X63747Y32027D01*
X63772Y31962D01*
X63793Y31896D01*
X63811Y31828D01*
X63824Y31760D01*
X63834Y31691D01*
X63840Y31622D01*
X63842Y31552D01*
X63840Y31482D01*
X63834Y31413D01*
X63824Y31344D01*
X63811Y31276D01*
X63793Y31208D01*
X63772Y31142D01*
X63747Y31077D01*
X63719Y31013D01*
X63687Y30951D01*
X63652Y30891D01*
X63613Y30833D01*
X63571Y30778D01*
X63526Y30724D01*
X63478Y30674D01*
X63428Y30626D01*
X63374Y30581D01*
X63319Y30539D01*
X63261Y30500D01*
X63201Y30465D01*
X63139Y30433D01*
X63075Y30405D01*
X63010Y30380D01*
X62944Y30359D01*
X62876Y30341D01*
X62808Y30328D01*
X62739Y30318D01*
X62670Y30312D01*
X62600Y30310D01*
X66324Y29379D02*
X70049Y29379D01*
X73673Y27206D02*
X73673Y32794D01*
X75225Y32794D02*
X72120Y32794D01*
X77003Y25343D02*
X77624Y25343D01*
X79486Y30931D01*
X77003Y30931D02*
X78245Y27206D01*
X81787Y25343D02*
X81787Y30931D01*
X83339Y30931D01*
X83397Y30929D01*
X83456Y30924D01*
X83513Y30915D01*
X83571Y30902D01*
X83627Y30885D01*
X83682Y30866D01*
X83735Y30842D01*
X83788Y30816D01*
X83838Y30786D01*
X83886Y30753D01*
X83932Y30717D01*
X83976Y30679D01*
X84018Y30637D01*
X84056Y30593D01*
X84092Y30547D01*
X84125Y30499D01*
X84155Y30449D01*
X84181Y30396D01*
X84205Y30343D01*
X84224Y30288D01*
X84241Y30232D01*
X84254Y30174D01*
X84263Y30117D01*
X84268Y30058D01*
X84270Y30000D01*
X84270Y28137D01*
X84268Y28079D01*
X84263Y28020D01*
X84254Y27963D01*
X84241Y27905D01*
X84224Y27849D01*
X84205Y27794D01*
X84181Y27741D01*
X84155Y27688D01*
X84125Y27638D01*
X84092Y27590D01*
X84056Y27544D01*
X84018Y27500D01*
X83976Y27458D01*
X83932Y27420D01*
X83886Y27384D01*
X83838Y27351D01*
X83788Y27321D01*
X83735Y27295D01*
X83682Y27271D01*
X83627Y27252D01*
X83571Y27235D01*
X83513Y27222D01*
X83456Y27213D01*
X83397Y27208D01*
X83339Y27206D01*
X81787Y27206D01*
X87444Y27206D02*
X88996Y27206D01*
X87444Y27206D02*
X87386Y27208D01*
X87327Y27213D01*
X87270Y27222D01*
X87212Y27235D01*
X87156Y27252D01*
X87101Y27271D01*
X87048Y27295D01*
X86995Y27321D01*
X86945Y27351D01*
X86897Y27384D01*
X86851Y27420D01*
X86807Y27458D01*
X86765Y27500D01*
X86727Y27544D01*
X86691Y27590D01*
X86658Y27638D01*
X86628Y27688D01*
X86602Y27741D01*
X86578Y27794D01*
X86559Y27849D01*
X86542Y27905D01*
X86529Y27963D01*
X86520Y28020D01*
X86515Y28079D01*
X86513Y28137D01*
X86513Y29690D01*
X86512Y29690D02*
X86514Y29760D01*
X86520Y29829D01*
X86530Y29898D01*
X86543Y29966D01*
X86561Y30034D01*
X86582Y30100D01*
X86607Y30165D01*
X86635Y30229D01*
X86667Y30291D01*
X86702Y30351D01*
X86741Y30409D01*
X86783Y30464D01*
X86828Y30518D01*
X86876Y30568D01*
X86926Y30616D01*
X86980Y30661D01*
X87035Y30703D01*
X87093Y30742D01*
X87153Y30777D01*
X87215Y30809D01*
X87279Y30837D01*
X87344Y30862D01*
X87410Y30883D01*
X87478Y30901D01*
X87546Y30914D01*
X87615Y30924D01*
X87684Y30930D01*
X87754Y30932D01*
X87824Y30930D01*
X87893Y30924D01*
X87962Y30914D01*
X88030Y30901D01*
X88098Y30883D01*
X88164Y30862D01*
X88229Y30837D01*
X88293Y30809D01*
X88355Y30777D01*
X88415Y30742D01*
X88473Y30703D01*
X88528Y30661D01*
X88582Y30616D01*
X88632Y30568D01*
X88680Y30518D01*
X88725Y30464D01*
X88767Y30409D01*
X88806Y30351D01*
X88841Y30291D01*
X88873Y30229D01*
X88901Y30165D01*
X88926Y30100D01*
X88947Y30034D01*
X88965Y29966D01*
X88978Y29898D01*
X88988Y29829D01*
X88994Y29760D01*
X88996Y29690D01*
X88996Y29069D01*
X86513Y29069D01*
X91378Y29379D02*
X95103Y29379D01*
X98766Y27206D02*
X100008Y27206D01*
X98766Y27206D02*
X98696Y27208D01*
X98627Y27214D01*
X98558Y27224D01*
X98490Y27237D01*
X98422Y27255D01*
X98356Y27276D01*
X98291Y27301D01*
X98227Y27329D01*
X98165Y27361D01*
X98105Y27396D01*
X98047Y27435D01*
X97992Y27477D01*
X97938Y27522D01*
X97888Y27570D01*
X97840Y27620D01*
X97795Y27674D01*
X97753Y27729D01*
X97714Y27787D01*
X97679Y27847D01*
X97647Y27909D01*
X97619Y27973D01*
X97594Y28038D01*
X97573Y28104D01*
X97555Y28172D01*
X97542Y28240D01*
X97532Y28309D01*
X97526Y28378D01*
X97524Y28448D01*
X97524Y31552D01*
X97526Y31622D01*
X97532Y31691D01*
X97542Y31760D01*
X97555Y31828D01*
X97573Y31896D01*
X97594Y31962D01*
X97619Y32027D01*
X97647Y32091D01*
X97679Y32153D01*
X97714Y32213D01*
X97753Y32271D01*
X97795Y32326D01*
X97840Y32380D01*
X97888Y32430D01*
X97938Y32478D01*
X97992Y32523D01*
X98047Y32565D01*
X98105Y32604D01*
X98165Y32639D01*
X98227Y32671D01*
X98291Y32699D01*
X98356Y32724D01*
X98422Y32745D01*
X98490Y32763D01*
X98558Y32776D01*
X98627Y32786D01*
X98696Y32792D01*
X98766Y32794D01*
X100008Y32794D01*
D13*
X21273Y9940D02*
X11748Y9940D01*
X128588Y9940D02*
X138113Y9940D01*
D14*
X93168Y238738D02*
X56168Y238738D01*
X56168Y267738D01*
X93168Y267738D01*
X93168Y238738D01*
M02*
